%TF.GenerationSoftware,KiCad,Pcbnew,7.0.10*%
%TF.CreationDate,2024-07-15T19:27:34-03:00*%
%TF.ProjectId,board,626f6172-642e-46b6-9963-61645f706362,rev?*%
%TF.SameCoordinates,Original*%
%TF.FileFunction,Copper,L2,Bot*%
%TF.FilePolarity,Positive*%
%FSLAX46Y46*%
G04 Gerber Fmt 4.6, Leading zero omitted, Abs format (unit mm)*
G04 Created by KiCad (PCBNEW 7.0.10) date 2024-07-15 19:27:34*
%MOMM*%
%LPD*%
G01*
G04 APERTURE LIST*
%TA.AperFunction,ComponentPad*%
%ADD10O,1.700000X1.700000*%
%TD*%
%TA.AperFunction,ComponentPad*%
%ADD11O,3.000000X3.000000*%
%TD*%
%TA.AperFunction,ComponentPad*%
%ADD12C,3.000000*%
%TD*%
%TA.AperFunction,ComponentPad*%
%ADD13O,1.905000X2.000000*%
%TD*%
%TA.AperFunction,ViaPad*%
%ADD14C,0.800000*%
%TD*%
%TA.AperFunction,Conductor*%
%ADD15C,0.200000*%
%TD*%
%TA.AperFunction,Conductor*%
%ADD16C,0.250000*%
%TD*%
G04 APERTURE END LIST*
D10*
%TO.P,J4,1,Pin_1*%
%TO.N,BAT+*%
X156210000Y-84993400D03*
%TO.P,J4,2,Pin_2*%
%TO.N,BAT-*%
X156210000Y-82453400D03*
%TD*%
D11*
%TO.P,J3,1,Pin_1*%
%TO.N,VCC*%
X151892000Y-99568000D03*
D12*
%TO.P,J3,2,Pin_2*%
%TO.N,BAT-*%
X151892000Y-104648000D03*
%TD*%
D13*
%TO.P,U1,1,VI*%
%TO.N,IN+*%
X134620000Y-99933400D03*
%TO.P,U1,2,GND*%
%TO.N,BAT-*%
X137160000Y-99933400D03*
%TO.P,U1,3,VO*%
%TO.N,5V*%
X139700000Y-99933400D03*
%TD*%
D11*
%TO.P,J1,1,Pin_1*%
%TO.N,IN+*%
X127000000Y-88163400D03*
D12*
%TO.P,J1,2,Pin_2*%
%TO.N,BAT-*%
X127000000Y-83083400D03*
%TD*%
D11*
%TO.P,J2,1,Pin_1*%
%TO.N,BAT+*%
X127000000Y-99593400D03*
D12*
%TO.P,J2,2,Pin_2*%
%TO.N,BAT-*%
X127000000Y-94513400D03*
%TD*%
D10*
%TO.P,J5,1,Pin_1*%
%TO.N,VCC*%
X156215000Y-90322400D03*
%TO.P,J5,2,Pin_2*%
%TO.N,BAT-*%
X153675000Y-90322400D03*
%TD*%
D14*
%TO.N,BAT+*%
X150495000Y-95463400D03*
X132715000Y-102768400D03*
X150495000Y-93563400D03*
X143510000Y-102958400D03*
%TO.N,5V*%
X132715000Y-106578400D03*
X145542000Y-106832400D03*
X141605000Y-102768400D03*
%TD*%
D15*
%TO.N,BAT+*%
X132715000Y-102768400D02*
X133731000Y-101752400D01*
X142304000Y-101752400D02*
X144206000Y-101752400D01*
X133731000Y-101752400D02*
X142304000Y-101752400D01*
X150495000Y-95463400D02*
X150495000Y-93563400D01*
X144206000Y-101752400D02*
X150495000Y-95463400D01*
X142304000Y-101752400D02*
X143510000Y-102958400D01*
D16*
%TO.N,5V*%
X143256000Y-106832400D02*
X145542000Y-106832400D01*
X141605000Y-102768400D02*
X141605000Y-105181400D01*
X135255000Y-106578400D02*
X139065000Y-102768400D01*
X132715000Y-106578400D02*
X135255000Y-106578400D01*
X141605000Y-105181400D02*
X143256000Y-106832400D01*
X139065000Y-102768400D02*
X141605000Y-102768400D01*
%TD*%
%TA.AperFunction,Conductor*%
%TO.N,BAT-*%
G36*
X156564540Y-79909735D02*
G01*
X156564548Y-79909738D01*
X156612333Y-79909738D01*
X156620443Y-79910003D01*
X156701817Y-79915336D01*
X156702434Y-79915379D01*
X156864710Y-79926963D01*
X156880058Y-79929029D01*
X156989741Y-79950847D01*
X156991596Y-79951233D01*
X157120595Y-79979295D01*
X157134071Y-79983036D01*
X157244791Y-80020620D01*
X157248053Y-80021781D01*
X157366916Y-80066115D01*
X157378378Y-80071064D01*
X157485024Y-80123657D01*
X157489515Y-80125989D01*
X157599027Y-80185788D01*
X157608461Y-80191500D01*
X157708088Y-80258070D01*
X157713460Y-80261871D01*
X157811251Y-80335078D01*
X157812618Y-80336101D01*
X157820063Y-80342138D01*
X157909019Y-80420152D01*
X157910412Y-80421373D01*
X157916334Y-80426920D01*
X158003700Y-80514288D01*
X158009247Y-80520210D01*
X158088491Y-80610572D01*
X158094530Y-80618021D01*
X158168732Y-80717146D01*
X158172551Y-80722542D01*
X158239119Y-80822171D01*
X158244838Y-80831618D01*
X158304602Y-80941072D01*
X158306972Y-80945636D01*
X158359546Y-81052249D01*
X158364503Y-81063730D01*
X158401511Y-81162955D01*
X158408778Y-81182440D01*
X158410015Y-81185915D01*
X158447570Y-81296555D01*
X158451317Y-81310055D01*
X158479330Y-81438838D01*
X158479780Y-81441003D01*
X158493617Y-81510567D01*
X158496000Y-81534758D01*
X158496000Y-106223849D01*
X158493617Y-106248043D01*
X158479811Y-106317443D01*
X158479360Y-106319610D01*
X158451337Y-106448416D01*
X158447590Y-106461916D01*
X158410037Y-106572537D01*
X158408799Y-106576011D01*
X158364518Y-106694727D01*
X158359548Y-106706237D01*
X158306990Y-106812810D01*
X158304611Y-106817393D01*
X158244848Y-106926838D01*
X158239117Y-106936302D01*
X158172574Y-107035888D01*
X158168739Y-107041308D01*
X158094525Y-107140443D01*
X158088486Y-107147891D01*
X158009258Y-107238231D01*
X158003712Y-107244153D01*
X157916332Y-107331532D01*
X157910410Y-107337078D01*
X157820057Y-107416315D01*
X157812607Y-107422355D01*
X157713473Y-107496564D01*
X157708055Y-107500398D01*
X157608484Y-107566929D01*
X157599018Y-107572660D01*
X157489541Y-107632437D01*
X157484959Y-107634816D01*
X157378397Y-107687366D01*
X157366887Y-107692336D01*
X157248215Y-107736598D01*
X157244739Y-107737836D01*
X157134064Y-107775404D01*
X157120565Y-107779150D01*
X156991799Y-107807161D01*
X156989633Y-107807612D01*
X156880035Y-107829413D01*
X156864689Y-107831480D01*
X156706716Y-107842778D01*
X156705981Y-107842828D01*
X156625035Y-107848134D01*
X156616924Y-107848400D01*
X142902513Y-107848400D01*
X122559050Y-107847900D01*
X122550942Y-107847634D01*
X122548298Y-107847460D01*
X122471803Y-107842446D01*
X122471070Y-107842396D01*
X122306406Y-107830620D01*
X122291059Y-107828553D01*
X122183879Y-107807233D01*
X122181713Y-107806782D01*
X122050495Y-107778237D01*
X122036995Y-107774490D01*
X121927908Y-107737460D01*
X121924433Y-107736223D01*
X121804165Y-107691366D01*
X121792654Y-107686396D01*
X121687222Y-107634402D01*
X121682639Y-107632022D01*
X121572034Y-107571627D01*
X121562571Y-107565898D01*
X121510589Y-107531165D01*
X121463885Y-107499958D01*
X121458483Y-107496135D01*
X121380933Y-107438082D01*
X121358403Y-107421216D01*
X121350976Y-107415195D01*
X121261408Y-107336646D01*
X121255486Y-107331099D01*
X121167299Y-107242912D01*
X121161752Y-107236990D01*
X121083199Y-107147417D01*
X121077188Y-107140002D01*
X121002252Y-107039899D01*
X120998451Y-107034529D01*
X120932495Y-106935819D01*
X120926776Y-106926372D01*
X120866365Y-106815737D01*
X120864008Y-106811200D01*
X120811995Y-106705729D01*
X120807039Y-106694249D01*
X120763830Y-106578401D01*
X132109318Y-106578401D01*
X132129955Y-106735160D01*
X132129956Y-106735162D01*
X132180130Y-106856294D01*
X132190464Y-106881241D01*
X132286718Y-107006682D01*
X132412159Y-107102936D01*
X132558238Y-107163444D01*
X132636619Y-107173763D01*
X132714999Y-107184082D01*
X132715000Y-107184082D01*
X132715001Y-107184082D01*
X132767254Y-107177202D01*
X132871762Y-107163444D01*
X133017841Y-107102936D01*
X133143282Y-107006682D01*
X133184923Y-106952413D01*
X133241351Y-106911211D01*
X133283299Y-106903900D01*
X135235372Y-106903900D01*
X135246180Y-106904371D01*
X135283807Y-106907664D01*
X135320319Y-106897879D01*
X135330830Y-106895549D01*
X135368045Y-106888988D01*
X135368050Y-106888984D01*
X135373099Y-106887147D01*
X135389824Y-106880219D01*
X135394681Y-106877954D01*
X135394684Y-106877954D01*
X135425625Y-106856287D01*
X135434744Y-106850479D01*
X135467455Y-106831594D01*
X135467457Y-106831592D01*
X135491736Y-106802656D01*
X135499036Y-106794688D01*
X139163507Y-103130219D01*
X139224830Y-103096734D01*
X139251188Y-103093900D01*
X141036701Y-103093900D01*
X141103740Y-103113585D01*
X141135076Y-103142413D01*
X141176718Y-103196682D01*
X141230987Y-103238324D01*
X141272189Y-103294749D01*
X141279500Y-103336698D01*
X141279500Y-105161772D01*
X141279028Y-105172581D01*
X141275735Y-105210208D01*
X141285512Y-105246698D01*
X141287852Y-105257252D01*
X141294411Y-105294442D01*
X141296235Y-105299455D01*
X141303197Y-105316261D01*
X141305446Y-105321084D01*
X141327104Y-105352016D01*
X141332914Y-105361134D01*
X141351806Y-105393855D01*
X141380743Y-105418136D01*
X141388718Y-105425444D01*
X143011950Y-107048676D01*
X143019257Y-107056650D01*
X143043541Y-107085590D01*
X143043543Y-107085591D01*
X143043545Y-107085594D01*
X143043547Y-107085595D01*
X143043548Y-107085596D01*
X143076256Y-107104480D01*
X143085379Y-107110292D01*
X143116316Y-107131954D01*
X143116319Y-107131954D01*
X143121176Y-107134220D01*
X143137933Y-107141160D01*
X143142953Y-107142987D01*
X143142955Y-107142988D01*
X143180143Y-107149545D01*
X143190706Y-107151887D01*
X143227193Y-107161664D01*
X143264823Y-107158371D01*
X143275630Y-107157900D01*
X144973701Y-107157900D01*
X145040740Y-107177585D01*
X145072077Y-107206414D01*
X145100082Y-107242912D01*
X145113718Y-107260682D01*
X145239159Y-107356936D01*
X145385238Y-107417444D01*
X145422541Y-107422355D01*
X145541999Y-107438082D01*
X145542000Y-107438082D01*
X145542001Y-107438082D01*
X145594254Y-107431202D01*
X145698762Y-107417444D01*
X145844841Y-107356936D01*
X145970282Y-107260682D01*
X146066536Y-107135241D01*
X146127044Y-106989162D01*
X146147682Y-106832400D01*
X146145706Y-106817393D01*
X146131072Y-106706237D01*
X146127044Y-106675638D01*
X146066536Y-106529559D01*
X145970282Y-106404118D01*
X145844841Y-106307864D01*
X145766852Y-106275560D01*
X145698762Y-106247356D01*
X145698760Y-106247355D01*
X145542001Y-106226718D01*
X145541999Y-106226718D01*
X145385239Y-106247355D01*
X145385237Y-106247356D01*
X145239160Y-106307863D01*
X145113716Y-106404119D01*
X145072077Y-106458386D01*
X145015649Y-106499589D01*
X144973701Y-106506900D01*
X143442188Y-106506900D01*
X143375149Y-106487215D01*
X143354507Y-106470581D01*
X141966819Y-105082893D01*
X141933334Y-105021570D01*
X141930500Y-104995212D01*
X141930500Y-104648001D01*
X149886891Y-104648001D01*
X149907300Y-104933362D01*
X149968109Y-105212895D01*
X150068091Y-105480958D01*
X150205196Y-105732047D01*
X150221066Y-105753246D01*
X150221067Y-105753246D01*
X151151159Y-104823153D01*
X151158971Y-104867454D01*
X151229340Y-105030587D01*
X151335433Y-105173094D01*
X151471530Y-105287294D01*
X151630295Y-105367028D01*
X151717895Y-105387789D01*
X150786752Y-106318932D01*
X150807954Y-106334804D01*
X150807960Y-106334807D01*
X151059042Y-106471908D01*
X151059041Y-106471908D01*
X151327104Y-106571890D01*
X151606637Y-106632699D01*
X151891999Y-106653109D01*
X151892001Y-106653109D01*
X152177362Y-106632699D01*
X152456895Y-106571890D01*
X152724958Y-106471908D01*
X152976040Y-106334806D01*
X152997246Y-106318931D01*
X152070223Y-105391907D01*
X152235409Y-105331784D01*
X152383844Y-105234157D01*
X152505764Y-105104930D01*
X152594595Y-104951070D01*
X152632878Y-104823193D01*
X153562931Y-105753246D01*
X153578806Y-105732040D01*
X153715908Y-105480958D01*
X153815890Y-105212895D01*
X153876699Y-104933362D01*
X153897109Y-104648001D01*
X153897109Y-104647998D01*
X153876699Y-104362637D01*
X153815890Y-104083104D01*
X153715908Y-103815041D01*
X153578807Y-103563960D01*
X153578804Y-103563954D01*
X153562932Y-103542752D01*
X152632839Y-104472844D01*
X152625029Y-104428546D01*
X152554660Y-104265413D01*
X152448567Y-104122906D01*
X152312470Y-104008706D01*
X152153705Y-103928972D01*
X152066104Y-103908210D01*
X152997246Y-102977067D01*
X152997246Y-102977066D01*
X152976047Y-102961196D01*
X152724957Y-102824091D01*
X152724958Y-102824091D01*
X152456895Y-102724109D01*
X152177362Y-102663300D01*
X151892001Y-102642891D01*
X151891999Y-102642891D01*
X151606637Y-102663300D01*
X151327104Y-102724109D01*
X151059041Y-102824091D01*
X150807954Y-102961196D01*
X150786752Y-102977066D01*
X151713777Y-103904091D01*
X151548591Y-103964216D01*
X151400156Y-104061843D01*
X151278236Y-104191070D01*
X151189405Y-104344930D01*
X151151121Y-104472807D01*
X150221066Y-103542752D01*
X150205196Y-103563954D01*
X150068091Y-103815041D01*
X149968109Y-104083104D01*
X149907300Y-104362637D01*
X149886891Y-104647998D01*
X149886891Y-104648001D01*
X141930500Y-104648001D01*
X141930500Y-103336698D01*
X141950185Y-103269659D01*
X141979010Y-103238325D01*
X142033282Y-103196682D01*
X142129536Y-103071241D01*
X142190044Y-102925162D01*
X142210682Y-102768400D01*
X142190044Y-102611638D01*
X142129536Y-102465559D01*
X142033282Y-102340118D01*
X142033280Y-102340117D01*
X142033280Y-102340116D01*
X141948778Y-102275276D01*
X141907575Y-102218848D01*
X141903420Y-102149102D01*
X141937632Y-102088182D01*
X141999350Y-102055429D01*
X142024264Y-102052900D01*
X142128167Y-102052900D01*
X142195206Y-102072585D01*
X142215848Y-102089219D01*
X142882101Y-102755473D01*
X142915586Y-102816796D01*
X142917359Y-102859339D01*
X142904318Y-102958398D01*
X142904318Y-102958401D01*
X142924955Y-103115160D01*
X142924956Y-103115162D01*
X142985464Y-103261241D01*
X143081718Y-103386682D01*
X143207159Y-103482936D01*
X143353238Y-103543444D01*
X143431619Y-103553763D01*
X143509999Y-103564082D01*
X143510000Y-103564082D01*
X143510001Y-103564082D01*
X143562254Y-103557202D01*
X143666762Y-103543444D01*
X143812841Y-103482936D01*
X143938282Y-103386682D01*
X144034536Y-103261241D01*
X144095044Y-103115162D01*
X144108802Y-103010654D01*
X144115682Y-102958401D01*
X144115682Y-102958398D01*
X144098000Y-102824091D01*
X144095044Y-102801638D01*
X144034536Y-102655559D01*
X143938282Y-102530118D01*
X143812841Y-102433864D01*
X143666762Y-102373356D01*
X143666760Y-102373355D01*
X143510001Y-102352718D01*
X143509999Y-102352718D01*
X143410938Y-102365759D01*
X143341902Y-102354993D01*
X143307072Y-102330501D01*
X143241152Y-102264581D01*
X143207667Y-102203258D01*
X143212651Y-102133566D01*
X143254523Y-102077633D01*
X143319987Y-102053216D01*
X143328833Y-102052900D01*
X144138862Y-102052900D01*
X144155990Y-102054089D01*
X144163761Y-102055172D01*
X144163761Y-102055171D01*
X144163765Y-102055173D01*
X144210080Y-102053032D01*
X144215805Y-102052900D01*
X144233843Y-102052900D01*
X144233844Y-102052900D01*
X144233844Y-102052899D01*
X144238731Y-102052446D01*
X144249318Y-102051217D01*
X144275992Y-102049985D01*
X144282322Y-102047189D01*
X144309629Y-102038732D01*
X144316433Y-102037461D01*
X144316435Y-102037459D01*
X144316437Y-102037459D01*
X144339138Y-102023403D01*
X144354325Y-102015396D01*
X144378765Y-102004606D01*
X144383661Y-101999709D01*
X144406069Y-101981961D01*
X144411952Y-101978319D01*
X144428053Y-101956995D01*
X144439314Y-101944055D01*
X146815365Y-99568004D01*
X150186732Y-99568004D01*
X150205777Y-99822154D01*
X150262490Y-100070630D01*
X150262492Y-100070637D01*
X150355608Y-100307890D01*
X150370272Y-100333288D01*
X150483041Y-100528612D01*
X150641950Y-100727877D01*
X150828783Y-100901232D01*
X151039366Y-101044805D01*
X151039371Y-101044807D01*
X151039372Y-101044808D01*
X151039373Y-101044809D01*
X151142837Y-101094634D01*
X151268992Y-101155387D01*
X151268993Y-101155387D01*
X151268996Y-101155389D01*
X151512542Y-101230513D01*
X151764565Y-101268500D01*
X152019435Y-101268500D01*
X152271458Y-101230513D01*
X152515004Y-101155389D01*
X152744634Y-101044805D01*
X152955217Y-100901232D01*
X153142050Y-100727877D01*
X153300959Y-100528612D01*
X153428393Y-100307888D01*
X153521508Y-100070637D01*
X153578222Y-99822157D01*
X153593878Y-99613244D01*
X153597268Y-99568004D01*
X153597268Y-99567995D01*
X153580180Y-99339970D01*
X153578222Y-99313843D01*
X153521508Y-99065363D01*
X153428393Y-98828112D01*
X153300959Y-98607388D01*
X153142050Y-98408123D01*
X152955217Y-98234768D01*
X152744634Y-98091195D01*
X152744630Y-98091193D01*
X152744627Y-98091191D01*
X152744626Y-98091190D01*
X152515006Y-97980612D01*
X152515008Y-97980612D01*
X152271466Y-97905489D01*
X152271462Y-97905488D01*
X152271458Y-97905487D01*
X152150231Y-97887214D01*
X152019440Y-97867500D01*
X152019435Y-97867500D01*
X151764565Y-97867500D01*
X151764559Y-97867500D01*
X151607609Y-97891157D01*
X151512542Y-97905487D01*
X151512539Y-97905488D01*
X151512533Y-97905489D01*
X151268992Y-97980612D01*
X151039373Y-98091190D01*
X151039372Y-98091191D01*
X150828782Y-98234768D01*
X150641952Y-98408121D01*
X150641950Y-98408123D01*
X150483041Y-98607388D01*
X150355608Y-98828109D01*
X150262492Y-99065362D01*
X150262490Y-99065369D01*
X150205777Y-99313845D01*
X150186732Y-99567995D01*
X150186732Y-99568004D01*
X146815365Y-99568004D01*
X150292073Y-96091296D01*
X150353394Y-96057813D01*
X150395936Y-96056040D01*
X150495000Y-96069082D01*
X150495001Y-96069082D01*
X150547254Y-96062202D01*
X150651762Y-96048444D01*
X150797841Y-95987936D01*
X150923282Y-95891682D01*
X151019536Y-95766241D01*
X151080044Y-95620162D01*
X151100682Y-95463400D01*
X151080044Y-95306638D01*
X151019536Y-95160559D01*
X150923282Y-95035118D01*
X150923280Y-95035117D01*
X150923280Y-95035116D01*
X150844014Y-94974294D01*
X150802811Y-94917866D01*
X150795500Y-94875918D01*
X150795500Y-94150882D01*
X150815185Y-94083843D01*
X150844014Y-94052506D01*
X150923282Y-93991682D01*
X151019536Y-93866241D01*
X151080044Y-93720162D01*
X151100682Y-93563400D01*
X151080044Y-93406638D01*
X151019536Y-93260559D01*
X150923282Y-93135118D01*
X150797841Y-93038864D01*
X150651762Y-92978356D01*
X150651760Y-92978355D01*
X150495001Y-92957718D01*
X150494999Y-92957718D01*
X150338239Y-92978355D01*
X150338237Y-92978356D01*
X150192160Y-93038863D01*
X150066718Y-93135118D01*
X149970463Y-93260560D01*
X149909956Y-93406637D01*
X149909955Y-93406639D01*
X149889318Y-93563398D01*
X149889318Y-93563401D01*
X149909955Y-93720160D01*
X149909956Y-93720162D01*
X149970464Y-93866241D01*
X150064128Y-93988306D01*
X150066719Y-93991683D01*
X150145986Y-94052506D01*
X150187189Y-94108934D01*
X150194500Y-94150882D01*
X150194500Y-94875918D01*
X150174815Y-94942957D01*
X150145986Y-94974294D01*
X150066719Y-95035116D01*
X149970463Y-95160560D01*
X149909956Y-95306637D01*
X149909955Y-95306639D01*
X149889318Y-95463398D01*
X149889318Y-95463401D01*
X149902359Y-95562460D01*
X149891593Y-95631495D01*
X149867101Y-95666326D01*
X144117848Y-101415581D01*
X144056525Y-101449066D01*
X144030167Y-101451900D01*
X142353249Y-101451900D01*
X142324858Y-101448606D01*
X142318119Y-101447021D01*
X142291666Y-101450711D01*
X142274536Y-101451900D01*
X137983304Y-101451900D01*
X137916265Y-101432215D01*
X137870510Y-101379411D01*
X137860566Y-101310253D01*
X137889591Y-101246697D01*
X137924286Y-101218845D01*
X137957164Y-101201052D01*
X137957168Y-101201049D01*
X138147116Y-101053206D01*
X138147126Y-101053197D01*
X138310148Y-100876110D01*
X138310156Y-100876099D01*
X138441811Y-100674587D01*
X138483162Y-100580315D01*
X138528118Y-100526829D01*
X138594854Y-100506138D01*
X138662182Y-100524812D01*
X138707719Y-100574851D01*
X138715499Y-100590475D01*
X138715501Y-100590479D01*
X138844273Y-100761001D01*
X139002184Y-100904955D01*
X139002186Y-100904957D01*
X139183858Y-101017443D01*
X139183864Y-101017446D01*
X139226074Y-101033798D01*
X139383115Y-101094636D01*
X139593159Y-101133900D01*
X139593161Y-101133900D01*
X139806839Y-101133900D01*
X139806841Y-101133900D01*
X140016885Y-101094636D01*
X140216138Y-101017445D01*
X140397815Y-100904956D01*
X140555728Y-100760999D01*
X140684500Y-100590477D01*
X140779747Y-100399196D01*
X140838224Y-100193671D01*
X140853000Y-100034211D01*
X140853000Y-99832589D01*
X140838224Y-99673129D01*
X140779747Y-99467604D01*
X140779742Y-99467593D01*
X140684503Y-99276328D01*
X140684498Y-99276320D01*
X140555726Y-99105798D01*
X140397815Y-98961844D01*
X140397813Y-98961842D01*
X140216141Y-98849356D01*
X140216135Y-98849353D01*
X140059097Y-98788517D01*
X140016885Y-98772164D01*
X139806841Y-98732900D01*
X139593159Y-98732900D01*
X139383115Y-98772164D01*
X139383112Y-98772164D01*
X139383112Y-98772165D01*
X139183864Y-98849353D01*
X139183858Y-98849356D01*
X139002186Y-98961842D01*
X139002184Y-98961844D01*
X138844273Y-99105798D01*
X138715501Y-99276320D01*
X138715498Y-99276325D01*
X138707718Y-99291950D01*
X138660213Y-99343185D01*
X138592550Y-99360605D01*
X138526210Y-99338677D01*
X138483163Y-99286484D01*
X138441814Y-99192217D01*
X138310156Y-98990700D01*
X138310148Y-98990689D01*
X138147126Y-98813602D01*
X138147116Y-98813593D01*
X137957168Y-98665750D01*
X137957159Y-98665744D01*
X137745468Y-98551184D01*
X137745457Y-98551179D01*
X137560000Y-98487509D01*
X137560000Y-99555897D01*
X137510362Y-99502748D01*
X137381181Y-99424191D01*
X137235596Y-99383400D01*
X137122378Y-99383400D01*
X137010217Y-99398816D01*
X136871542Y-99459051D01*
X136760000Y-99549796D01*
X136760000Y-98487510D01*
X136759999Y-98487509D01*
X136574542Y-98551179D01*
X136574531Y-98551184D01*
X136362840Y-98665744D01*
X136362831Y-98665750D01*
X136172883Y-98813593D01*
X136172873Y-98813602D01*
X136009851Y-98990689D01*
X136009843Y-98990700D01*
X135878187Y-99192213D01*
X135836836Y-99286485D01*
X135791880Y-99339970D01*
X135725143Y-99360660D01*
X135657816Y-99341985D01*
X135612280Y-99291947D01*
X135604502Y-99276328D01*
X135604500Y-99276323D01*
X135475728Y-99105801D01*
X135475726Y-99105798D01*
X135317815Y-98961844D01*
X135317813Y-98961842D01*
X135136141Y-98849356D01*
X135136135Y-98849353D01*
X134979097Y-98788517D01*
X134936885Y-98772164D01*
X134726841Y-98732900D01*
X134513159Y-98732900D01*
X134303115Y-98772164D01*
X134303112Y-98772164D01*
X134303112Y-98772165D01*
X134103864Y-98849353D01*
X134103858Y-98849356D01*
X133922186Y-98961842D01*
X133922184Y-98961844D01*
X133764273Y-99105798D01*
X133635501Y-99276320D01*
X133635496Y-99276328D01*
X133540257Y-99467593D01*
X133540251Y-99467608D01*
X133481776Y-99673127D01*
X133481775Y-99673129D01*
X133467000Y-99832591D01*
X133467000Y-100034208D01*
X133481775Y-100193670D01*
X133481776Y-100193672D01*
X133540251Y-100399191D01*
X133540257Y-100399206D01*
X133635496Y-100590471D01*
X133635501Y-100590479D01*
X133764273Y-100761001D01*
X133922184Y-100904955D01*
X133922186Y-100904957D01*
X134103858Y-101017443D01*
X134103864Y-101017446D01*
X134146074Y-101033798D01*
X134303115Y-101094636D01*
X134513159Y-101133900D01*
X134513161Y-101133900D01*
X134726839Y-101133900D01*
X134726841Y-101133900D01*
X134936885Y-101094636D01*
X135136138Y-101017445D01*
X135317815Y-100904956D01*
X135475728Y-100760999D01*
X135604500Y-100590477D01*
X135612279Y-100574855D01*
X135659782Y-100523617D01*
X135727444Y-100506195D01*
X135793785Y-100528120D01*
X135836836Y-100580315D01*
X135878186Y-100674584D01*
X136009843Y-100876099D01*
X136009851Y-100876110D01*
X136172873Y-101053197D01*
X136172883Y-101053206D01*
X136362831Y-101201049D01*
X136362835Y-101201052D01*
X136395714Y-101218845D01*
X136445304Y-101268065D01*
X136460412Y-101336281D01*
X136436242Y-101401837D01*
X136380466Y-101443918D01*
X136336696Y-101451900D01*
X133798139Y-101451900D01*
X133781011Y-101450711D01*
X133773239Y-101449627D01*
X133773236Y-101449627D01*
X133732973Y-101451488D01*
X133726921Y-101451768D01*
X133721196Y-101451900D01*
X133703156Y-101451900D01*
X133703151Y-101451900D01*
X133698326Y-101452348D01*
X133687697Y-101453581D01*
X133661008Y-101454815D01*
X133654663Y-101457615D01*
X133627380Y-101466065D01*
X133620568Y-101467338D01*
X133620567Y-101467339D01*
X133597857Y-101481399D01*
X133582678Y-101489400D01*
X133558235Y-101500193D01*
X133553336Y-101505093D01*
X133530942Y-101522831D01*
X133525048Y-101526480D01*
X133508949Y-101547798D01*
X133497679Y-101560748D01*
X132917926Y-102140501D01*
X132856603Y-102173986D01*
X132814060Y-102175759D01*
X132715001Y-102162718D01*
X132714999Y-102162718D01*
X132558239Y-102183355D01*
X132558237Y-102183356D01*
X132412160Y-102243863D01*
X132286718Y-102340118D01*
X132190463Y-102465560D01*
X132129956Y-102611637D01*
X132129955Y-102611639D01*
X132109318Y-102768398D01*
X132109318Y-102768401D01*
X132129955Y-102925160D01*
X132129956Y-102925162D01*
X132190464Y-103071241D01*
X132286718Y-103196682D01*
X132412159Y-103292936D01*
X132558238Y-103353444D01*
X132636619Y-103363763D01*
X132714999Y-103374082D01*
X132715000Y-103374082D01*
X132715001Y-103374082D01*
X132767254Y-103367202D01*
X132871762Y-103353444D01*
X133017841Y-103292936D01*
X133143282Y-103196682D01*
X133239536Y-103071241D01*
X133300044Y-102925162D01*
X133320682Y-102768400D01*
X133307640Y-102669336D01*
X133318405Y-102600302D01*
X133342895Y-102565474D01*
X133819152Y-102089219D01*
X133880475Y-102055734D01*
X133906833Y-102052900D01*
X141185736Y-102052900D01*
X141252775Y-102072585D01*
X141298530Y-102125389D01*
X141308474Y-102194547D01*
X141279449Y-102258103D01*
X141261222Y-102275275D01*
X141176718Y-102340118D01*
X141151215Y-102373355D01*
X141135077Y-102394386D01*
X141078649Y-102435589D01*
X141036701Y-102442900D01*
X139084628Y-102442900D01*
X139073819Y-102442428D01*
X139036192Y-102439135D01*
X139036191Y-102439135D01*
X138999703Y-102448912D01*
X138989148Y-102451252D01*
X138951960Y-102457810D01*
X138946961Y-102459629D01*
X138930117Y-102466606D01*
X138925313Y-102468846D01*
X138894381Y-102490505D01*
X138885264Y-102496314D01*
X138852548Y-102515204D01*
X138852540Y-102515210D01*
X138828262Y-102544143D01*
X138820956Y-102552116D01*
X135156493Y-106216581D01*
X135095170Y-106250066D01*
X135068812Y-106252900D01*
X133283299Y-106252900D01*
X133216260Y-106233215D01*
X133184923Y-106204386D01*
X133143283Y-106150119D01*
X133054992Y-106082371D01*
X133017841Y-106053864D01*
X132952377Y-106026748D01*
X132871762Y-105993356D01*
X132871760Y-105993355D01*
X132715001Y-105972718D01*
X132714999Y-105972718D01*
X132558239Y-105993355D01*
X132558237Y-105993356D01*
X132412160Y-106053863D01*
X132286718Y-106150118D01*
X132190463Y-106275560D01*
X132129956Y-106421637D01*
X132129955Y-106421639D01*
X132109318Y-106578398D01*
X132109318Y-106578401D01*
X120763830Y-106578401D01*
X120762166Y-106573940D01*
X120760938Y-106570490D01*
X120756714Y-106558046D01*
X120723907Y-106461400D01*
X120720164Y-106447915D01*
X120691596Y-106316589D01*
X120691189Y-106314637D01*
X120669841Y-106207312D01*
X120667781Y-106192015D01*
X120655988Y-106027129D01*
X120655983Y-106027056D01*
X120650765Y-105947442D01*
X120650500Y-105939334D01*
X120650500Y-99593404D01*
X125294732Y-99593404D01*
X125313777Y-99847554D01*
X125364694Y-100070637D01*
X125370492Y-100096037D01*
X125463607Y-100333288D01*
X125591041Y-100554012D01*
X125749950Y-100753277D01*
X125936783Y-100926632D01*
X126147366Y-101070205D01*
X126147371Y-101070207D01*
X126147372Y-101070208D01*
X126147373Y-101070209D01*
X126198093Y-101094634D01*
X126376992Y-101180787D01*
X126376993Y-101180787D01*
X126376996Y-101180789D01*
X126620542Y-101255913D01*
X126872565Y-101293900D01*
X127127435Y-101293900D01*
X127379458Y-101255913D01*
X127623004Y-101180789D01*
X127852634Y-101070205D01*
X128063217Y-100926632D01*
X128250050Y-100753277D01*
X128408959Y-100554012D01*
X128536393Y-100333288D01*
X128629508Y-100096037D01*
X128686222Y-99847557D01*
X128694384Y-99738632D01*
X128705268Y-99593404D01*
X128705268Y-99593395D01*
X128686222Y-99339245D01*
X128686092Y-99338677D01*
X128629508Y-99090763D01*
X128536393Y-98853512D01*
X128408959Y-98632788D01*
X128250050Y-98433523D01*
X128063217Y-98260168D01*
X127852634Y-98116595D01*
X127852630Y-98116593D01*
X127852627Y-98116591D01*
X127852626Y-98116590D01*
X127623006Y-98006012D01*
X127623008Y-98006012D01*
X127379466Y-97930889D01*
X127379462Y-97930888D01*
X127379458Y-97930887D01*
X127258231Y-97912614D01*
X127127440Y-97892900D01*
X127127435Y-97892900D01*
X126872565Y-97892900D01*
X126872559Y-97892900D01*
X126715609Y-97916557D01*
X126620542Y-97930887D01*
X126620539Y-97930888D01*
X126620533Y-97930889D01*
X126376992Y-98006012D01*
X126147373Y-98116590D01*
X126147372Y-98116591D01*
X125936782Y-98260168D01*
X125749952Y-98433521D01*
X125749950Y-98433523D01*
X125591041Y-98632788D01*
X125463608Y-98853509D01*
X125370492Y-99090762D01*
X125370490Y-99090769D01*
X125313777Y-99339245D01*
X125294732Y-99593395D01*
X125294732Y-99593404D01*
X120650500Y-99593404D01*
X120650500Y-94513401D01*
X124994891Y-94513401D01*
X125015300Y-94798762D01*
X125076109Y-95078295D01*
X125176091Y-95346358D01*
X125313196Y-95597447D01*
X125329066Y-95618646D01*
X125329067Y-95618646D01*
X126259159Y-94688553D01*
X126266971Y-94732854D01*
X126337340Y-94895987D01*
X126443433Y-95038494D01*
X126579530Y-95152694D01*
X126738295Y-95232428D01*
X126825895Y-95253189D01*
X125894752Y-96184332D01*
X125915954Y-96200204D01*
X125915960Y-96200207D01*
X126167042Y-96337308D01*
X126167041Y-96337308D01*
X126435104Y-96437290D01*
X126714637Y-96498099D01*
X126999999Y-96518509D01*
X127000001Y-96518509D01*
X127285362Y-96498099D01*
X127564895Y-96437290D01*
X127832958Y-96337308D01*
X128084040Y-96200206D01*
X128105246Y-96184331D01*
X127178223Y-95257307D01*
X127343409Y-95197184D01*
X127491844Y-95099557D01*
X127613764Y-94970330D01*
X127702595Y-94816470D01*
X127740878Y-94688593D01*
X128670931Y-95618646D01*
X128686806Y-95597440D01*
X128823908Y-95346358D01*
X128923890Y-95078295D01*
X128984699Y-94798762D01*
X129005109Y-94513401D01*
X129005109Y-94513398D01*
X128984699Y-94228037D01*
X128923890Y-93948504D01*
X128823908Y-93680441D01*
X128686807Y-93429360D01*
X128686804Y-93429354D01*
X128670932Y-93408152D01*
X127740839Y-94338244D01*
X127733029Y-94293946D01*
X127662660Y-94130813D01*
X127556567Y-93988306D01*
X127420470Y-93874106D01*
X127261705Y-93794372D01*
X127174104Y-93773610D01*
X128105246Y-92842467D01*
X128105246Y-92842466D01*
X128084047Y-92826596D01*
X127832957Y-92689491D01*
X127832958Y-92689491D01*
X127564895Y-92589509D01*
X127285362Y-92528700D01*
X127000001Y-92508291D01*
X126999999Y-92508291D01*
X126714637Y-92528700D01*
X126435104Y-92589509D01*
X126167041Y-92689491D01*
X125915954Y-92826596D01*
X125894752Y-92842466D01*
X126821777Y-93769491D01*
X126656591Y-93829616D01*
X126508156Y-93927243D01*
X126386236Y-94056470D01*
X126297405Y-94210330D01*
X126259121Y-94338207D01*
X125329066Y-93408152D01*
X125313196Y-93429354D01*
X125176091Y-93680441D01*
X125076109Y-93948504D01*
X125015300Y-94228037D01*
X124994891Y-94513398D01*
X124994891Y-94513401D01*
X120650500Y-94513401D01*
X120650500Y-90722400D01*
X152384557Y-90722400D01*
X152401565Y-90785881D01*
X152401570Y-90785892D01*
X152501399Y-90999978D01*
X152636894Y-91193482D01*
X152803917Y-91360505D01*
X152997421Y-91496000D01*
X153211507Y-91595829D01*
X153211518Y-91595834D01*
X153274999Y-91612843D01*
X153275000Y-91612842D01*
X153275000Y-90722400D01*
X152384557Y-90722400D01*
X120650500Y-90722400D01*
X120650500Y-90394289D01*
X153175000Y-90394289D01*
X153215507Y-90532244D01*
X153293239Y-90653198D01*
X153401900Y-90747352D01*
X153532685Y-90807080D01*
X153639237Y-90822400D01*
X153710763Y-90822400D01*
X153817315Y-90807080D01*
X153948100Y-90747352D01*
X154056761Y-90653198D01*
X154075000Y-90624817D01*
X154075000Y-91612843D01*
X154138481Y-91595834D01*
X154138492Y-91595829D01*
X154352578Y-91496000D01*
X154546082Y-91360505D01*
X154713105Y-91193482D01*
X154848600Y-90999978D01*
X154948429Y-90785892D01*
X154948433Y-90785883D01*
X154981158Y-90663750D01*
X155017522Y-90604090D01*
X155080369Y-90573560D01*
X155149745Y-90581854D01*
X155203623Y-90626339D01*
X155219593Y-90659847D01*
X155239768Y-90726354D01*
X155337315Y-90908850D01*
X155337317Y-90908852D01*
X155468589Y-91068810D01*
X155565209Y-91148102D01*
X155628550Y-91200085D01*
X155811046Y-91297632D01*
X156009066Y-91357700D01*
X156009065Y-91357700D01*
X156027529Y-91359518D01*
X156215000Y-91377983D01*
X156420934Y-91357700D01*
X156618954Y-91297632D01*
X156801450Y-91200085D01*
X156961410Y-91068810D01*
X157092685Y-90908850D01*
X157190232Y-90726354D01*
X157250300Y-90528334D01*
X157270583Y-90322400D01*
X157250300Y-90116466D01*
X157190232Y-89918446D01*
X157092685Y-89735950D01*
X157014110Y-89640205D01*
X156961410Y-89575989D01*
X156843677Y-89479369D01*
X156801450Y-89444715D01*
X156618954Y-89347168D01*
X156420934Y-89287100D01*
X156420932Y-89287099D01*
X156420934Y-89287099D01*
X156215000Y-89266817D01*
X156009067Y-89287099D01*
X155811043Y-89347169D01*
X155700898Y-89406043D01*
X155628550Y-89444715D01*
X155628548Y-89444716D01*
X155628547Y-89444717D01*
X155468589Y-89575989D01*
X155337317Y-89735947D01*
X155337315Y-89735950D01*
X155309622Y-89787758D01*
X155239767Y-89918446D01*
X155219593Y-89984952D01*
X155181296Y-90043390D01*
X155117483Y-90071847D01*
X155048416Y-90061286D01*
X154996023Y-90015061D01*
X154981158Y-89981049D01*
X154948433Y-89858916D01*
X154948429Y-89858907D01*
X154848600Y-89644822D01*
X154848599Y-89644820D01*
X154713113Y-89451326D01*
X154713108Y-89451320D01*
X154546082Y-89284294D01*
X154352578Y-89148799D01*
X154138490Y-89048968D01*
X154138487Y-89048967D01*
X154075000Y-89031955D01*
X154075000Y-90019982D01*
X154056761Y-89991602D01*
X153948100Y-89897448D01*
X153817315Y-89837720D01*
X153710763Y-89822400D01*
X153639237Y-89822400D01*
X153532685Y-89837720D01*
X153401900Y-89897448D01*
X153293239Y-89991602D01*
X153215507Y-90112556D01*
X153175000Y-90250511D01*
X153175000Y-90394289D01*
X120650500Y-90394289D01*
X120650500Y-89922399D01*
X152384556Y-89922399D01*
X152384557Y-89922400D01*
X153275000Y-89922400D01*
X153275000Y-89031956D01*
X153274999Y-89031955D01*
X153211512Y-89048967D01*
X153211509Y-89048968D01*
X152997422Y-89148799D01*
X152997420Y-89148800D01*
X152803926Y-89284286D01*
X152803920Y-89284291D01*
X152636891Y-89451320D01*
X152636886Y-89451326D01*
X152501400Y-89644820D01*
X152501399Y-89644822D01*
X152401570Y-89858907D01*
X152401565Y-89858918D01*
X152384556Y-89922399D01*
X120650500Y-89922399D01*
X120650500Y-88163404D01*
X125294732Y-88163404D01*
X125313777Y-88417554D01*
X125313778Y-88417557D01*
X125370492Y-88666037D01*
X125463607Y-88903288D01*
X125591041Y-89124012D01*
X125749950Y-89323277D01*
X125936783Y-89496632D01*
X126147366Y-89640205D01*
X126147371Y-89640207D01*
X126147372Y-89640208D01*
X126147373Y-89640209D01*
X126269328Y-89698938D01*
X126376992Y-89750787D01*
X126376993Y-89750787D01*
X126376996Y-89750789D01*
X126620542Y-89825913D01*
X126872565Y-89863900D01*
X127127435Y-89863900D01*
X127379458Y-89825913D01*
X127623004Y-89750789D01*
X127852634Y-89640205D01*
X128063217Y-89496632D01*
X128250050Y-89323277D01*
X128408959Y-89124012D01*
X128536393Y-88903288D01*
X128629508Y-88666037D01*
X128686222Y-88417557D01*
X128705268Y-88163400D01*
X128686222Y-87909243D01*
X128629508Y-87660763D01*
X128536393Y-87423512D01*
X128408959Y-87202788D01*
X128250050Y-87003523D01*
X128063217Y-86830168D01*
X127852634Y-86686595D01*
X127852630Y-86686593D01*
X127852627Y-86686591D01*
X127852626Y-86686590D01*
X127623006Y-86576012D01*
X127623008Y-86576012D01*
X127379466Y-86500889D01*
X127379462Y-86500888D01*
X127379458Y-86500887D01*
X127258231Y-86482614D01*
X127127440Y-86462900D01*
X127127435Y-86462900D01*
X126872565Y-86462900D01*
X126872559Y-86462900D01*
X126715609Y-86486557D01*
X126620542Y-86500887D01*
X126620539Y-86500888D01*
X126620533Y-86500889D01*
X126376992Y-86576012D01*
X126147373Y-86686590D01*
X126147372Y-86686591D01*
X125936782Y-86830168D01*
X125749952Y-87003521D01*
X125749950Y-87003523D01*
X125591041Y-87202788D01*
X125463608Y-87423509D01*
X125370492Y-87660762D01*
X125370490Y-87660769D01*
X125313777Y-87909245D01*
X125294732Y-88163395D01*
X125294732Y-88163404D01*
X120650500Y-88163404D01*
X120650500Y-83083401D01*
X124994891Y-83083401D01*
X125015300Y-83368762D01*
X125076109Y-83648295D01*
X125176091Y-83916358D01*
X125313196Y-84167447D01*
X125329066Y-84188646D01*
X125329067Y-84188646D01*
X126259159Y-83258553D01*
X126266971Y-83302854D01*
X126337340Y-83465987D01*
X126443433Y-83608494D01*
X126579530Y-83722694D01*
X126738295Y-83802428D01*
X126825895Y-83823189D01*
X125894752Y-84754332D01*
X125915954Y-84770204D01*
X125915960Y-84770207D01*
X126167042Y-84907308D01*
X126167041Y-84907308D01*
X126435104Y-85007290D01*
X126714637Y-85068099D01*
X126999999Y-85088509D01*
X127000001Y-85088509D01*
X127285362Y-85068099D01*
X127564895Y-85007290D01*
X127832958Y-84907308D01*
X128084040Y-84770206D01*
X128105246Y-84754331D01*
X127178223Y-83827307D01*
X127343409Y-83767184D01*
X127491844Y-83669557D01*
X127613764Y-83540330D01*
X127702595Y-83386470D01*
X127740878Y-83258593D01*
X128670931Y-84188646D01*
X128686806Y-84167440D01*
X128823908Y-83916358D01*
X128923890Y-83648295D01*
X128984699Y-83368762D01*
X128991520Y-83273401D01*
X135154390Y-83273401D01*
X135174804Y-83558833D01*
X135235628Y-83838437D01*
X135235630Y-83838443D01*
X135235631Y-83838446D01*
X135335633Y-84106561D01*
X135335635Y-84106566D01*
X135472770Y-84357709D01*
X135472775Y-84357717D01*
X135644254Y-84586787D01*
X135644270Y-84586805D01*
X135846594Y-84789129D01*
X135846612Y-84789145D01*
X136075682Y-84960624D01*
X136075690Y-84960629D01*
X136326833Y-85097764D01*
X136326832Y-85097764D01*
X136326836Y-85097765D01*
X136326839Y-85097767D01*
X136594954Y-85197769D01*
X136594960Y-85197770D01*
X136594962Y-85197771D01*
X136874566Y-85258595D01*
X136874568Y-85258595D01*
X136874572Y-85258596D01*
X137088552Y-85273900D01*
X137231448Y-85273900D01*
X137445428Y-85258596D01*
X137725046Y-85197769D01*
X137993161Y-85097767D01*
X138244315Y-84960626D01*
X138473395Y-84789139D01*
X138675739Y-84586795D01*
X138847226Y-84357715D01*
X138984367Y-84106561D01*
X139084369Y-83838446D01*
X139084371Y-83838437D01*
X139145195Y-83558833D01*
X139145195Y-83558832D01*
X139145196Y-83558828D01*
X139165610Y-83273400D01*
X139145196Y-82987972D01*
X139137675Y-82953400D01*
X139115922Y-82853400D01*
X154919557Y-82853400D01*
X154936565Y-82916881D01*
X154936570Y-82916892D01*
X155036399Y-83130978D01*
X155171894Y-83324482D01*
X155338917Y-83491505D01*
X155532421Y-83627000D01*
X155746507Y-83726829D01*
X155746516Y-83726833D01*
X155868649Y-83759558D01*
X155928310Y-83795923D01*
X155958839Y-83858769D01*
X155950545Y-83928145D01*
X155906059Y-83982023D01*
X155872552Y-83997993D01*
X155806046Y-84018167D01*
X155675358Y-84088022D01*
X155623550Y-84115715D01*
X155623548Y-84115716D01*
X155623547Y-84115717D01*
X155463589Y-84246989D01*
X155332317Y-84406947D01*
X155234769Y-84589443D01*
X155174699Y-84787467D01*
X155154417Y-84993400D01*
X155174699Y-85199332D01*
X155174700Y-85199334D01*
X155234768Y-85397354D01*
X155332315Y-85579850D01*
X155332317Y-85579852D01*
X155463589Y-85739810D01*
X155560209Y-85819102D01*
X155623550Y-85871085D01*
X155806046Y-85968632D01*
X156004066Y-86028700D01*
X156004065Y-86028700D01*
X156022529Y-86030518D01*
X156210000Y-86048983D01*
X156415934Y-86028700D01*
X156613954Y-85968632D01*
X156796450Y-85871085D01*
X156956410Y-85739810D01*
X157087685Y-85579850D01*
X157185232Y-85397354D01*
X157245300Y-85199334D01*
X157265583Y-84993400D01*
X157245300Y-84787466D01*
X157185232Y-84589446D01*
X157087685Y-84406950D01*
X157035702Y-84343609D01*
X156956410Y-84246989D01*
X156796452Y-84115717D01*
X156796453Y-84115717D01*
X156796450Y-84115715D01*
X156613954Y-84018168D01*
X156547447Y-83997993D01*
X156489009Y-83959696D01*
X156460553Y-83895884D01*
X156471113Y-83826817D01*
X156517337Y-83774423D01*
X156551350Y-83759558D01*
X156673483Y-83726833D01*
X156673492Y-83726829D01*
X156887578Y-83627000D01*
X157081082Y-83491505D01*
X157248105Y-83324482D01*
X157383600Y-83130978D01*
X157483429Y-82916892D01*
X157483434Y-82916881D01*
X157500443Y-82853400D01*
X156511897Y-82853400D01*
X156591761Y-82784198D01*
X156669493Y-82663244D01*
X156710000Y-82525289D01*
X156710000Y-82381511D01*
X156669493Y-82243556D01*
X156591761Y-82122602D01*
X156483100Y-82028448D01*
X156352315Y-81968720D01*
X156245763Y-81953400D01*
X156174237Y-81953400D01*
X156067685Y-81968720D01*
X155936900Y-82028448D01*
X155828239Y-82122602D01*
X155750507Y-82243556D01*
X155710000Y-82381511D01*
X155710000Y-82525289D01*
X155750507Y-82663244D01*
X155828239Y-82784198D01*
X155908103Y-82853400D01*
X154919557Y-82853400D01*
X139115922Y-82853400D01*
X139084371Y-82708362D01*
X139084370Y-82708360D01*
X139084369Y-82708354D01*
X138984367Y-82440239D01*
X138942940Y-82364372D01*
X138847229Y-82189090D01*
X138847224Y-82189082D01*
X138745653Y-82053399D01*
X154919556Y-82053399D01*
X154919557Y-82053400D01*
X155810000Y-82053400D01*
X155810000Y-81162956D01*
X155809999Y-81162955D01*
X156610000Y-81162955D01*
X156610000Y-82053400D01*
X157500443Y-82053400D01*
X157500443Y-82053399D01*
X157483434Y-81989918D01*
X157483429Y-81989907D01*
X157383600Y-81775822D01*
X157383599Y-81775820D01*
X157248113Y-81582326D01*
X157248108Y-81582320D01*
X157081082Y-81415294D01*
X156887578Y-81279799D01*
X156673490Y-81179968D01*
X156673487Y-81179967D01*
X156610000Y-81162955D01*
X155809999Y-81162955D01*
X155746512Y-81179967D01*
X155746509Y-81179968D01*
X155532422Y-81279799D01*
X155532420Y-81279800D01*
X155338926Y-81415286D01*
X155338920Y-81415291D01*
X155171891Y-81582320D01*
X155171886Y-81582326D01*
X155036400Y-81775820D01*
X155036399Y-81775822D01*
X154936570Y-81989907D01*
X154936565Y-81989918D01*
X154919556Y-82053399D01*
X138745653Y-82053399D01*
X138675745Y-81960012D01*
X138675729Y-81959994D01*
X138473405Y-81757670D01*
X138473387Y-81757654D01*
X138244317Y-81586175D01*
X138244309Y-81586170D01*
X137993166Y-81449035D01*
X137993167Y-81449035D01*
X137852572Y-81396596D01*
X137725046Y-81349031D01*
X137725043Y-81349030D01*
X137725037Y-81349028D01*
X137445433Y-81288204D01*
X137231450Y-81272900D01*
X137231448Y-81272900D01*
X137088552Y-81272900D01*
X137088549Y-81272900D01*
X136874566Y-81288204D01*
X136594962Y-81349028D01*
X136326833Y-81449035D01*
X136075690Y-81586170D01*
X136075682Y-81586175D01*
X135846612Y-81757654D01*
X135846594Y-81757670D01*
X135644270Y-81959994D01*
X135644254Y-81960012D01*
X135472775Y-82189082D01*
X135472770Y-82189090D01*
X135335635Y-82440233D01*
X135235628Y-82708362D01*
X135174804Y-82987966D01*
X135154390Y-83273398D01*
X135154390Y-83273401D01*
X128991520Y-83273401D01*
X129005109Y-83083401D01*
X129005109Y-83083398D01*
X128984699Y-82798037D01*
X128923890Y-82518504D01*
X128823908Y-82250441D01*
X128686807Y-81999360D01*
X128686804Y-81999354D01*
X128670932Y-81978152D01*
X127740839Y-82908244D01*
X127733029Y-82863946D01*
X127662660Y-82700813D01*
X127556567Y-82558306D01*
X127420470Y-82444106D01*
X127261705Y-82364372D01*
X127174104Y-82343610D01*
X128105246Y-81412467D01*
X128105246Y-81412466D01*
X128084047Y-81396596D01*
X127832957Y-81259491D01*
X127832958Y-81259491D01*
X127564895Y-81159509D01*
X127285362Y-81098700D01*
X127000001Y-81078291D01*
X126999999Y-81078291D01*
X126714637Y-81098700D01*
X126435104Y-81159509D01*
X126167041Y-81259491D01*
X125915954Y-81396596D01*
X125894752Y-81412466D01*
X126821777Y-82339491D01*
X126656591Y-82399616D01*
X126508156Y-82497243D01*
X126386236Y-82626470D01*
X126297405Y-82780330D01*
X126259121Y-82908207D01*
X125329066Y-81978152D01*
X125313196Y-81999354D01*
X125176091Y-82250441D01*
X125076109Y-82518504D01*
X125015300Y-82798037D01*
X124994891Y-83083398D01*
X124994891Y-83083401D01*
X120650500Y-83083401D01*
X120650500Y-81817465D01*
X120650765Y-81809357D01*
X120650828Y-81808389D01*
X120655984Y-81729730D01*
X120667781Y-81564780D01*
X120669840Y-81549491D01*
X120691199Y-81442113D01*
X120691586Y-81440255D01*
X120720166Y-81308875D01*
X120723904Y-81295408D01*
X120760954Y-81186260D01*
X120762150Y-81182901D01*
X120807044Y-81062535D01*
X120811988Y-81051084D01*
X120864028Y-80945558D01*
X120866343Y-80941100D01*
X120926787Y-80830406D01*
X120932482Y-80820999D01*
X120998475Y-80722234D01*
X121002226Y-80716934D01*
X121077207Y-80616771D01*
X121083177Y-80609407D01*
X121161782Y-80519775D01*
X121167269Y-80513917D01*
X121255517Y-80425669D01*
X121261375Y-80420182D01*
X121351007Y-80341577D01*
X121358371Y-80335607D01*
X121458534Y-80260626D01*
X121463834Y-80256875D01*
X121562599Y-80190882D01*
X121572006Y-80185187D01*
X121682700Y-80124743D01*
X121687158Y-80122428D01*
X121792684Y-80070388D01*
X121804135Y-80065444D01*
X121924501Y-80020550D01*
X121927860Y-80019354D01*
X122037008Y-79982304D01*
X122050475Y-79978566D01*
X122181855Y-79949986D01*
X122183713Y-79949599D01*
X122291091Y-79928240D01*
X122306377Y-79926181D01*
X122471336Y-79914383D01*
X122550956Y-79909165D01*
X122559063Y-79908900D01*
X156564540Y-79909735D01*
G37*
%TD.AperFunction*%
%TD*%
M02*
