%TF.GenerationSoftware,KiCad,Pcbnew,7.0.10*%
%TF.CreationDate,2024-07-15T19:27:34-03:00*%
%TF.ProjectId,board,626f6172-642e-46b6-9963-61645f706362,rev?*%
%TF.SameCoordinates,Original*%
%TF.FileFunction,Legend,Top*%
%TF.FilePolarity,Positive*%
%FSLAX46Y46*%
G04 Gerber Fmt 4.6, Leading zero omitted, Abs format (unit mm)*
G04 Created by KiCad (PCBNEW 7.0.10) date 2024-07-15 19:27:34*
%MOMM*%
%LPD*%
G01*
G04 APERTURE LIST*
%ADD10C,0.060000*%
%ADD11C,0.150000*%
%ADD12C,0.080000*%
%ADD13C,0.250000*%
%ADD14C,0.040000*%
%ADD15C,0.125000*%
%ADD16C,0.120000*%
%ADD17C,0.127000*%
%ADD18C,0.200000*%
G04 APERTURE END LIST*
D10*
X126704762Y-103585327D02*
X126704762Y-103185327D01*
X126704762Y-103185327D02*
X126800000Y-103185327D01*
X126800000Y-103185327D02*
X126857143Y-103204375D01*
X126857143Y-103204375D02*
X126895238Y-103242470D01*
X126895238Y-103242470D02*
X126914285Y-103280565D01*
X126914285Y-103280565D02*
X126933333Y-103356756D01*
X126933333Y-103356756D02*
X126933333Y-103413899D01*
X126933333Y-103413899D02*
X126914285Y-103490089D01*
X126914285Y-103490089D02*
X126895238Y-103528184D01*
X126895238Y-103528184D02*
X126857143Y-103566280D01*
X126857143Y-103566280D02*
X126800000Y-103585327D01*
X126800000Y-103585327D02*
X126704762Y-103585327D01*
X127314285Y-103585327D02*
X127085714Y-103585327D01*
X127200000Y-103585327D02*
X127200000Y-103185327D01*
X127200000Y-103185327D02*
X127161904Y-103242470D01*
X127161904Y-103242470D02*
X127123809Y-103280565D01*
X127123809Y-103280565D02*
X127085714Y-103299613D01*
X130108333Y-106125327D02*
X129975000Y-105934851D01*
X129879762Y-106125327D02*
X129879762Y-105725327D01*
X129879762Y-105725327D02*
X130032143Y-105725327D01*
X130032143Y-105725327D02*
X130070238Y-105744375D01*
X130070238Y-105744375D02*
X130089285Y-105763422D01*
X130089285Y-105763422D02*
X130108333Y-105801518D01*
X130108333Y-105801518D02*
X130108333Y-105858660D01*
X130108333Y-105858660D02*
X130089285Y-105896756D01*
X130089285Y-105896756D02*
X130070238Y-105915803D01*
X130070238Y-105915803D02*
X130032143Y-105934851D01*
X130032143Y-105934851D02*
X129879762Y-105934851D01*
X130260714Y-105763422D02*
X130279762Y-105744375D01*
X130279762Y-105744375D02*
X130317857Y-105725327D01*
X130317857Y-105725327D02*
X130413095Y-105725327D01*
X130413095Y-105725327D02*
X130451190Y-105744375D01*
X130451190Y-105744375D02*
X130470238Y-105763422D01*
X130470238Y-105763422D02*
X130489285Y-105801518D01*
X130489285Y-105801518D02*
X130489285Y-105839613D01*
X130489285Y-105839613D02*
X130470238Y-105896756D01*
X130470238Y-105896756D02*
X130241666Y-106125327D01*
X130241666Y-106125327D02*
X130489285Y-106125327D01*
D11*
X153727533Y-86180542D02*
X153727533Y-85571019D01*
X153613247Y-84313876D02*
X153651342Y-84199590D01*
X153651342Y-84199590D02*
X153689438Y-84161495D01*
X153689438Y-84161495D02*
X153765628Y-84123399D01*
X153765628Y-84123399D02*
X153879914Y-84123399D01*
X153879914Y-84123399D02*
X153956104Y-84161495D01*
X153956104Y-84161495D02*
X153994200Y-84199590D01*
X153994200Y-84199590D02*
X154032295Y-84275780D01*
X154032295Y-84275780D02*
X154032295Y-84580542D01*
X154032295Y-84580542D02*
X153232295Y-84580542D01*
X153232295Y-84580542D02*
X153232295Y-84313876D01*
X153232295Y-84313876D02*
X153270390Y-84237685D01*
X153270390Y-84237685D02*
X153308485Y-84199590D01*
X153308485Y-84199590D02*
X153384676Y-84161495D01*
X153384676Y-84161495D02*
X153460866Y-84161495D01*
X153460866Y-84161495D02*
X153537057Y-84199590D01*
X153537057Y-84199590D02*
X153575152Y-84237685D01*
X153575152Y-84237685D02*
X153613247Y-84313876D01*
X153613247Y-84313876D02*
X153613247Y-84580542D01*
X153803723Y-83818638D02*
X153803723Y-83437685D01*
X154032295Y-83894828D02*
X153232295Y-83628161D01*
X153232295Y-83628161D02*
X154032295Y-83361495D01*
X153232295Y-83209114D02*
X153232295Y-82751971D01*
X154032295Y-82980543D02*
X153232295Y-82980543D01*
X153727533Y-81875780D02*
X153727533Y-81266257D01*
X154032295Y-81571018D02*
X153422771Y-81571018D01*
D12*
X124004530Y-104756733D02*
X124028340Y-104780542D01*
X124028340Y-104780542D02*
X124052149Y-104851971D01*
X124052149Y-104851971D02*
X124052149Y-104899590D01*
X124052149Y-104899590D02*
X124028340Y-104971018D01*
X124028340Y-104971018D02*
X123980720Y-105018637D01*
X123980720Y-105018637D02*
X123933101Y-105042447D01*
X123933101Y-105042447D02*
X123837863Y-105066256D01*
X123837863Y-105066256D02*
X123766435Y-105066256D01*
X123766435Y-105066256D02*
X123671197Y-105042447D01*
X123671197Y-105042447D02*
X123623578Y-105018637D01*
X123623578Y-105018637D02*
X123575959Y-104971018D01*
X123575959Y-104971018D02*
X123552149Y-104899590D01*
X123552149Y-104899590D02*
X123552149Y-104851971D01*
X123552149Y-104851971D02*
X123575959Y-104780542D01*
X123575959Y-104780542D02*
X123599768Y-104756733D01*
X123718816Y-104328161D02*
X124052149Y-104328161D01*
X123528340Y-104447209D02*
X123885482Y-104566256D01*
X123885482Y-104566256D02*
X123885482Y-104256733D01*
D13*
X157192166Y-106255619D02*
X157192166Y-105265143D01*
X157687404Y-105760381D02*
X156696928Y-105760381D01*
X156387404Y-103408000D02*
X156387404Y-103160381D01*
X156387404Y-103160381D02*
X156449309Y-103036571D01*
X156449309Y-103036571D02*
X156573119Y-102912762D01*
X156573119Y-102912762D02*
X156820738Y-102850857D01*
X156820738Y-102850857D02*
X157254071Y-102850857D01*
X157254071Y-102850857D02*
X157501690Y-102912762D01*
X157501690Y-102912762D02*
X157625500Y-103036571D01*
X157625500Y-103036571D02*
X157687404Y-103160381D01*
X157687404Y-103160381D02*
X157687404Y-103408000D01*
X157687404Y-103408000D02*
X157625500Y-103531809D01*
X157625500Y-103531809D02*
X157501690Y-103655619D01*
X157501690Y-103655619D02*
X157254071Y-103717523D01*
X157254071Y-103717523D02*
X156820738Y-103717523D01*
X156820738Y-103717523D02*
X156573119Y-103655619D01*
X156573119Y-103655619D02*
X156449309Y-103531809D01*
X156449309Y-103531809D02*
X156387404Y-103408000D01*
X156387404Y-102293714D02*
X157439785Y-102293714D01*
X157439785Y-102293714D02*
X157563595Y-102231809D01*
X157563595Y-102231809D02*
X157625500Y-102169904D01*
X157625500Y-102169904D02*
X157687404Y-102046095D01*
X157687404Y-102046095D02*
X157687404Y-101798476D01*
X157687404Y-101798476D02*
X157625500Y-101674666D01*
X157625500Y-101674666D02*
X157563595Y-101612761D01*
X157563595Y-101612761D02*
X157439785Y-101550857D01*
X157439785Y-101550857D02*
X156387404Y-101550857D01*
X156387404Y-101117523D02*
X156387404Y-100374666D01*
X157687404Y-100746094D02*
X156387404Y-100746094D01*
X157192166Y-98950857D02*
X157192166Y-97960381D01*
D11*
X136398095Y-90793219D02*
X136398095Y-91602742D01*
X136398095Y-91602742D02*
X136445714Y-91697980D01*
X136445714Y-91697980D02*
X136493333Y-91745600D01*
X136493333Y-91745600D02*
X136588571Y-91793219D01*
X136588571Y-91793219D02*
X136779047Y-91793219D01*
X136779047Y-91793219D02*
X136874285Y-91745600D01*
X136874285Y-91745600D02*
X136921904Y-91697980D01*
X136921904Y-91697980D02*
X136969523Y-91602742D01*
X136969523Y-91602742D02*
X136969523Y-90793219D01*
X137969523Y-91793219D02*
X137398095Y-91793219D01*
X137683809Y-91793219D02*
X137683809Y-90793219D01*
X137683809Y-90793219D02*
X137588571Y-90936076D01*
X137588571Y-90936076D02*
X137493333Y-91031314D01*
X137493333Y-91031314D02*
X137398095Y-91078933D01*
D14*
X146939365Y-102302066D02*
X146951270Y-102313970D01*
X146951270Y-102313970D02*
X146963174Y-102349685D01*
X146963174Y-102349685D02*
X146963174Y-102373494D01*
X146963174Y-102373494D02*
X146951270Y-102409208D01*
X146951270Y-102409208D02*
X146927460Y-102433018D01*
X146927460Y-102433018D02*
X146903650Y-102444923D01*
X146903650Y-102444923D02*
X146856031Y-102456827D01*
X146856031Y-102456827D02*
X146820317Y-102456827D01*
X146820317Y-102456827D02*
X146772698Y-102444923D01*
X146772698Y-102444923D02*
X146748889Y-102433018D01*
X146748889Y-102433018D02*
X146725079Y-102409208D01*
X146725079Y-102409208D02*
X146713174Y-102373494D01*
X146713174Y-102373494D02*
X146713174Y-102349685D01*
X146713174Y-102349685D02*
X146725079Y-102313970D01*
X146725079Y-102313970D02*
X146736984Y-102302066D01*
X146713174Y-102218732D02*
X146713174Y-102063970D01*
X146713174Y-102063970D02*
X146808412Y-102147304D01*
X146808412Y-102147304D02*
X146808412Y-102111589D01*
X146808412Y-102111589D02*
X146820317Y-102087780D01*
X146820317Y-102087780D02*
X146832222Y-102075875D01*
X146832222Y-102075875D02*
X146856031Y-102063970D01*
X146856031Y-102063970D02*
X146915555Y-102063970D01*
X146915555Y-102063970D02*
X146939365Y-102075875D01*
X146939365Y-102075875D02*
X146951270Y-102087780D01*
X146951270Y-102087780D02*
X146963174Y-102111589D01*
X146963174Y-102111589D02*
X146963174Y-102183018D01*
X146963174Y-102183018D02*
X146951270Y-102206827D01*
X146951270Y-102206827D02*
X146939365Y-102218732D01*
D10*
X152862738Y-94295327D02*
X152862738Y-94619137D01*
X152862738Y-94619137D02*
X152881785Y-94657232D01*
X152881785Y-94657232D02*
X152900833Y-94676280D01*
X152900833Y-94676280D02*
X152938928Y-94695327D01*
X152938928Y-94695327D02*
X153015119Y-94695327D01*
X153015119Y-94695327D02*
X153053214Y-94676280D01*
X153053214Y-94676280D02*
X153072261Y-94657232D01*
X153072261Y-94657232D02*
X153091309Y-94619137D01*
X153091309Y-94619137D02*
X153091309Y-94295327D01*
X153453214Y-94428660D02*
X153453214Y-94695327D01*
X153357976Y-94276280D02*
X153262738Y-94561994D01*
X153262738Y-94561994D02*
X153510357Y-94561994D01*
D13*
X121826833Y-82342447D02*
X121826833Y-83332924D01*
X121331595Y-84942447D02*
X122631595Y-84942447D01*
X121331595Y-85561495D02*
X122631595Y-85561495D01*
X122631595Y-85561495D02*
X121331595Y-86304352D01*
X121331595Y-86304352D02*
X122631595Y-86304352D01*
X121826833Y-87913876D02*
X121826833Y-88904353D01*
X121331595Y-88409114D02*
X122322071Y-88409114D01*
D10*
X130108333Y-103585327D02*
X129975000Y-103394851D01*
X129879762Y-103585327D02*
X129879762Y-103185327D01*
X129879762Y-103185327D02*
X130032143Y-103185327D01*
X130032143Y-103185327D02*
X130070238Y-103204375D01*
X130070238Y-103204375D02*
X130089285Y-103223422D01*
X130089285Y-103223422D02*
X130108333Y-103261518D01*
X130108333Y-103261518D02*
X130108333Y-103318660D01*
X130108333Y-103318660D02*
X130089285Y-103356756D01*
X130089285Y-103356756D02*
X130070238Y-103375803D01*
X130070238Y-103375803D02*
X130032143Y-103394851D01*
X130032143Y-103394851D02*
X129879762Y-103394851D01*
X130489285Y-103585327D02*
X130260714Y-103585327D01*
X130375000Y-103585327D02*
X130375000Y-103185327D01*
X130375000Y-103185327D02*
X130336904Y-103242470D01*
X130336904Y-103242470D02*
X130298809Y-103280565D01*
X130298809Y-103280565D02*
X130260714Y-103299613D01*
D13*
X121826833Y-93060542D02*
X121826833Y-94051019D01*
X122012547Y-96093876D02*
X121950642Y-96279590D01*
X121950642Y-96279590D02*
X121888738Y-96341495D01*
X121888738Y-96341495D02*
X121764928Y-96403399D01*
X121764928Y-96403399D02*
X121579214Y-96403399D01*
X121579214Y-96403399D02*
X121455404Y-96341495D01*
X121455404Y-96341495D02*
X121393500Y-96279590D01*
X121393500Y-96279590D02*
X121331595Y-96155780D01*
X121331595Y-96155780D02*
X121331595Y-95660542D01*
X121331595Y-95660542D02*
X122631595Y-95660542D01*
X122631595Y-95660542D02*
X122631595Y-96093876D01*
X122631595Y-96093876D02*
X122569690Y-96217685D01*
X122569690Y-96217685D02*
X122507785Y-96279590D01*
X122507785Y-96279590D02*
X122383976Y-96341495D01*
X122383976Y-96341495D02*
X122260166Y-96341495D01*
X122260166Y-96341495D02*
X122136357Y-96279590D01*
X122136357Y-96279590D02*
X122074452Y-96217685D01*
X122074452Y-96217685D02*
X122012547Y-96093876D01*
X122012547Y-96093876D02*
X122012547Y-95660542D01*
X121703023Y-96898638D02*
X121703023Y-97517685D01*
X121331595Y-96774828D02*
X122631595Y-97208161D01*
X122631595Y-97208161D02*
X121331595Y-97641495D01*
X122631595Y-97889114D02*
X122631595Y-98631971D01*
X121331595Y-98260543D02*
X122631595Y-98260543D01*
X121826833Y-100055780D02*
X121826833Y-101046257D01*
X121331595Y-100551018D02*
X122322071Y-100551018D01*
D10*
X142808333Y-105490327D02*
X142675000Y-105299851D01*
X142579762Y-105490327D02*
X142579762Y-105090327D01*
X142579762Y-105090327D02*
X142732143Y-105090327D01*
X142732143Y-105090327D02*
X142770238Y-105109375D01*
X142770238Y-105109375D02*
X142789285Y-105128422D01*
X142789285Y-105128422D02*
X142808333Y-105166518D01*
X142808333Y-105166518D02*
X142808333Y-105223660D01*
X142808333Y-105223660D02*
X142789285Y-105261756D01*
X142789285Y-105261756D02*
X142770238Y-105280803D01*
X142770238Y-105280803D02*
X142732143Y-105299851D01*
X142732143Y-105299851D02*
X142579762Y-105299851D01*
X142941666Y-105090327D02*
X143189285Y-105090327D01*
X143189285Y-105090327D02*
X143055952Y-105242708D01*
X143055952Y-105242708D02*
X143113095Y-105242708D01*
X143113095Y-105242708D02*
X143151190Y-105261756D01*
X143151190Y-105261756D02*
X143170238Y-105280803D01*
X143170238Y-105280803D02*
X143189285Y-105318899D01*
X143189285Y-105318899D02*
X143189285Y-105414137D01*
X143189285Y-105414137D02*
X143170238Y-105452232D01*
X143170238Y-105452232D02*
X143151190Y-105471280D01*
X143151190Y-105471280D02*
X143113095Y-105490327D01*
X143113095Y-105490327D02*
X142998809Y-105490327D01*
X142998809Y-105490327D02*
X142960714Y-105471280D01*
X142960714Y-105471280D02*
X142941666Y-105452232D01*
D11*
X147534333Y-84509780D02*
X147486714Y-84557400D01*
X147486714Y-84557400D02*
X147343857Y-84605019D01*
X147343857Y-84605019D02*
X147248619Y-84605019D01*
X147248619Y-84605019D02*
X147105762Y-84557400D01*
X147105762Y-84557400D02*
X147010524Y-84462161D01*
X147010524Y-84462161D02*
X146962905Y-84366923D01*
X146962905Y-84366923D02*
X146915286Y-84176447D01*
X146915286Y-84176447D02*
X146915286Y-84033590D01*
X146915286Y-84033590D02*
X146962905Y-83843114D01*
X146962905Y-83843114D02*
X147010524Y-83747876D01*
X147010524Y-83747876D02*
X147105762Y-83652638D01*
X147105762Y-83652638D02*
X147248619Y-83605019D01*
X147248619Y-83605019D02*
X147343857Y-83605019D01*
X147343857Y-83605019D02*
X147486714Y-83652638D01*
X147486714Y-83652638D02*
X147534333Y-83700257D01*
X148486714Y-84605019D02*
X147915286Y-84605019D01*
X148201000Y-84605019D02*
X148201000Y-83605019D01*
X148201000Y-83605019D02*
X148105762Y-83747876D01*
X148105762Y-83747876D02*
X148010524Y-83843114D01*
X148010524Y-83843114D02*
X147915286Y-83890733D01*
X146589761Y-90872457D02*
X146494523Y-90824838D01*
X146494523Y-90824838D02*
X146399285Y-90729600D01*
X146399285Y-90729600D02*
X146256428Y-90586742D01*
X146256428Y-90586742D02*
X146161190Y-90539123D01*
X146161190Y-90539123D02*
X146065952Y-90539123D01*
X146113571Y-90777219D02*
X146018333Y-90729600D01*
X146018333Y-90729600D02*
X145923095Y-90634361D01*
X145923095Y-90634361D02*
X145875476Y-90443885D01*
X145875476Y-90443885D02*
X145875476Y-90110552D01*
X145875476Y-90110552D02*
X145923095Y-89920076D01*
X145923095Y-89920076D02*
X146018333Y-89824838D01*
X146018333Y-89824838D02*
X146113571Y-89777219D01*
X146113571Y-89777219D02*
X146304047Y-89777219D01*
X146304047Y-89777219D02*
X146399285Y-89824838D01*
X146399285Y-89824838D02*
X146494523Y-89920076D01*
X146494523Y-89920076D02*
X146542142Y-90110552D01*
X146542142Y-90110552D02*
X146542142Y-90443885D01*
X146542142Y-90443885D02*
X146494523Y-90634361D01*
X146494523Y-90634361D02*
X146399285Y-90729600D01*
X146399285Y-90729600D02*
X146304047Y-90777219D01*
X146304047Y-90777219D02*
X146113571Y-90777219D01*
X147494523Y-90777219D02*
X146923095Y-90777219D01*
X147208809Y-90777219D02*
X147208809Y-89777219D01*
X147208809Y-89777219D02*
X147113571Y-89920076D01*
X147113571Y-89920076D02*
X147018333Y-90015314D01*
X147018333Y-90015314D02*
X146923095Y-90062933D01*
D10*
X126704762Y-106125327D02*
X126704762Y-105725327D01*
X126704762Y-105725327D02*
X126800000Y-105725327D01*
X126800000Y-105725327D02*
X126857143Y-105744375D01*
X126857143Y-105744375D02*
X126895238Y-105782470D01*
X126895238Y-105782470D02*
X126914285Y-105820565D01*
X126914285Y-105820565D02*
X126933333Y-105896756D01*
X126933333Y-105896756D02*
X126933333Y-105953899D01*
X126933333Y-105953899D02*
X126914285Y-106030089D01*
X126914285Y-106030089D02*
X126895238Y-106068184D01*
X126895238Y-106068184D02*
X126857143Y-106106280D01*
X126857143Y-106106280D02*
X126800000Y-106125327D01*
X126800000Y-106125327D02*
X126704762Y-106125327D01*
X127085714Y-105763422D02*
X127104762Y-105744375D01*
X127104762Y-105744375D02*
X127142857Y-105725327D01*
X127142857Y-105725327D02*
X127238095Y-105725327D01*
X127238095Y-105725327D02*
X127276190Y-105744375D01*
X127276190Y-105744375D02*
X127295238Y-105763422D01*
X127295238Y-105763422D02*
X127314285Y-105801518D01*
X127314285Y-105801518D02*
X127314285Y-105839613D01*
X127314285Y-105839613D02*
X127295238Y-105896756D01*
X127295238Y-105896756D02*
X127066666Y-106125327D01*
X127066666Y-106125327D02*
X127314285Y-106125327D01*
X144961927Y-102200066D02*
X144771451Y-102333399D01*
X144961927Y-102428637D02*
X144561927Y-102428637D01*
X144561927Y-102428637D02*
X144561927Y-102276256D01*
X144561927Y-102276256D02*
X144580975Y-102238161D01*
X144580975Y-102238161D02*
X144600022Y-102219114D01*
X144600022Y-102219114D02*
X144638118Y-102200066D01*
X144638118Y-102200066D02*
X144695260Y-102200066D01*
X144695260Y-102200066D02*
X144733356Y-102219114D01*
X144733356Y-102219114D02*
X144752403Y-102238161D01*
X144752403Y-102238161D02*
X144771451Y-102276256D01*
X144771451Y-102276256D02*
X144771451Y-102428637D01*
X144561927Y-101838161D02*
X144561927Y-102028637D01*
X144561927Y-102028637D02*
X144752403Y-102047685D01*
X144752403Y-102047685D02*
X144733356Y-102028637D01*
X144733356Y-102028637D02*
X144714308Y-101990542D01*
X144714308Y-101990542D02*
X144714308Y-101895304D01*
X144714308Y-101895304D02*
X144733356Y-101857209D01*
X144733356Y-101857209D02*
X144752403Y-101838161D01*
X144752403Y-101838161D02*
X144790499Y-101819114D01*
X144790499Y-101819114D02*
X144885737Y-101819114D01*
X144885737Y-101819114D02*
X144923832Y-101838161D01*
X144923832Y-101838161D02*
X144942880Y-101857209D01*
X144942880Y-101857209D02*
X144961927Y-101895304D01*
X144961927Y-101895304D02*
X144961927Y-101990542D01*
X144961927Y-101990542D02*
X144942880Y-102028637D01*
X144942880Y-102028637D02*
X144923832Y-102047685D01*
D14*
X143976333Y-107430165D02*
X143964429Y-107442070D01*
X143964429Y-107442070D02*
X143928714Y-107453974D01*
X143928714Y-107453974D02*
X143904905Y-107453974D01*
X143904905Y-107453974D02*
X143869191Y-107442070D01*
X143869191Y-107442070D02*
X143845381Y-107418260D01*
X143845381Y-107418260D02*
X143833476Y-107394450D01*
X143833476Y-107394450D02*
X143821572Y-107346831D01*
X143821572Y-107346831D02*
X143821572Y-107311117D01*
X143821572Y-107311117D02*
X143833476Y-107263498D01*
X143833476Y-107263498D02*
X143845381Y-107239689D01*
X143845381Y-107239689D02*
X143869191Y-107215879D01*
X143869191Y-107215879D02*
X143904905Y-107203974D01*
X143904905Y-107203974D02*
X143928714Y-107203974D01*
X143928714Y-107203974D02*
X143964429Y-107215879D01*
X143964429Y-107215879D02*
X143976333Y-107227784D01*
X144071572Y-107227784D02*
X144083476Y-107215879D01*
X144083476Y-107215879D02*
X144107286Y-107203974D01*
X144107286Y-107203974D02*
X144166810Y-107203974D01*
X144166810Y-107203974D02*
X144190619Y-107215879D01*
X144190619Y-107215879D02*
X144202524Y-107227784D01*
X144202524Y-107227784D02*
X144214429Y-107251593D01*
X144214429Y-107251593D02*
X144214429Y-107275403D01*
X144214429Y-107275403D02*
X144202524Y-107311117D01*
X144202524Y-107311117D02*
X144059667Y-107453974D01*
X144059667Y-107453974D02*
X144214429Y-107453974D01*
D10*
X144961927Y-94580066D02*
X144771451Y-94713399D01*
X144961927Y-94808637D02*
X144561927Y-94808637D01*
X144561927Y-94808637D02*
X144561927Y-94656256D01*
X144561927Y-94656256D02*
X144580975Y-94618161D01*
X144580975Y-94618161D02*
X144600022Y-94599114D01*
X144600022Y-94599114D02*
X144638118Y-94580066D01*
X144638118Y-94580066D02*
X144695260Y-94580066D01*
X144695260Y-94580066D02*
X144733356Y-94599114D01*
X144733356Y-94599114D02*
X144752403Y-94618161D01*
X144752403Y-94618161D02*
X144771451Y-94656256D01*
X144771451Y-94656256D02*
X144771451Y-94808637D01*
X144695260Y-94237209D02*
X144961927Y-94237209D01*
X144542880Y-94332447D02*
X144828594Y-94427685D01*
X144828594Y-94427685D02*
X144828594Y-94180066D01*
D11*
X152392619Y-87839933D02*
X153002143Y-87839933D01*
X152697381Y-88144695D02*
X152697381Y-87535171D01*
X154145000Y-87344695D02*
X154297381Y-87344695D01*
X154297381Y-87344695D02*
X154373571Y-87382790D01*
X154373571Y-87382790D02*
X154449762Y-87458980D01*
X154449762Y-87458980D02*
X154487857Y-87611361D01*
X154487857Y-87611361D02*
X154487857Y-87878028D01*
X154487857Y-87878028D02*
X154449762Y-88030409D01*
X154449762Y-88030409D02*
X154373571Y-88106600D01*
X154373571Y-88106600D02*
X154297381Y-88144695D01*
X154297381Y-88144695D02*
X154145000Y-88144695D01*
X154145000Y-88144695D02*
X154068809Y-88106600D01*
X154068809Y-88106600D02*
X153992619Y-88030409D01*
X153992619Y-88030409D02*
X153954523Y-87878028D01*
X153954523Y-87878028D02*
X153954523Y-87611361D01*
X153954523Y-87611361D02*
X153992619Y-87458980D01*
X153992619Y-87458980D02*
X154068809Y-87382790D01*
X154068809Y-87382790D02*
X154145000Y-87344695D01*
X154830714Y-87344695D02*
X154830714Y-87992314D01*
X154830714Y-87992314D02*
X154868809Y-88068504D01*
X154868809Y-88068504D02*
X154906904Y-88106600D01*
X154906904Y-88106600D02*
X154983095Y-88144695D01*
X154983095Y-88144695D02*
X155135476Y-88144695D01*
X155135476Y-88144695D02*
X155211666Y-88106600D01*
X155211666Y-88106600D02*
X155249761Y-88068504D01*
X155249761Y-88068504D02*
X155287857Y-87992314D01*
X155287857Y-87992314D02*
X155287857Y-87344695D01*
X155554523Y-87344695D02*
X156011666Y-87344695D01*
X155783094Y-88144695D02*
X155783094Y-87344695D01*
X156887857Y-87839933D02*
X157497381Y-87839933D01*
D15*
X144399047Y-98063209D02*
X144399047Y-98467971D01*
X144399047Y-98467971D02*
X144422857Y-98515590D01*
X144422857Y-98515590D02*
X144446666Y-98539400D01*
X144446666Y-98539400D02*
X144494285Y-98563209D01*
X144494285Y-98563209D02*
X144589523Y-98563209D01*
X144589523Y-98563209D02*
X144637142Y-98539400D01*
X144637142Y-98539400D02*
X144660952Y-98515590D01*
X144660952Y-98515590D02*
X144684761Y-98467971D01*
X144684761Y-98467971D02*
X144684761Y-98063209D01*
X144875238Y-98063209D02*
X145184762Y-98063209D01*
X145184762Y-98063209D02*
X145018095Y-98253685D01*
X145018095Y-98253685D02*
X145089524Y-98253685D01*
X145089524Y-98253685D02*
X145137143Y-98277495D01*
X145137143Y-98277495D02*
X145160952Y-98301304D01*
X145160952Y-98301304D02*
X145184762Y-98348923D01*
X145184762Y-98348923D02*
X145184762Y-98467971D01*
X145184762Y-98467971D02*
X145160952Y-98515590D01*
X145160952Y-98515590D02*
X145137143Y-98539400D01*
X145137143Y-98539400D02*
X145089524Y-98563209D01*
X145089524Y-98563209D02*
X144946667Y-98563209D01*
X144946667Y-98563209D02*
X144899048Y-98539400D01*
X144899048Y-98539400D02*
X144875238Y-98515590D01*
D16*
%TO.C,D1*%
X128485000Y-104138400D02*
X128485000Y-102668400D01*
X128485000Y-102668400D02*
X126200000Y-102668400D01*
X126200000Y-104138400D02*
X128485000Y-104138400D01*
%TO.C,R2*%
X129937742Y-105420900D02*
X130412258Y-105420900D01*
X129937742Y-106465900D02*
X130412258Y-106465900D01*
%TO.C,J4*%
X157540000Y-86323400D02*
X156210000Y-86323400D01*
X157540000Y-84993400D02*
X157540000Y-86323400D01*
X157540000Y-83723400D02*
X157540000Y-81123400D01*
X157540000Y-83723400D02*
X154880000Y-83723400D01*
X157540000Y-81123400D02*
X154880000Y-81123400D01*
X154880000Y-83723400D02*
X154880000Y-81123400D01*
%TO.C,C4*%
X124560000Y-104412148D02*
X124560000Y-104934652D01*
X123090000Y-104412148D02*
X123090000Y-104934652D01*
%TO.C,J3*%
X155702000Y-97028000D02*
X148082000Y-97028000D01*
X148082000Y-97028000D02*
X148082000Y-107188000D01*
X155702000Y-107188000D02*
X155702000Y-97028000D01*
X149352000Y-107188000D02*
X149352000Y-97028000D01*
X148082000Y-107188000D02*
X155702000Y-107188000D01*
%TO.C,U1*%
X132040000Y-80353400D02*
X132040000Y-96243400D01*
X132040000Y-80353400D02*
X142280000Y-80353400D01*
X132040000Y-96243400D02*
X142280000Y-96243400D01*
X134620000Y-96243400D02*
X134620000Y-98783400D01*
X137160000Y-96243400D02*
X137160000Y-98783400D01*
X139700000Y-96243400D02*
X139700000Y-98783400D01*
X142280000Y-80353400D02*
X142280000Y-96243400D01*
%TO.C,U4*%
X153167500Y-92953400D02*
X151367500Y-92953400D01*
X153167500Y-92953400D02*
X153967500Y-92953400D01*
X153167500Y-96073400D02*
X152367500Y-96073400D01*
X153167500Y-96073400D02*
X153967500Y-96073400D01*
%TO.C,J1*%
X123190000Y-90703400D02*
X130810000Y-90703400D01*
X130810000Y-90703400D02*
X130810000Y-80543400D01*
X123190000Y-80543400D02*
X123190000Y-90703400D01*
X129540000Y-80543400D02*
X129540000Y-90703400D01*
X130810000Y-80543400D02*
X123190000Y-80543400D01*
%TO.C,R1*%
X129937742Y-102880900D02*
X130412258Y-102880900D01*
X129937742Y-103925900D02*
X130412258Y-103925900D01*
D17*
%TO.C,U2*%
X139225000Y-107223400D02*
X135225000Y-107223400D01*
X139225000Y-102123400D02*
X135225000Y-102123400D01*
D18*
X141770000Y-107178400D02*
G75*
G03*
X141570000Y-107178400I-100000J0D01*
G01*
X141570000Y-107178400D02*
G75*
G03*
X141770000Y-107178400I100000J0D01*
G01*
D16*
%TO.C,J2*%
X123190000Y-102133400D02*
X130810000Y-102133400D01*
X130810000Y-102133400D02*
X130810000Y-91973400D01*
X123190000Y-91973400D02*
X123190000Y-102133400D01*
X129540000Y-91973400D02*
X129540000Y-102133400D01*
X130810000Y-91973400D02*
X123190000Y-91973400D01*
%TO.C,R3*%
X143112258Y-105830900D02*
X142637742Y-105830900D01*
X143112258Y-104785900D02*
X142637742Y-104785900D01*
%TO.C,C1*%
X143263500Y-82302700D02*
X144051000Y-82302700D01*
X143657250Y-81908950D02*
X143657250Y-82696450D01*
X144291000Y-81804637D02*
X144291000Y-83090200D01*
X144291000Y-81804637D02*
X145355437Y-80740200D01*
X144291000Y-86495763D02*
X144291000Y-85210200D01*
X144291000Y-86495763D02*
X145355437Y-87560200D01*
X145355437Y-80740200D02*
X151111000Y-80740200D01*
X145355437Y-87560200D02*
X151111000Y-87560200D01*
X151111000Y-80740200D02*
X151111000Y-83090200D01*
X151111000Y-87560200D02*
X151111000Y-85210200D01*
D17*
%TO.C,Q1*%
X144435000Y-88807400D02*
X148935000Y-88807400D01*
X144435000Y-91837400D02*
X148935000Y-91837400D01*
D16*
%TO.C,D2*%
X128485000Y-106678400D02*
X128485000Y-105208400D01*
X128485000Y-105208400D02*
X126200000Y-105208400D01*
X126200000Y-106678400D02*
X128485000Y-106678400D01*
%TO.C,R5*%
X144257500Y-102370658D02*
X144257500Y-101896142D01*
X145302500Y-102370658D02*
X145302500Y-101896142D01*
%TO.C,R4*%
X145302500Y-94276142D02*
X145302500Y-94750658D01*
X144257500Y-94276142D02*
X144257500Y-94750658D01*
%TO.C,J5*%
X157545000Y-88992400D02*
X157545000Y-90322400D01*
X156215000Y-88992400D02*
X157545000Y-88992400D01*
X154945000Y-88992400D02*
X152345000Y-88992400D01*
X154945000Y-88992400D02*
X154945000Y-91652400D01*
X152345000Y-88992400D02*
X152345000Y-91652400D01*
X154945000Y-91652400D02*
X152345000Y-91652400D01*
D18*
%TO.C,U3*%
X145830000Y-95783400D02*
G75*
G03*
X145630000Y-95783400I-100000J0D01*
G01*
X145630000Y-95783400D02*
G75*
G03*
X145830000Y-95783400I100000J0D01*
G01*
%TD*%
M02*
