%TF.GenerationSoftware,KiCad,Pcbnew,7.0.10*%
%TF.CreationDate,2024-07-15T19:27:34-03:00*%
%TF.ProjectId,board,626f6172-642e-46b6-9963-61645f706362,rev?*%
%TF.SameCoordinates,Original*%
%TF.FileFunction,Copper,L1,Top*%
%TF.FilePolarity,Positive*%
%FSLAX46Y46*%
G04 Gerber Fmt 4.6, Leading zero omitted, Abs format (unit mm)*
G04 Created by KiCad (PCBNEW 7.0.10) date 2024-07-15 19:27:34*
%MOMM*%
%LPD*%
G01*
G04 APERTURE LIST*
G04 Aperture macros list*
%AMRoundRect*
0 Rectangle with rounded corners*
0 $1 Rounding radius*
0 $2 $3 $4 $5 $6 $7 $8 $9 X,Y pos of 4 corners*
0 Add a 4 corners polygon primitive as box body*
4,1,4,$2,$3,$4,$5,$6,$7,$8,$9,$2,$3,0*
0 Add four circle primitives for the rounded corners*
1,1,$1+$1,$2,$3*
1,1,$1+$1,$4,$5*
1,1,$1+$1,$6,$7*
1,1,$1+$1,$8,$9*
0 Add four rect primitives between the rounded corners*
20,1,$1+$1,$2,$3,$4,$5,0*
20,1,$1+$1,$4,$5,$6,$7,0*
20,1,$1+$1,$6,$7,$8,$9,0*
20,1,$1+$1,$8,$9,$2,$3,0*%
G04 Aperture macros list end*
%TA.AperFunction,SMDPad,CuDef*%
%ADD10RoundRect,0.218750X0.218750X0.256250X-0.218750X0.256250X-0.218750X-0.256250X0.218750X-0.256250X0*%
%TD*%
%TA.AperFunction,SMDPad,CuDef*%
%ADD11RoundRect,0.200000X-0.200000X-0.275000X0.200000X-0.275000X0.200000X0.275000X-0.200000X0.275000X0*%
%TD*%
%TA.AperFunction,ComponentPad*%
%ADD12O,1.700000X1.700000*%
%TD*%
%TA.AperFunction,SMDPad,CuDef*%
%ADD13RoundRect,0.250000X-0.475000X0.250000X-0.475000X-0.250000X0.475000X-0.250000X0.475000X0.250000X0*%
%TD*%
%TA.AperFunction,ComponentPad*%
%ADD14O,3.000000X3.000000*%
%TD*%
%TA.AperFunction,ComponentPad*%
%ADD15C,3.000000*%
%TD*%
%TA.AperFunction,ComponentPad*%
%ADD16O,1.905000X2.000000*%
%TD*%
%TA.AperFunction,SMDPad,CuDef*%
%ADD17RoundRect,0.100000X-0.100000X0.130000X-0.100000X-0.130000X0.100000X-0.130000X0.100000X0.130000X0*%
%TD*%
%TA.AperFunction,SMDPad,CuDef*%
%ADD18RoundRect,0.150000X-0.512500X-0.150000X0.512500X-0.150000X0.512500X0.150000X-0.512500X0.150000X0*%
%TD*%
%TA.AperFunction,SMDPad,CuDef*%
%ADD19RoundRect,0.075000X0.910000X0.225000X-0.910000X0.225000X-0.910000X-0.225000X0.910000X-0.225000X0*%
%TD*%
%TA.AperFunction,SMDPad,CuDef*%
%ADD20R,2.413000X3.302000*%
%TD*%
%TA.AperFunction,SMDPad,CuDef*%
%ADD21RoundRect,0.200000X0.200000X0.275000X-0.200000X0.275000X-0.200000X-0.275000X0.200000X-0.275000X0*%
%TD*%
%TA.AperFunction,SMDPad,CuDef*%
%ADD22RoundRect,0.250000X-1.500000X-0.550000X1.500000X-0.550000X1.500000X0.550000X-1.500000X0.550000X0*%
%TD*%
%TA.AperFunction,SMDPad,CuDef*%
%ADD23RoundRect,0.050000X-0.730000X-0.150000X0.730000X-0.150000X0.730000X0.150000X-0.730000X0.150000X0*%
%TD*%
%TA.AperFunction,SMDPad,CuDef*%
%ADD24RoundRect,0.200000X0.275000X-0.200000X0.275000X0.200000X-0.275000X0.200000X-0.275000X-0.200000X0*%
%TD*%
%TA.AperFunction,SMDPad,CuDef*%
%ADD25RoundRect,0.100000X0.130000X0.100000X-0.130000X0.100000X-0.130000X-0.100000X0.130000X-0.100000X0*%
%TD*%
%TA.AperFunction,SMDPad,CuDef*%
%ADD26RoundRect,0.200000X-0.275000X0.200000X-0.275000X-0.200000X0.275000X-0.200000X0.275000X0.200000X0*%
%TD*%
%TA.AperFunction,SMDPad,CuDef*%
%ADD27R,0.590000X1.210000*%
%TD*%
%TA.AperFunction,ViaPad*%
%ADD28C,0.800000*%
%TD*%
%TA.AperFunction,Conductor*%
%ADD29C,0.250000*%
%TD*%
%TA.AperFunction,Conductor*%
%ADD30C,0.200000*%
%TD*%
G04 APERTURE END LIST*
D10*
%TO.P,D1,1,K*%
%TO.N,Net-(D1-K)*%
X127787500Y-103403400D03*
%TO.P,D1,2,A*%
%TO.N,5V*%
X126212500Y-103403400D03*
%TD*%
D11*
%TO.P,R2,1*%
%TO.N,Net-(D2-K)*%
X129350000Y-105943400D03*
%TO.P,R2,2*%
%TO.N,Net-(U2-~{CHRG})*%
X131000000Y-105943400D03*
%TD*%
D12*
%TO.P,J4,1,Pin_1*%
%TO.N,BAT+*%
X156210000Y-84993400D03*
%TO.P,J4,2,Pin_2*%
%TO.N,BAT-*%
X156210000Y-82453400D03*
%TD*%
D13*
%TO.P,C4,1*%
%TO.N,BAT+*%
X123825000Y-103723400D03*
%TO.P,C4,2*%
%TO.N,BAT-*%
X123825000Y-105623400D03*
%TD*%
D14*
%TO.P,J3,1,Pin_1*%
%TO.N,VCC*%
X151892000Y-99568000D03*
D15*
%TO.P,J3,2,Pin_2*%
%TO.N,BAT-*%
X151892000Y-104648000D03*
%TD*%
D16*
%TO.P,U1,1,VI*%
%TO.N,IN+*%
X134620000Y-99933400D03*
%TO.P,U1,2,GND*%
%TO.N,BAT-*%
X137160000Y-99933400D03*
%TO.P,U1,3,VO*%
%TO.N,5V*%
X139700000Y-99933400D03*
%TD*%
D17*
%TO.P,C3,1*%
%TO.N,Net-(U3-VCC)*%
X146304000Y-101940400D03*
%TO.P,C3,2*%
%TO.N,BAT-*%
X146304000Y-102580400D03*
%TD*%
D18*
%TO.P,U4,1,VIN*%
%TO.N,BAT+*%
X152030000Y-93563400D03*
%TO.P,U4,2,GND*%
%TO.N,BAT-*%
X152030000Y-94513400D03*
%TO.P,U4,3,EN*%
%TO.N,BAT+*%
X152030000Y-95463400D03*
%TO.P,U4,4,NC*%
%TO.N,unconnected-(U4-NC-Pad4)*%
X154305000Y-95463400D03*
%TO.P,U4,5,VOUT*%
%TO.N,VCC*%
X154305000Y-93563400D03*
%TD*%
D14*
%TO.P,J1,1,Pin_1*%
%TO.N,IN+*%
X127000000Y-88163400D03*
D15*
%TO.P,J1,2,Pin_2*%
%TO.N,BAT-*%
X127000000Y-83083400D03*
%TD*%
D11*
%TO.P,R1,1*%
%TO.N,Net-(D1-K)*%
X129350000Y-103403400D03*
%TO.P,R1,2*%
%TO.N,Net-(U2-~{STDBY})*%
X131000000Y-103403400D03*
%TD*%
D19*
%TO.P,U2,1,TEMP*%
%TO.N,BAT-*%
X139700000Y-106578400D03*
%TO.P,U2,2,PROG*%
%TO.N,Net-(U2-PROG)*%
X139700000Y-105308400D03*
%TO.P,U2,3,GND*%
%TO.N,BAT-*%
X139700000Y-104038400D03*
%TO.P,U2,4,VCC*%
%TO.N,5V*%
X139700000Y-102768400D03*
%TO.P,U2,5,BAT*%
%TO.N,BAT+*%
X134750000Y-102768400D03*
%TO.P,U2,6,~{STDBY}*%
%TO.N,Net-(U2-~{STDBY})*%
X134750000Y-104038400D03*
%TO.P,U2,7,~{CHRG}*%
%TO.N,Net-(U2-~{CHRG})*%
X134750000Y-105308400D03*
%TO.P,U2,8,CE*%
%TO.N,5V*%
X134750000Y-106578400D03*
D20*
%TO.P,U2,9,EP*%
%TO.N,BAT-*%
X137225000Y-104673400D03*
%TD*%
D14*
%TO.P,J2,1,Pin_1*%
%TO.N,BAT+*%
X127000000Y-99593400D03*
D15*
%TO.P,J2,2,Pin_2*%
%TO.N,BAT-*%
X127000000Y-94513400D03*
%TD*%
D21*
%TO.P,R3,1*%
%TO.N,BAT-*%
X143700000Y-105308400D03*
%TO.P,R3,2*%
%TO.N,Net-(U2-PROG)*%
X142050000Y-105308400D03*
%TD*%
D22*
%TO.P,C1,1*%
%TO.N,IN+*%
X145001000Y-84150200D03*
%TO.P,C1,2*%
%TO.N,BAT-*%
X150401000Y-84150200D03*
%TD*%
D23*
%TO.P,Q1,1*%
%TO.N,unconnected-(Q1-Pad1)*%
X143805000Y-89347400D03*
%TO.P,Q1,2*%
%TO.N,BAT-*%
X143805000Y-89997400D03*
%TO.P,Q1,3*%
%TO.N,N/C*%
X143805000Y-90647400D03*
%TO.P,Q1,4*%
%TO.N,Net-(U3-OC)*%
X143805000Y-91297400D03*
%TO.P,Q1,5*%
%TO.N,Net-(U3-OD)*%
X149565000Y-91297400D03*
%TO.P,Q1,6*%
%TO.N,BAT-*%
X149565000Y-90647400D03*
%TO.P,Q1,7*%
%TO.N,N/C*%
X149565000Y-89997400D03*
%TO.P,Q1,8*%
X149565000Y-89347400D03*
%TD*%
D10*
%TO.P,D2,1,K*%
%TO.N,Net-(D2-K)*%
X127787500Y-105943400D03*
%TO.P,D2,2,A*%
%TO.N,5V*%
X126212500Y-105943400D03*
%TD*%
D24*
%TO.P,R5,1*%
%TO.N,BAT+*%
X144780000Y-102958400D03*
%TO.P,R5,2*%
%TO.N,Net-(U3-VCC)*%
X144780000Y-101308400D03*
%TD*%
D25*
%TO.P,C2,1*%
%TO.N,5V*%
X144338000Y-106832400D03*
%TO.P,C2,2*%
%TO.N,BAT-*%
X143698000Y-106832400D03*
%TD*%
D26*
%TO.P,R4,1*%
%TO.N,BAT-*%
X144780000Y-93688400D03*
%TO.P,R4,2*%
%TO.N,Net-(U3-CS)*%
X144780000Y-95338400D03*
%TD*%
D12*
%TO.P,J5,1,Pin_1*%
%TO.N,VCC*%
X156215000Y-90322400D03*
%TO.P,J5,2,Pin_2*%
%TO.N,BAT-*%
X153675000Y-90322400D03*
%TD*%
D27*
%TO.P,U3,1,OD*%
%TO.N,Net-(U3-OD)*%
X145730000Y-97083400D03*
%TO.P,U3,2,CS*%
%TO.N,Net-(U3-CS)*%
X144780000Y-97083400D03*
%TO.P,U3,3,OC*%
%TO.N,Net-(U3-OC)*%
X143830000Y-97083400D03*
%TO.P,U3,4,TD*%
%TO.N,unconnected-(U3-TD-Pad4)*%
X143830000Y-99593400D03*
%TO.P,U3,5,VCC*%
%TO.N,Net-(U3-VCC)*%
X144780000Y-99593400D03*
%TO.P,U3,6,GND*%
%TO.N,BAT-*%
X145730000Y-99593400D03*
%TD*%
D28*
%TO.N,BAT+*%
X150495000Y-95463400D03*
X132715000Y-102768400D03*
X150495000Y-93563400D03*
X143510000Y-102958400D03*
%TO.N,5V*%
X132715000Y-106578400D03*
X145542000Y-106832400D03*
X141605000Y-102768400D03*
%TD*%
D29*
%TO.N,IN+*%
X130810000Y-88163400D02*
X134620000Y-91973400D01*
X127000000Y-88163400D02*
X130810000Y-88163400D01*
X140810000Y-88163400D02*
X145255000Y-83718400D01*
X130810000Y-88163400D02*
X140810000Y-88163400D01*
X134620000Y-91973400D02*
X134620000Y-99933400D01*
D30*
%TO.N,BAT-*%
X146050000Y-104038400D02*
X146304000Y-103784400D01*
X122870000Y-105623400D02*
X122174000Y-104927400D01*
X143700000Y-105308400D02*
X144780000Y-105308400D01*
X143698000Y-106832400D02*
X143698000Y-105310400D01*
X147066000Y-100228400D02*
X146431000Y-99593400D01*
X144780000Y-105308400D02*
X146050000Y-104038400D01*
X122174000Y-99339400D02*
X127000000Y-94513400D01*
X147066000Y-103022400D02*
X147066000Y-100228400D01*
X146304000Y-102580400D02*
X146304000Y-103784400D01*
X143698000Y-105310400D02*
X143700000Y-105308400D01*
X146431000Y-99593400D02*
X145730000Y-99593400D01*
X146304000Y-103784400D02*
X147066000Y-103022400D01*
X122174000Y-104927400D02*
X122174000Y-99339400D01*
X123825000Y-105623400D02*
X122870000Y-105623400D01*
D29*
%TO.N,Net-(U3-VCC)*%
X145672000Y-101308400D02*
X144780000Y-101308400D01*
X146304000Y-101940400D02*
X145672000Y-101308400D01*
X144780000Y-99593400D02*
X144780000Y-101308400D01*
D30*
%TO.N,BAT+*%
X129540000Y-99593400D02*
X132715000Y-102768400D01*
X123825000Y-102768400D02*
X127000000Y-99593400D01*
X150495000Y-92735400D02*
X151434800Y-91795600D01*
X150495000Y-93563400D02*
X150495000Y-92735400D01*
X151434800Y-88239600D02*
X154681000Y-84993400D01*
X123825000Y-103723400D02*
X123825000Y-102768400D01*
X143510000Y-102958400D02*
X144780000Y-102958400D01*
X127000000Y-99593400D02*
X129540000Y-99593400D01*
X150495000Y-95463400D02*
X152030000Y-95463400D01*
X132715000Y-102768400D02*
X134750000Y-102768400D01*
X150495000Y-93563400D02*
X152030000Y-93563400D01*
X154681000Y-84993400D02*
X156210000Y-84993400D01*
X151434800Y-91795600D02*
X151434800Y-88239600D01*
D29*
%TO.N,Net-(D1-K)*%
X127787500Y-103403400D02*
X129350000Y-103403400D01*
%TO.N,Net-(D2-K)*%
X127787500Y-105943400D02*
X129350000Y-105943400D01*
%TO.N,Net-(U3-OC)*%
X143830000Y-97083400D02*
X143805000Y-97058400D01*
X143805000Y-97058400D02*
X143805000Y-91424400D01*
X143805000Y-91424400D02*
X143830000Y-91399400D01*
%TO.N,Net-(U3-OD)*%
X149565000Y-94427400D02*
X149565000Y-91297400D01*
X145730000Y-97083400D02*
X146909000Y-97083400D01*
X146909000Y-97083400D02*
X149565000Y-94427400D01*
%TO.N,Net-(U2-~{CHRG})*%
X132715000Y-105308400D02*
X134750000Y-105308400D01*
X132080000Y-105943400D02*
X132715000Y-105308400D01*
X131000000Y-105943400D02*
X132080000Y-105943400D01*
%TO.N,Net-(U2-PROG)*%
X139700000Y-105308400D02*
X142050000Y-105308400D01*
%TO.N,Net-(U3-CS)*%
X144780000Y-95338400D02*
X144780000Y-97083400D01*
%TO.N,5V*%
X132322236Y-106971164D02*
X132715000Y-106578400D01*
X126212500Y-103403400D02*
X126212500Y-105943400D01*
X127240264Y-106971164D02*
X132322236Y-106971164D01*
X139700000Y-99933400D02*
X139700000Y-102768400D01*
X139700000Y-102768400D02*
X141605000Y-102768400D01*
X126212500Y-105943400D02*
X127240264Y-106971164D01*
X132715000Y-106578400D02*
X134750000Y-106578400D01*
X144338000Y-106832400D02*
X145542000Y-106832400D01*
%TO.N,VCC*%
X151892000Y-99568000D02*
X154432000Y-99568000D01*
X155448000Y-93563400D02*
X156215000Y-92796400D01*
X156464000Y-97536000D02*
X156464000Y-94579400D01*
X156464000Y-94579400D02*
X155448000Y-93563400D01*
X154432000Y-99568000D02*
X156464000Y-97536000D01*
X156215000Y-92796400D02*
X156215000Y-90322400D01*
X155448000Y-93563400D02*
X154305000Y-93563400D01*
%TO.N,Net-(U2-~{STDBY})*%
X132080000Y-103403400D02*
X131000000Y-103403400D01*
X132715000Y-104038400D02*
X132080000Y-103403400D01*
X134750000Y-104038400D02*
X132715000Y-104038400D01*
%TD*%
%TA.AperFunction,Conductor*%
%TO.N,BAT-*%
G36*
X156564540Y-79909735D02*
G01*
X156564548Y-79909738D01*
X156612333Y-79909738D01*
X156620443Y-79910003D01*
X156701817Y-79915336D01*
X156702434Y-79915379D01*
X156864710Y-79926963D01*
X156880058Y-79929029D01*
X156989741Y-79950847D01*
X156991596Y-79951233D01*
X157120595Y-79979295D01*
X157134071Y-79983036D01*
X157244791Y-80020620D01*
X157248053Y-80021781D01*
X157366916Y-80066115D01*
X157378378Y-80071064D01*
X157485024Y-80123657D01*
X157489515Y-80125989D01*
X157599027Y-80185788D01*
X157608461Y-80191500D01*
X157708088Y-80258070D01*
X157713460Y-80261871D01*
X157811251Y-80335078D01*
X157812618Y-80336101D01*
X157820063Y-80342138D01*
X157909019Y-80420152D01*
X157910412Y-80421373D01*
X157916334Y-80426920D01*
X158003700Y-80514288D01*
X158009247Y-80520210D01*
X158088491Y-80610572D01*
X158094530Y-80618021D01*
X158168732Y-80717146D01*
X158172551Y-80722542D01*
X158239119Y-80822171D01*
X158244838Y-80831618D01*
X158304602Y-80941072D01*
X158306972Y-80945636D01*
X158359546Y-81052249D01*
X158364503Y-81063730D01*
X158401511Y-81162955D01*
X158408778Y-81182440D01*
X158410015Y-81185915D01*
X158447570Y-81296555D01*
X158451317Y-81310055D01*
X158479330Y-81438838D01*
X158479780Y-81441003D01*
X158493617Y-81510567D01*
X158496000Y-81534758D01*
X158496000Y-106223849D01*
X158493617Y-106248043D01*
X158479811Y-106317443D01*
X158479360Y-106319610D01*
X158451337Y-106448416D01*
X158447590Y-106461916D01*
X158410037Y-106572537D01*
X158408799Y-106576011D01*
X158364518Y-106694727D01*
X158359548Y-106706237D01*
X158306990Y-106812810D01*
X158304611Y-106817393D01*
X158244848Y-106926838D01*
X158239117Y-106936302D01*
X158172574Y-107035888D01*
X158168739Y-107041308D01*
X158094525Y-107140443D01*
X158088486Y-107147891D01*
X158009258Y-107238231D01*
X158003712Y-107244153D01*
X157916332Y-107331532D01*
X157910410Y-107337078D01*
X157820057Y-107416315D01*
X157812607Y-107422355D01*
X157713473Y-107496564D01*
X157708055Y-107500398D01*
X157608484Y-107566929D01*
X157599018Y-107572660D01*
X157489541Y-107632437D01*
X157484959Y-107634816D01*
X157378397Y-107687366D01*
X157366887Y-107692336D01*
X157248215Y-107736598D01*
X157244739Y-107737836D01*
X157134064Y-107775404D01*
X157120565Y-107779150D01*
X156991799Y-107807161D01*
X156989633Y-107807612D01*
X156880035Y-107829413D01*
X156864689Y-107831480D01*
X156706716Y-107842778D01*
X156705981Y-107842828D01*
X156625035Y-107848134D01*
X156616924Y-107848400D01*
X142902513Y-107848400D01*
X122559050Y-107847900D01*
X122550942Y-107847634D01*
X122548298Y-107847460D01*
X122471803Y-107842446D01*
X122471070Y-107842396D01*
X122306406Y-107830620D01*
X122291059Y-107828553D01*
X122183879Y-107807233D01*
X122181713Y-107806782D01*
X122050495Y-107778237D01*
X122036995Y-107774490D01*
X121927908Y-107737460D01*
X121924433Y-107736223D01*
X121804165Y-107691366D01*
X121792654Y-107686396D01*
X121687222Y-107634402D01*
X121682639Y-107632022D01*
X121572034Y-107571627D01*
X121562571Y-107565898D01*
X121510589Y-107531165D01*
X121463885Y-107499958D01*
X121458483Y-107496135D01*
X121380933Y-107438082D01*
X121358403Y-107421216D01*
X121350976Y-107415195D01*
X121261408Y-107336646D01*
X121255486Y-107331099D01*
X121167299Y-107242912D01*
X121161752Y-107236990D01*
X121158164Y-107232899D01*
X121083199Y-107147417D01*
X121077188Y-107140002D01*
X121002252Y-107039899D01*
X120998451Y-107034529D01*
X120932495Y-106935819D01*
X120926776Y-106926372D01*
X120866365Y-106815737D01*
X120864008Y-106811200D01*
X120811995Y-106705729D01*
X120807039Y-106694249D01*
X120762166Y-106573940D01*
X120760938Y-106570490D01*
X120756615Y-106557756D01*
X120723907Y-106461400D01*
X120720164Y-106447915D01*
X120691596Y-106316589D01*
X120691189Y-106314637D01*
X120669841Y-106207312D01*
X120667781Y-106192015D01*
X120655988Y-106027129D01*
X120655983Y-106027056D01*
X120655743Y-106023400D01*
X122610219Y-106023400D01*
X122610494Y-106026094D01*
X122610495Y-106026101D01*
X122665641Y-106192519D01*
X122665643Y-106192524D01*
X122757684Y-106341745D01*
X122881654Y-106465715D01*
X123030875Y-106557756D01*
X123030880Y-106557758D01*
X123197302Y-106612905D01*
X123197309Y-106612906D01*
X123300019Y-106623399D01*
X123424999Y-106623399D01*
X123425000Y-106623398D01*
X123425000Y-106023400D01*
X124225000Y-106023400D01*
X124225000Y-106623399D01*
X124349972Y-106623399D01*
X124349986Y-106623398D01*
X124452697Y-106612905D01*
X124619119Y-106557758D01*
X124619124Y-106557756D01*
X124768345Y-106465715D01*
X124892315Y-106341745D01*
X124959605Y-106232651D01*
X125574500Y-106232651D01*
X125590047Y-106330817D01*
X125602591Y-106355435D01*
X125650342Y-106449151D01*
X125650344Y-106449153D01*
X125650346Y-106449156D01*
X125744243Y-106543053D01*
X125744245Y-106543054D01*
X125744249Y-106543058D01*
X125862580Y-106603351D01*
X125862581Y-106603351D01*
X125862583Y-106603352D01*
X125862582Y-106603352D01*
X125960749Y-106618900D01*
X125960754Y-106618900D01*
X126376312Y-106618900D01*
X126443351Y-106638585D01*
X126463993Y-106655219D01*
X126996214Y-107187440D01*
X127003521Y-107195414D01*
X127027805Y-107224354D01*
X127027807Y-107224355D01*
X127027809Y-107224358D01*
X127027811Y-107224359D01*
X127027812Y-107224360D01*
X127060520Y-107243244D01*
X127069643Y-107249056D01*
X127086247Y-107260682D01*
X127100580Y-107270718D01*
X127100583Y-107270718D01*
X127105440Y-107272984D01*
X127122197Y-107279924D01*
X127127217Y-107281751D01*
X127127219Y-107281752D01*
X127164407Y-107288309D01*
X127174970Y-107290651D01*
X127211457Y-107300428D01*
X127249087Y-107297135D01*
X127259894Y-107296664D01*
X132302608Y-107296664D01*
X132313416Y-107297135D01*
X132351043Y-107300428D01*
X132387555Y-107290643D01*
X132398066Y-107288313D01*
X132435281Y-107281752D01*
X132435286Y-107281748D01*
X132440335Y-107279911D01*
X132457060Y-107272983D01*
X132461917Y-107270718D01*
X132461920Y-107270718D01*
X132492861Y-107249051D01*
X132501975Y-107243246D01*
X132534691Y-107224358D01*
X132539331Y-107218827D01*
X132597497Y-107180124D01*
X132650508Y-107175591D01*
X132715000Y-107184082D01*
X132715001Y-107184082D01*
X132779496Y-107175591D01*
X132871762Y-107163444D01*
X133017841Y-107102936D01*
X133143282Y-107006682D01*
X133184923Y-106952413D01*
X133241351Y-106911211D01*
X133283299Y-106903900D01*
X133509532Y-106903900D01*
X133576571Y-106923585D01*
X133612634Y-106959009D01*
X133641375Y-107002024D01*
X133677876Y-107026413D01*
X133732505Y-107062915D01*
X133732508Y-107062915D01*
X133732509Y-107062916D01*
X133772686Y-107070907D01*
X133812867Y-107078900D01*
X135687132Y-107078899D01*
X135767495Y-107062915D01*
X135858624Y-107002024D01*
X135919515Y-106910895D01*
X135919516Y-106910892D01*
X135923638Y-106900943D01*
X135967480Y-106846541D01*
X136033775Y-106824479D01*
X136038197Y-106824400D01*
X136825000Y-106824400D01*
X136825000Y-105073400D01*
X136040672Y-105073400D01*
X135973633Y-105053715D01*
X135927878Y-105000911D01*
X135920817Y-104979051D01*
X135919515Y-104975907D01*
X135919515Y-104975905D01*
X135899309Y-104945666D01*
X135858624Y-104884775D01*
X135793488Y-104841253D01*
X135767495Y-104823885D01*
X135767493Y-104823884D01*
X135767490Y-104823883D01*
X135687136Y-104807900D01*
X133812870Y-104807900D01*
X133732504Y-104823885D01*
X133641375Y-104884775D01*
X133612634Y-104927791D01*
X133559022Y-104972596D01*
X133509532Y-104982900D01*
X132734628Y-104982900D01*
X132723819Y-104982428D01*
X132686192Y-104979135D01*
X132686191Y-104979135D01*
X132649703Y-104988912D01*
X132639148Y-104991252D01*
X132601960Y-104997810D01*
X132596961Y-104999629D01*
X132580117Y-105006606D01*
X132575313Y-105008846D01*
X132544381Y-105030505D01*
X132535264Y-105036314D01*
X132502548Y-105055204D01*
X132502540Y-105055210D01*
X132478262Y-105084143D01*
X132470956Y-105092116D01*
X131981493Y-105581581D01*
X131920170Y-105615066D01*
X131893812Y-105617900D01*
X131699747Y-105617900D01*
X131632708Y-105598215D01*
X131589262Y-105550195D01*
X131585646Y-105543098D01*
X131585646Y-105543096D01*
X131528050Y-105430058D01*
X131528048Y-105430056D01*
X131528045Y-105430052D01*
X131438347Y-105340354D01*
X131438344Y-105340352D01*
X131438342Y-105340350D01*
X131361517Y-105301205D01*
X131325301Y-105282752D01*
X131231524Y-105267900D01*
X130768482Y-105267900D01*
X130694731Y-105279581D01*
X130674696Y-105282754D01*
X130561658Y-105340350D01*
X130561657Y-105340351D01*
X130561652Y-105340354D01*
X130471954Y-105430052D01*
X130471952Y-105430056D01*
X130471950Y-105430058D01*
X130452751Y-105467737D01*
X130414352Y-105543098D01*
X130399500Y-105636875D01*
X130399500Y-106249917D01*
X130405786Y-106289606D01*
X130414354Y-106343704D01*
X130468825Y-106450609D01*
X130476346Y-106465369D01*
X130489242Y-106534039D01*
X130462966Y-106598779D01*
X130405859Y-106639036D01*
X130365861Y-106645664D01*
X129984139Y-106645664D01*
X129917100Y-106625979D01*
X129871345Y-106573175D01*
X129861401Y-106504017D01*
X129873654Y-106465369D01*
X129881915Y-106449156D01*
X129935646Y-106343704D01*
X129935646Y-106343702D01*
X129935647Y-106343701D01*
X129947494Y-106268900D01*
X129950500Y-106249919D01*
X129950499Y-105636882D01*
X129935646Y-105543096D01*
X129878050Y-105430058D01*
X129878046Y-105430054D01*
X129878045Y-105430052D01*
X129788347Y-105340354D01*
X129788344Y-105340352D01*
X129788342Y-105340350D01*
X129711517Y-105301205D01*
X129675301Y-105282752D01*
X129581524Y-105267900D01*
X129118482Y-105267900D01*
X129044731Y-105279581D01*
X129024696Y-105282754D01*
X128911658Y-105340350D01*
X128911657Y-105340351D01*
X128911652Y-105340354D01*
X128821954Y-105430052D01*
X128821952Y-105430056D01*
X128821950Y-105430058D01*
X128796015Y-105480958D01*
X128760737Y-105550195D01*
X128712762Y-105600991D01*
X128650252Y-105617900D01*
X128517488Y-105617900D01*
X128450449Y-105598215D01*
X128407003Y-105550195D01*
X128403387Y-105543098D01*
X128349658Y-105437649D01*
X128349654Y-105437645D01*
X128349653Y-105437643D01*
X128255756Y-105343746D01*
X128255753Y-105343744D01*
X128255751Y-105343742D01*
X128137420Y-105283449D01*
X128137419Y-105283448D01*
X128137416Y-105283447D01*
X128137417Y-105283447D01*
X128039251Y-105267900D01*
X128039246Y-105267900D01*
X127535754Y-105267900D01*
X127535749Y-105267900D01*
X127437582Y-105283447D01*
X127358692Y-105323644D01*
X127319249Y-105343742D01*
X127319248Y-105343743D01*
X127319243Y-105343746D01*
X127225346Y-105437643D01*
X127225343Y-105437648D01*
X127165047Y-105555982D01*
X127149500Y-105654148D01*
X127149500Y-106120712D01*
X127129815Y-106187751D01*
X127077011Y-106233506D01*
X127007853Y-106243450D01*
X126944297Y-106214425D01*
X126937819Y-106208393D01*
X126886819Y-106157393D01*
X126853334Y-106096070D01*
X126850500Y-106069712D01*
X126850500Y-105654148D01*
X126834952Y-105555982D01*
X126828386Y-105543096D01*
X126774658Y-105437649D01*
X126774654Y-105437645D01*
X126774653Y-105437643D01*
X126680756Y-105343746D01*
X126680752Y-105343743D01*
X126680751Y-105343742D01*
X126657282Y-105331784D01*
X126605704Y-105305503D01*
X126554909Y-105257529D01*
X126538000Y-105195019D01*
X126538000Y-104151780D01*
X126557685Y-104084741D01*
X126605702Y-104041297D01*
X126680751Y-104003058D01*
X126774658Y-103909151D01*
X126834951Y-103790820D01*
X126834951Y-103790818D01*
X126834952Y-103790817D01*
X126850500Y-103692651D01*
X127149500Y-103692651D01*
X127165047Y-103790817D01*
X127177390Y-103815041D01*
X127225342Y-103909151D01*
X127225344Y-103909153D01*
X127225346Y-103909156D01*
X127319243Y-104003053D01*
X127319245Y-104003054D01*
X127319249Y-104003058D01*
X127437580Y-104063351D01*
X127437581Y-104063351D01*
X127437583Y-104063352D01*
X127437582Y-104063352D01*
X127535749Y-104078900D01*
X127535754Y-104078900D01*
X128039251Y-104078900D01*
X128137417Y-104063352D01*
X128137418Y-104063351D01*
X128137420Y-104063351D01*
X128255751Y-104003058D01*
X128349658Y-103909151D01*
X128407003Y-103796604D01*
X128454978Y-103745809D01*
X128517488Y-103728900D01*
X128650253Y-103728900D01*
X128717292Y-103748585D01*
X128760738Y-103796605D01*
X128764353Y-103803700D01*
X128764354Y-103803704D01*
X128818085Y-103909156D01*
X128821951Y-103916743D01*
X128821954Y-103916747D01*
X128911652Y-104006445D01*
X128911654Y-104006446D01*
X128911658Y-104006450D01*
X129023332Y-104063351D01*
X129024698Y-104064047D01*
X129118475Y-104078899D01*
X129118481Y-104078900D01*
X129581518Y-104078899D01*
X129675304Y-104064046D01*
X129788342Y-104006450D01*
X129878050Y-103916742D01*
X129935646Y-103803704D01*
X129935646Y-103803702D01*
X129935647Y-103803701D01*
X129950499Y-103709924D01*
X129950500Y-103709919D01*
X129950499Y-103096882D01*
X129935646Y-103003096D01*
X129878050Y-102890058D01*
X129878046Y-102890054D01*
X129878045Y-102890052D01*
X129788347Y-102800354D01*
X129788344Y-102800352D01*
X129788342Y-102800350D01*
X129697919Y-102754277D01*
X129675301Y-102742752D01*
X129581524Y-102727900D01*
X129118482Y-102727900D01*
X129037519Y-102740723D01*
X129024696Y-102742754D01*
X128911658Y-102800350D01*
X128911657Y-102800351D01*
X128911652Y-102800354D01*
X128821954Y-102890052D01*
X128821952Y-102890056D01*
X128821950Y-102890058D01*
X128769946Y-102992121D01*
X128760737Y-103010195D01*
X128712762Y-103060991D01*
X128650252Y-103077900D01*
X128517488Y-103077900D01*
X128450449Y-103058215D01*
X128407003Y-103010195D01*
X128349658Y-102897649D01*
X128349654Y-102897645D01*
X128349653Y-102897643D01*
X128255756Y-102803746D01*
X128255753Y-102803744D01*
X128255751Y-102803742D01*
X128137420Y-102743449D01*
X128137419Y-102743448D01*
X128137416Y-102743447D01*
X128137417Y-102743447D01*
X128039251Y-102727900D01*
X128039246Y-102727900D01*
X127535754Y-102727900D01*
X127535749Y-102727900D01*
X127437582Y-102743447D01*
X127365060Y-102780400D01*
X127319249Y-102803742D01*
X127319248Y-102803743D01*
X127319243Y-102803746D01*
X127225346Y-102897643D01*
X127225343Y-102897648D01*
X127225342Y-102897649D01*
X127211323Y-102925162D01*
X127165047Y-103015982D01*
X127149500Y-103114148D01*
X127149500Y-103692651D01*
X126850500Y-103692651D01*
X126850500Y-103114148D01*
X126834952Y-103015982D01*
X126822563Y-102991667D01*
X126774658Y-102897649D01*
X126774654Y-102897645D01*
X126774653Y-102897643D01*
X126680756Y-102803746D01*
X126680753Y-102803744D01*
X126680751Y-102803742D01*
X126562420Y-102743449D01*
X126562419Y-102743448D01*
X126562416Y-102743447D01*
X126562417Y-102743447D01*
X126464251Y-102727900D01*
X126464246Y-102727900D01*
X125960754Y-102727900D01*
X125960749Y-102727900D01*
X125862582Y-102743447D01*
X125790060Y-102780400D01*
X125744249Y-102803742D01*
X125744248Y-102803743D01*
X125744243Y-102803746D01*
X125650346Y-102897643D01*
X125650343Y-102897648D01*
X125650342Y-102897649D01*
X125636323Y-102925162D01*
X125590047Y-103015982D01*
X125574500Y-103114148D01*
X125574500Y-103692651D01*
X125590047Y-103790817D01*
X125602390Y-103815041D01*
X125650342Y-103909151D01*
X125650344Y-103909153D01*
X125650346Y-103909156D01*
X125744243Y-104003053D01*
X125744247Y-104003056D01*
X125744249Y-104003058D01*
X125819297Y-104041297D01*
X125870091Y-104089269D01*
X125887000Y-104151780D01*
X125887000Y-105195019D01*
X125867315Y-105262058D01*
X125819296Y-105305503D01*
X125744250Y-105343741D01*
X125744243Y-105343746D01*
X125650346Y-105437643D01*
X125650343Y-105437648D01*
X125590047Y-105555982D01*
X125574500Y-105654148D01*
X125574500Y-106232651D01*
X124959605Y-106232651D01*
X124984356Y-106192524D01*
X124984358Y-106192519D01*
X125039504Y-106026101D01*
X125039505Y-106026094D01*
X125039781Y-106023400D01*
X124225000Y-106023400D01*
X123425000Y-106023400D01*
X122610219Y-106023400D01*
X120655743Y-106023400D01*
X120650765Y-105947442D01*
X120650500Y-105939334D01*
X120650500Y-105223400D01*
X122610219Y-105223400D01*
X125039780Y-105223400D01*
X125039505Y-105220705D01*
X125039504Y-105220698D01*
X124984358Y-105054280D01*
X124984356Y-105054275D01*
X124892315Y-104905054D01*
X124768345Y-104781084D01*
X124619124Y-104689043D01*
X124619119Y-104689041D01*
X124450917Y-104633305D01*
X124393472Y-104593533D01*
X124366649Y-104529017D01*
X124378964Y-104460241D01*
X124426507Y-104409041D01*
X124448966Y-104398558D01*
X124448972Y-104398556D01*
X124512882Y-104376193D01*
X124622150Y-104295550D01*
X124702793Y-104186282D01*
X124725219Y-104122190D01*
X124747646Y-104058101D01*
X124747646Y-104058099D01*
X124750500Y-104027669D01*
X124750500Y-103419130D01*
X124747646Y-103388700D01*
X124747646Y-103388698D01*
X124705726Y-103268900D01*
X124702793Y-103260518D01*
X124622150Y-103151250D01*
X124512882Y-103070607D01*
X124512880Y-103070606D01*
X124384700Y-103025753D01*
X124354270Y-103022900D01*
X124354266Y-103022900D01*
X124294833Y-103022900D01*
X124227794Y-103003215D01*
X124182039Y-102950411D01*
X124172095Y-102881253D01*
X124201120Y-102817697D01*
X124207152Y-102811219D01*
X124637973Y-102380398D01*
X125956275Y-101062094D01*
X126017596Y-101028611D01*
X126087287Y-101033595D01*
X126113804Y-101047323D01*
X126147366Y-101070205D01*
X126147370Y-101070206D01*
X126147373Y-101070209D01*
X126228342Y-101109201D01*
X126376992Y-101180787D01*
X126376993Y-101180787D01*
X126376996Y-101180789D01*
X126620542Y-101255913D01*
X126872565Y-101293900D01*
X127127435Y-101293900D01*
X127379458Y-101255913D01*
X127623004Y-101180789D01*
X127852634Y-101070205D01*
X128063217Y-100926632D01*
X128250050Y-100753277D01*
X128408959Y-100554012D01*
X128536393Y-100333288D01*
X128629508Y-100096037D01*
X128643620Y-100034208D01*
X128653641Y-99990307D01*
X128687750Y-99929329D01*
X128749412Y-99896471D01*
X128774532Y-99893900D01*
X129364167Y-99893900D01*
X129431206Y-99913585D01*
X129451848Y-99930219D01*
X132087101Y-102565472D01*
X132120586Y-102626795D01*
X132122359Y-102669338D01*
X132109318Y-102768398D01*
X132109318Y-102768400D01*
X132125334Y-102890058D01*
X132131017Y-102933220D01*
X132128780Y-102933514D01*
X132127391Y-102991667D01*
X132088223Y-103049526D01*
X132023992Y-103077024D01*
X132009282Y-103077900D01*
X131699747Y-103077900D01*
X131632708Y-103058215D01*
X131589262Y-103010195D01*
X131585646Y-103003098D01*
X131585646Y-103003096D01*
X131528050Y-102890058D01*
X131528048Y-102890056D01*
X131528045Y-102890052D01*
X131438347Y-102800354D01*
X131438344Y-102800352D01*
X131438342Y-102800350D01*
X131347919Y-102754277D01*
X131325301Y-102742752D01*
X131231524Y-102727900D01*
X130768482Y-102727900D01*
X130687519Y-102740723D01*
X130674696Y-102742754D01*
X130561658Y-102800350D01*
X130561657Y-102800351D01*
X130561652Y-102800354D01*
X130471954Y-102890052D01*
X130471952Y-102890056D01*
X130471950Y-102890058D01*
X130467445Y-102898900D01*
X130414352Y-103003098D01*
X130399500Y-103096875D01*
X130399500Y-103709917D01*
X130405786Y-103749606D01*
X130414354Y-103803704D01*
X130471950Y-103916742D01*
X130471952Y-103916744D01*
X130471954Y-103916747D01*
X130561652Y-104006445D01*
X130561654Y-104006446D01*
X130561658Y-104006450D01*
X130673332Y-104063351D01*
X130674698Y-104064047D01*
X130768475Y-104078899D01*
X130768481Y-104078900D01*
X131231518Y-104078899D01*
X131325304Y-104064046D01*
X131438342Y-104006450D01*
X131528050Y-103916742D01*
X131585646Y-103803704D01*
X131585646Y-103803703D01*
X131589263Y-103796605D01*
X131637238Y-103745809D01*
X131699748Y-103728900D01*
X131893812Y-103728900D01*
X131960851Y-103748585D01*
X131981493Y-103765219D01*
X132470950Y-104254676D01*
X132478257Y-104262650D01*
X132502541Y-104291590D01*
X132502543Y-104291591D01*
X132502545Y-104291594D01*
X132502547Y-104291595D01*
X132502548Y-104291596D01*
X132535256Y-104310480D01*
X132544379Y-104316292D01*
X132575313Y-104337952D01*
X132575316Y-104337954D01*
X132575319Y-104337954D01*
X132580176Y-104340220D01*
X132596933Y-104347160D01*
X132601953Y-104348987D01*
X132601955Y-104348988D01*
X132639143Y-104355545D01*
X132649706Y-104357887D01*
X132686193Y-104367664D01*
X132723823Y-104364371D01*
X132734630Y-104363900D01*
X133509532Y-104363900D01*
X133576571Y-104383585D01*
X133612634Y-104419009D01*
X133641375Y-104462024D01*
X133665775Y-104478327D01*
X133732505Y-104522915D01*
X133732508Y-104522915D01*
X133732509Y-104522916D01*
X133763182Y-104529017D01*
X133812867Y-104538900D01*
X135687132Y-104538899D01*
X135767495Y-104522915D01*
X135858624Y-104462024D01*
X135919515Y-104370895D01*
X135919516Y-104370888D01*
X135924190Y-104359609D01*
X135925816Y-104360282D01*
X135951436Y-104311302D01*
X136012150Y-104276725D01*
X136040672Y-104273400D01*
X136825000Y-104273400D01*
X136825000Y-102522400D01*
X136038196Y-102522400D01*
X135971157Y-102502715D01*
X135925402Y-102449911D01*
X135923635Y-102445852D01*
X135919515Y-102435905D01*
X135858624Y-102344775D01*
X135803995Y-102308274D01*
X135767495Y-102283885D01*
X135767493Y-102283884D01*
X135767490Y-102283883D01*
X135687136Y-102267900D01*
X133812870Y-102267900D01*
X133732504Y-102283885D01*
X133641376Y-102344775D01*
X133632606Y-102357901D01*
X133595928Y-102412791D01*
X133542319Y-102457596D01*
X133492828Y-102467900D01*
X133302482Y-102467900D01*
X133235443Y-102448215D01*
X133204106Y-102419386D01*
X133143283Y-102340119D01*
X133143282Y-102340118D01*
X133017841Y-102243864D01*
X133016153Y-102243165D01*
X132871762Y-102183356D01*
X132871760Y-102183355D01*
X132715001Y-102162718D01*
X132714999Y-102162718D01*
X132615938Y-102175759D01*
X132546902Y-102164993D01*
X132512072Y-102140501D01*
X129799962Y-99428391D01*
X129788687Y-99415435D01*
X129783955Y-99409168D01*
X129749683Y-99377925D01*
X129745560Y-99373989D01*
X129732797Y-99361226D01*
X129732796Y-99361225D01*
X129732794Y-99361223D01*
X129729077Y-99358137D01*
X129720679Y-99351484D01*
X129700933Y-99333484D01*
X129694470Y-99330980D01*
X129669192Y-99317656D01*
X129663481Y-99313744D01*
X129663478Y-99313743D01*
X129663479Y-99313743D01*
X129637483Y-99307628D01*
X129621089Y-99302551D01*
X129596174Y-99292900D01*
X129596173Y-99292900D01*
X129589249Y-99292900D01*
X129560858Y-99289606D01*
X129554119Y-99288021D01*
X129527666Y-99291711D01*
X129510536Y-99292900D01*
X128774532Y-99292900D01*
X128707493Y-99273215D01*
X128661738Y-99220411D01*
X128653641Y-99196493D01*
X128632940Y-99105801D01*
X128629508Y-99090763D01*
X128536393Y-98853512D01*
X128408959Y-98632788D01*
X128250050Y-98433523D01*
X128063217Y-98260168D01*
X127852634Y-98116595D01*
X127852630Y-98116593D01*
X127852627Y-98116591D01*
X127852626Y-98116590D01*
X127623006Y-98006012D01*
X127623008Y-98006012D01*
X127379466Y-97930889D01*
X127379462Y-97930888D01*
X127379458Y-97930887D01*
X127258231Y-97912614D01*
X127127440Y-97892900D01*
X127127435Y-97892900D01*
X126872565Y-97892900D01*
X126872559Y-97892900D01*
X126715609Y-97916557D01*
X126620542Y-97930887D01*
X126620539Y-97930888D01*
X126620533Y-97930889D01*
X126376992Y-98006012D01*
X126147373Y-98116590D01*
X126147372Y-98116591D01*
X125936782Y-98260168D01*
X125749952Y-98433521D01*
X125749950Y-98433523D01*
X125591041Y-98632788D01*
X125463608Y-98853509D01*
X125370492Y-99090762D01*
X125370490Y-99090769D01*
X125313777Y-99339245D01*
X125294732Y-99593395D01*
X125294732Y-99593404D01*
X125313777Y-99847554D01*
X125370490Y-100096030D01*
X125370492Y-100096037D01*
X125463607Y-100333288D01*
X125552023Y-100486431D01*
X125568495Y-100554331D01*
X125545642Y-100620358D01*
X125532316Y-100636111D01*
X123659986Y-102508441D01*
X123647035Y-102519712D01*
X123640767Y-102524444D01*
X123609522Y-102558718D01*
X123605574Y-102562853D01*
X123592827Y-102575600D01*
X123589746Y-102579311D01*
X123583085Y-102587719D01*
X123565083Y-102607466D01*
X123565083Y-102607467D01*
X123562578Y-102613933D01*
X123549259Y-102639202D01*
X123545345Y-102644915D01*
X123545343Y-102644920D01*
X123539228Y-102670917D01*
X123534151Y-102687313D01*
X123524500Y-102712226D01*
X123524500Y-102719151D01*
X123521206Y-102747541D01*
X123519621Y-102754277D01*
X123519621Y-102754282D01*
X123523311Y-102780733D01*
X123524500Y-102797864D01*
X123524500Y-102898900D01*
X123504815Y-102965939D01*
X123452011Y-103011694D01*
X123400500Y-103022900D01*
X123295730Y-103022900D01*
X123265300Y-103025753D01*
X123265298Y-103025753D01*
X123137119Y-103070606D01*
X123137117Y-103070607D01*
X123027850Y-103151250D01*
X122947207Y-103260517D01*
X122947206Y-103260519D01*
X122902353Y-103388698D01*
X122902353Y-103388700D01*
X122899500Y-103419130D01*
X122899500Y-104027669D01*
X122902353Y-104058099D01*
X122902353Y-104058101D01*
X122935134Y-104151780D01*
X122947207Y-104186282D01*
X123027850Y-104295550D01*
X123137118Y-104376193D01*
X123201033Y-104398558D01*
X123257807Y-104439278D01*
X123283555Y-104504230D01*
X123270099Y-104572792D01*
X123221712Y-104623195D01*
X123199082Y-104633304D01*
X123030878Y-104689042D01*
X123030875Y-104689043D01*
X122881654Y-104781084D01*
X122757684Y-104905054D01*
X122665643Y-105054275D01*
X122665641Y-105054280D01*
X122610495Y-105220698D01*
X122610494Y-105220705D01*
X122610219Y-105223400D01*
X120650500Y-105223400D01*
X120650500Y-94513401D01*
X124994891Y-94513401D01*
X125015300Y-94798762D01*
X125076109Y-95078295D01*
X125176091Y-95346358D01*
X125313196Y-95597447D01*
X125329066Y-95618646D01*
X125329067Y-95618646D01*
X126259159Y-94688553D01*
X126266971Y-94732854D01*
X126337340Y-94895987D01*
X126443433Y-95038494D01*
X126579530Y-95152694D01*
X126738295Y-95232428D01*
X126825895Y-95253189D01*
X125894752Y-96184332D01*
X125915954Y-96200204D01*
X125915960Y-96200207D01*
X126167042Y-96337308D01*
X126167041Y-96337308D01*
X126435104Y-96437290D01*
X126714637Y-96498099D01*
X126999999Y-96518509D01*
X127000001Y-96518509D01*
X127285362Y-96498099D01*
X127564895Y-96437290D01*
X127832958Y-96337308D01*
X128084040Y-96200206D01*
X128105246Y-96184331D01*
X127178223Y-95257307D01*
X127343409Y-95197184D01*
X127491844Y-95099557D01*
X127613764Y-94970330D01*
X127702595Y-94816470D01*
X127740878Y-94688593D01*
X128670931Y-95618646D01*
X128686806Y-95597440D01*
X128823908Y-95346358D01*
X128923890Y-95078295D01*
X128984699Y-94798762D01*
X129005109Y-94513401D01*
X129005109Y-94513398D01*
X128984699Y-94228037D01*
X128923890Y-93948504D01*
X128823908Y-93680441D01*
X128686807Y-93429360D01*
X128686804Y-93429354D01*
X128670932Y-93408152D01*
X127740839Y-94338244D01*
X127733029Y-94293946D01*
X127662660Y-94130813D01*
X127556567Y-93988306D01*
X127420470Y-93874106D01*
X127261705Y-93794372D01*
X127174104Y-93773610D01*
X128105246Y-92842467D01*
X128105246Y-92842466D01*
X128084047Y-92826596D01*
X127832957Y-92689491D01*
X127832958Y-92689491D01*
X127564895Y-92589509D01*
X127285362Y-92528700D01*
X127000001Y-92508291D01*
X126999999Y-92508291D01*
X126714637Y-92528700D01*
X126435104Y-92589509D01*
X126167041Y-92689491D01*
X125915954Y-92826596D01*
X125894752Y-92842466D01*
X126821777Y-93769491D01*
X126656591Y-93829616D01*
X126508156Y-93927243D01*
X126386236Y-94056470D01*
X126297405Y-94210330D01*
X126259121Y-94338207D01*
X125329066Y-93408152D01*
X125313196Y-93429354D01*
X125176091Y-93680441D01*
X125076109Y-93948504D01*
X125015300Y-94228037D01*
X124994891Y-94513398D01*
X124994891Y-94513401D01*
X120650500Y-94513401D01*
X120650500Y-88163404D01*
X125294732Y-88163404D01*
X125313777Y-88417554D01*
X125370488Y-88666023D01*
X125370492Y-88666037D01*
X125463607Y-88903288D01*
X125591041Y-89124012D01*
X125749950Y-89323277D01*
X125936783Y-89496632D01*
X126147366Y-89640205D01*
X126147371Y-89640207D01*
X126147372Y-89640208D01*
X126147373Y-89640209D01*
X126218821Y-89674616D01*
X126376992Y-89750787D01*
X126376993Y-89750787D01*
X126376996Y-89750789D01*
X126620542Y-89825913D01*
X126872565Y-89863900D01*
X127127435Y-89863900D01*
X127379458Y-89825913D01*
X127623004Y-89750789D01*
X127852634Y-89640205D01*
X128063217Y-89496632D01*
X128250050Y-89323277D01*
X128408959Y-89124012D01*
X128536393Y-88903288D01*
X128629508Y-88666037D01*
X128647934Y-88585308D01*
X128682042Y-88524329D01*
X128743704Y-88491471D01*
X128768825Y-88488900D01*
X130623812Y-88488900D01*
X130690851Y-88508585D01*
X130711493Y-88525219D01*
X134258181Y-92071907D01*
X134291666Y-92133230D01*
X134294500Y-92159588D01*
X134294500Y-98690559D01*
X134274815Y-98757598D01*
X134222011Y-98803353D01*
X134215301Y-98806182D01*
X134196592Y-98813430D01*
X134103864Y-98849353D01*
X134103858Y-98849356D01*
X133922186Y-98961842D01*
X133922184Y-98961844D01*
X133764273Y-99105798D01*
X133635501Y-99276320D01*
X133635496Y-99276328D01*
X133540257Y-99467593D01*
X133540251Y-99467608D01*
X133481776Y-99673127D01*
X133481775Y-99673129D01*
X133467000Y-99832591D01*
X133467000Y-100034208D01*
X133481775Y-100193670D01*
X133481776Y-100193672D01*
X133540251Y-100399191D01*
X133540257Y-100399206D01*
X133635496Y-100590471D01*
X133635501Y-100590479D01*
X133764273Y-100761001D01*
X133922184Y-100904955D01*
X133922186Y-100904957D01*
X134103858Y-101017443D01*
X134103864Y-101017446D01*
X134132685Y-101028611D01*
X134303115Y-101094636D01*
X134513159Y-101133900D01*
X134513161Y-101133900D01*
X134726839Y-101133900D01*
X134726841Y-101133900D01*
X134936885Y-101094636D01*
X135136138Y-101017445D01*
X135317815Y-100904956D01*
X135475728Y-100760999D01*
X135604500Y-100590477D01*
X135612279Y-100574855D01*
X135659782Y-100523617D01*
X135727444Y-100506195D01*
X135793785Y-100528120D01*
X135836836Y-100580315D01*
X135878186Y-100674584D01*
X136009843Y-100876099D01*
X136009851Y-100876110D01*
X136172873Y-101053197D01*
X136172883Y-101053206D01*
X136362831Y-101201049D01*
X136362840Y-101201055D01*
X136574531Y-101315615D01*
X136574545Y-101315621D01*
X136760000Y-101379288D01*
X136760000Y-100310902D01*
X136809638Y-100364052D01*
X136938819Y-100442609D01*
X137084404Y-100483400D01*
X137197622Y-100483400D01*
X137309783Y-100467984D01*
X137448458Y-100407749D01*
X137560000Y-100317003D01*
X137560000Y-101379288D01*
X137745454Y-101315621D01*
X137745468Y-101315615D01*
X137957159Y-101201055D01*
X137957168Y-101201049D01*
X138147116Y-101053206D01*
X138147126Y-101053197D01*
X138310148Y-100876110D01*
X138310156Y-100876099D01*
X138441811Y-100674587D01*
X138483162Y-100580315D01*
X138528118Y-100526829D01*
X138594854Y-100506138D01*
X138662182Y-100524812D01*
X138707719Y-100574851D01*
X138715499Y-100590475D01*
X138715501Y-100590479D01*
X138844273Y-100761001D01*
X139002184Y-100904955D01*
X139002186Y-100904957D01*
X139037193Y-100926632D01*
X139183862Y-101017445D01*
X139295293Y-101060613D01*
X139350695Y-101103186D01*
X139374286Y-101168952D01*
X139374500Y-101176240D01*
X139374500Y-102143900D01*
X139354815Y-102210939D01*
X139302011Y-102256694D01*
X139250500Y-102267900D01*
X138762870Y-102267900D01*
X138682504Y-102283885D01*
X138591375Y-102344775D01*
X138530483Y-102435907D01*
X138526362Y-102445857D01*
X138482520Y-102500259D01*
X138416225Y-102522321D01*
X138411803Y-102522400D01*
X137625000Y-102522400D01*
X137625000Y-106824400D01*
X138104058Y-106824400D01*
X138171097Y-106844085D01*
X138216852Y-106896889D01*
X138226997Y-106932214D01*
X138229800Y-106953503D01*
X138229801Y-106953508D01*
X138287736Y-107093378D01*
X138379905Y-107213494D01*
X138500021Y-107305663D01*
X138639891Y-107363598D01*
X138639895Y-107363599D01*
X138752302Y-107378399D01*
X138752317Y-107378400D01*
X139400000Y-107378400D01*
X139400000Y-106878400D01*
X140000000Y-106878400D01*
X140000000Y-107378400D01*
X140647683Y-107378400D01*
X140647697Y-107378399D01*
X140760104Y-107363599D01*
X140760108Y-107363598D01*
X140899978Y-107305663D01*
X141020094Y-107213494D01*
X141112263Y-107093378D01*
X141137520Y-107032401D01*
X142975988Y-107032401D01*
X142983442Y-107089027D01*
X142983444Y-107089033D01*
X143043899Y-107234985D01*
X143140075Y-107360324D01*
X143265413Y-107456500D01*
X143411365Y-107516954D01*
X143411369Y-107516955D01*
X143498000Y-107528361D01*
X143498000Y-107528359D01*
X143898000Y-107528359D01*
X143898001Y-107528360D01*
X143984627Y-107516957D01*
X143984633Y-107516955D01*
X144130585Y-107456500D01*
X144255926Y-107360322D01*
X144316478Y-107281412D01*
X144372906Y-107240210D01*
X144414851Y-107232899D01*
X144512864Y-107232899D01*
X144512879Y-107232897D01*
X144512882Y-107232897D01*
X144537987Y-107229986D01*
X144537988Y-107229985D01*
X144537991Y-107229985D01*
X144640765Y-107184606D01*
X144640769Y-107184601D01*
X144648074Y-107179599D01*
X144714506Y-107157954D01*
X144718149Y-107157900D01*
X144973701Y-107157900D01*
X145040740Y-107177585D01*
X145072077Y-107206414D01*
X145104798Y-107249058D01*
X145113718Y-107260682D01*
X145239159Y-107356936D01*
X145385238Y-107417444D01*
X145422541Y-107422355D01*
X145541999Y-107438082D01*
X145542000Y-107438082D01*
X145542001Y-107438082D01*
X145594254Y-107431202D01*
X145698762Y-107417444D01*
X145844841Y-107356936D01*
X145970282Y-107260682D01*
X146066536Y-107135241D01*
X146127044Y-106989162D01*
X146147682Y-106832400D01*
X146145706Y-106817393D01*
X146131072Y-106706237D01*
X146127044Y-106675638D01*
X146066536Y-106529559D01*
X145970282Y-106404118D01*
X145844841Y-106307864D01*
X145800762Y-106289606D01*
X145698762Y-106247356D01*
X145698760Y-106247355D01*
X145542001Y-106226718D01*
X145541999Y-106226718D01*
X145385239Y-106247355D01*
X145385237Y-106247356D01*
X145239160Y-106307863D01*
X145113716Y-106404119D01*
X145072077Y-106458386D01*
X145015649Y-106499589D01*
X144973701Y-106506900D01*
X144718149Y-106506900D01*
X144651110Y-106487215D01*
X144648074Y-106485201D01*
X144640767Y-106480196D01*
X144640765Y-106480194D01*
X144573761Y-106450609D01*
X144537992Y-106434815D01*
X144512868Y-106431900D01*
X144414852Y-106431900D01*
X144347813Y-106412215D01*
X144316477Y-106383387D01*
X144278276Y-106333603D01*
X144253081Y-106268434D01*
X144267119Y-106199989D01*
X144312502Y-106151999D01*
X144334874Y-106138474D01*
X144334878Y-106138471D01*
X144455072Y-106018277D01*
X144543018Y-105872796D01*
X144593589Y-105710510D01*
X144593781Y-105708400D01*
X144100000Y-105708400D01*
X144100000Y-106202400D01*
X144080315Y-106269439D01*
X144027511Y-106315194D01*
X143976000Y-106326400D01*
X143898000Y-106326400D01*
X143898000Y-107528359D01*
X143498000Y-107528359D01*
X143498000Y-107032400D01*
X142975990Y-107032400D01*
X142975988Y-107032401D01*
X141137520Y-107032401D01*
X141170198Y-106953508D01*
X141170199Y-106953503D01*
X141180088Y-106878400D01*
X140000000Y-106878400D01*
X139400000Y-106878400D01*
X139400000Y-106402400D01*
X139419685Y-106335361D01*
X139472489Y-106289606D01*
X139524000Y-106278400D01*
X141180088Y-106278400D01*
X141180088Y-106278399D01*
X141170199Y-106203296D01*
X141170198Y-106203291D01*
X141112263Y-106063421D01*
X141020094Y-105943305D01*
X140906676Y-105856276D01*
X140865474Y-105799848D01*
X140861319Y-105730102D01*
X140895532Y-105669181D01*
X140957249Y-105636429D01*
X140982163Y-105633900D01*
X141350253Y-105633900D01*
X141417292Y-105653585D01*
X141460738Y-105701605D01*
X141464353Y-105708700D01*
X141464354Y-105708704D01*
X141515407Y-105808900D01*
X141521951Y-105821743D01*
X141521954Y-105821747D01*
X141611652Y-105911445D01*
X141611654Y-105911446D01*
X141611658Y-105911450D01*
X141724694Y-105969045D01*
X141724698Y-105969047D01*
X141818475Y-105983899D01*
X141818481Y-105983900D01*
X142281518Y-105983899D01*
X142375304Y-105969046D01*
X142488342Y-105911450D01*
X142578050Y-105821742D01*
X142602995Y-105772784D01*
X142650967Y-105721991D01*
X142718788Y-105705196D01*
X142784923Y-105727733D01*
X142828375Y-105782448D01*
X142831863Y-105792191D01*
X142856981Y-105872796D01*
X142944927Y-106018277D01*
X143065121Y-106138471D01*
X143065125Y-106138474D01*
X143084765Y-106150347D01*
X143131953Y-106201874D01*
X143143792Y-106270734D01*
X143118992Y-106331950D01*
X143043901Y-106429810D01*
X143043900Y-106429812D01*
X142983444Y-106575768D01*
X142975987Y-106632400D01*
X143498000Y-106632400D01*
X143498000Y-106326400D01*
X143424000Y-106326400D01*
X143356961Y-106306715D01*
X143311206Y-106253911D01*
X143300000Y-106202400D01*
X143300000Y-104362524D01*
X143299999Y-104362523D01*
X144100000Y-104362523D01*
X144100000Y-104908400D01*
X144593781Y-104908400D01*
X144593589Y-104906289D01*
X144543018Y-104744003D01*
X144484983Y-104648001D01*
X149886891Y-104648001D01*
X149907300Y-104933362D01*
X149968109Y-105212895D01*
X150068091Y-105480958D01*
X150205196Y-105732047D01*
X150221066Y-105753246D01*
X150221067Y-105753246D01*
X151151159Y-104823153D01*
X151158971Y-104867454D01*
X151229340Y-105030587D01*
X151335433Y-105173094D01*
X151471530Y-105287294D01*
X151630295Y-105367028D01*
X151717895Y-105387789D01*
X150786752Y-106318932D01*
X150807954Y-106334804D01*
X150807960Y-106334807D01*
X151059042Y-106471908D01*
X151059041Y-106471908D01*
X151327104Y-106571890D01*
X151606637Y-106632699D01*
X151891999Y-106653109D01*
X151892001Y-106653109D01*
X152177362Y-106632699D01*
X152456895Y-106571890D01*
X152724958Y-106471908D01*
X152976040Y-106334806D01*
X152997246Y-106318931D01*
X152070223Y-105391907D01*
X152235409Y-105331784D01*
X152383844Y-105234157D01*
X152505764Y-105104930D01*
X152594595Y-104951070D01*
X152632878Y-104823193D01*
X153562931Y-105753246D01*
X153578806Y-105732040D01*
X153715908Y-105480958D01*
X153815890Y-105212895D01*
X153876699Y-104933362D01*
X153897109Y-104648001D01*
X153897109Y-104647998D01*
X153876699Y-104362637D01*
X153815890Y-104083104D01*
X153715908Y-103815041D01*
X153578807Y-103563960D01*
X153578804Y-103563954D01*
X153562932Y-103542752D01*
X152632839Y-104472844D01*
X152625029Y-104428546D01*
X152554660Y-104265413D01*
X152448567Y-104122906D01*
X152312470Y-104008706D01*
X152153705Y-103928972D01*
X152066104Y-103908210D01*
X152997246Y-102977067D01*
X152997246Y-102977066D01*
X152976047Y-102961196D01*
X152724957Y-102824091D01*
X152724958Y-102824091D01*
X152456895Y-102724109D01*
X152177362Y-102663300D01*
X151892001Y-102642891D01*
X151891999Y-102642891D01*
X151606637Y-102663300D01*
X151327104Y-102724109D01*
X151059041Y-102824091D01*
X150807954Y-102961196D01*
X150786752Y-102977066D01*
X151713777Y-103904091D01*
X151548591Y-103964216D01*
X151400156Y-104061843D01*
X151278236Y-104191070D01*
X151189405Y-104344930D01*
X151151121Y-104472807D01*
X150221066Y-103542752D01*
X150205196Y-103563954D01*
X150068091Y-103815041D01*
X149968109Y-104083104D01*
X149907300Y-104362637D01*
X149886891Y-104647998D01*
X149886891Y-104648001D01*
X144484983Y-104648001D01*
X144455072Y-104598522D01*
X144334877Y-104478327D01*
X144189396Y-104390381D01*
X144189392Y-104390379D01*
X144100000Y-104362523D01*
X143299999Y-104362523D01*
X143210607Y-104390379D01*
X143210603Y-104390381D01*
X143065122Y-104478327D01*
X142944927Y-104598522D01*
X142856981Y-104744003D01*
X142831863Y-104824609D01*
X142793125Y-104882756D01*
X142729100Y-104910730D01*
X142660115Y-104899648D01*
X142608072Y-104853029D01*
X142603002Y-104844030D01*
X142578050Y-104795058D01*
X142578048Y-104795056D01*
X142578045Y-104795052D01*
X142488347Y-104705354D01*
X142488344Y-104705352D01*
X142488342Y-104705350D01*
X142411517Y-104666205D01*
X142375301Y-104647752D01*
X142281524Y-104632900D01*
X141818482Y-104632900D01*
X141737519Y-104645723D01*
X141724696Y-104647754D01*
X141611658Y-104705350D01*
X141611657Y-104705351D01*
X141611652Y-104705354D01*
X141521954Y-104795052D01*
X141521952Y-104795056D01*
X141521950Y-104795058D01*
X141465904Y-104905054D01*
X141460737Y-104915195D01*
X141412762Y-104965991D01*
X141350252Y-104982900D01*
X140982163Y-104982900D01*
X140915124Y-104963215D01*
X140869369Y-104910411D01*
X140859425Y-104841253D01*
X140888450Y-104777697D01*
X140906676Y-104760524D01*
X141020094Y-104673494D01*
X141112263Y-104553378D01*
X141170198Y-104413508D01*
X141170199Y-104413503D01*
X141180088Y-104338400D01*
X139524000Y-104338400D01*
X139456961Y-104318715D01*
X139411206Y-104265911D01*
X139400000Y-104214400D01*
X139400000Y-103862400D01*
X139419685Y-103795361D01*
X139472489Y-103749606D01*
X139524000Y-103738400D01*
X141180088Y-103738400D01*
X141180088Y-103738399D01*
X141170199Y-103663296D01*
X141170198Y-103663291D01*
X141112263Y-103523421D01*
X141020094Y-103403305D01*
X140906676Y-103316276D01*
X140865474Y-103259848D01*
X140861319Y-103190102D01*
X140895532Y-103129181D01*
X140957249Y-103096429D01*
X140982163Y-103093900D01*
X141036701Y-103093900D01*
X141103740Y-103113585D01*
X141135077Y-103142414D01*
X141173143Y-103192024D01*
X141176718Y-103196682D01*
X141302159Y-103292936D01*
X141448238Y-103353444D01*
X141526619Y-103363763D01*
X141604999Y-103374082D01*
X141605000Y-103374082D01*
X141605001Y-103374082D01*
X141674038Y-103364993D01*
X141761762Y-103353444D01*
X141907841Y-103292936D01*
X142033282Y-103196682D01*
X142129536Y-103071241D01*
X142176276Y-102958401D01*
X142904318Y-102958401D01*
X142924955Y-103115160D01*
X142924956Y-103115162D01*
X142985164Y-103260518D01*
X142985464Y-103261241D01*
X143081718Y-103386682D01*
X143207159Y-103482936D01*
X143353238Y-103543444D01*
X143431619Y-103553763D01*
X143509999Y-103564082D01*
X143510000Y-103564082D01*
X143510001Y-103564082D01*
X143587454Y-103553885D01*
X143666762Y-103543444D01*
X143812841Y-103482936D01*
X143938282Y-103386682D01*
X143958990Y-103359693D01*
X144015416Y-103318491D01*
X144085162Y-103314334D01*
X144146083Y-103348545D01*
X144167850Y-103378882D01*
X144176950Y-103396742D01*
X144176954Y-103396747D01*
X144266652Y-103486445D01*
X144266654Y-103486446D01*
X144266658Y-103486450D01*
X144367634Y-103537900D01*
X144379698Y-103544047D01*
X144473475Y-103558899D01*
X144473481Y-103558900D01*
X145086518Y-103558899D01*
X145180304Y-103544046D01*
X145293342Y-103486450D01*
X145383050Y-103396742D01*
X145440646Y-103283704D01*
X145440646Y-103283702D01*
X145440647Y-103283701D01*
X145454429Y-103196680D01*
X145455500Y-103189919D01*
X145455499Y-103085833D01*
X145475183Y-103018796D01*
X145527987Y-102973041D01*
X145597145Y-102963097D01*
X145660701Y-102992121D01*
X145677875Y-103010348D01*
X145776075Y-103138324D01*
X145901414Y-103234500D01*
X146047366Y-103294955D01*
X146047372Y-103294957D01*
X146103998Y-103302411D01*
X146104000Y-103302410D01*
X146104000Y-102780400D01*
X146504000Y-102780400D01*
X146504000Y-103302410D01*
X146504001Y-103302411D01*
X146560627Y-103294957D01*
X146560633Y-103294955D01*
X146706585Y-103234500D01*
X146831924Y-103138324D01*
X146928100Y-103012986D01*
X146988554Y-102867034D01*
X146988555Y-102867030D01*
X146999961Y-102780400D01*
X146504000Y-102780400D01*
X146104000Y-102780400D01*
X146104000Y-102504400D01*
X146123685Y-102437361D01*
X146176489Y-102391606D01*
X146228000Y-102380400D01*
X146999959Y-102380400D01*
X146999960Y-102380398D01*
X146988557Y-102293772D01*
X146988555Y-102293766D01*
X146928100Y-102147814D01*
X146831922Y-102022473D01*
X146753012Y-101961922D01*
X146711810Y-101905494D01*
X146704499Y-101863547D01*
X146704499Y-101765543D01*
X146704499Y-101765536D01*
X146704497Y-101765517D01*
X146701586Y-101740412D01*
X146701585Y-101740410D01*
X146701585Y-101740409D01*
X146656206Y-101637635D01*
X146576765Y-101558194D01*
X146535374Y-101539918D01*
X146473992Y-101512815D01*
X146448868Y-101509900D01*
X146448865Y-101509900D01*
X146385188Y-101509900D01*
X146318149Y-101490215D01*
X146297507Y-101473581D01*
X145916044Y-101092118D01*
X145908734Y-101084141D01*
X145884456Y-101055207D01*
X145884455Y-101055206D01*
X145851734Y-101036314D01*
X145842616Y-101030504D01*
X145811684Y-101008846D01*
X145806861Y-101006597D01*
X145790055Y-100999635D01*
X145785042Y-100997811D01*
X145747852Y-100991252D01*
X145737298Y-100988912D01*
X145700808Y-100979135D01*
X145663181Y-100982428D01*
X145652372Y-100982900D01*
X145516533Y-100982900D01*
X145449494Y-100963215D01*
X145406049Y-100915196D01*
X145398933Y-100901231D01*
X145383543Y-100871026D01*
X145370647Y-100802360D01*
X145396922Y-100737620D01*
X145406347Y-100727051D01*
X145435000Y-100698398D01*
X145435000Y-99888400D01*
X146025000Y-99888400D01*
X146025000Y-100698400D01*
X146072828Y-100698400D01*
X146072844Y-100698399D01*
X146132372Y-100691998D01*
X146132379Y-100691996D01*
X146267086Y-100641754D01*
X146267093Y-100641750D01*
X146382187Y-100555590D01*
X146382190Y-100555587D01*
X146468350Y-100440493D01*
X146468354Y-100440486D01*
X146518596Y-100305779D01*
X146518598Y-100305772D01*
X146524999Y-100246244D01*
X146525000Y-100246227D01*
X146525000Y-99888400D01*
X146025000Y-99888400D01*
X145435000Y-99888400D01*
X145435000Y-99568004D01*
X150186732Y-99568004D01*
X150205777Y-99822154D01*
X150262488Y-100070623D01*
X150262492Y-100070637D01*
X150355607Y-100307888D01*
X150483041Y-100528612D01*
X150641950Y-100727877D01*
X150828783Y-100901232D01*
X151039366Y-101044805D01*
X151039371Y-101044807D01*
X151039372Y-101044808D01*
X151039373Y-101044809D01*
X151137612Y-101092118D01*
X151268992Y-101155387D01*
X151268993Y-101155387D01*
X151268996Y-101155389D01*
X151512542Y-101230513D01*
X151764565Y-101268500D01*
X152019435Y-101268500D01*
X152271458Y-101230513D01*
X152515004Y-101155389D01*
X152727208Y-101053197D01*
X152744626Y-101044809D01*
X152744626Y-101044808D01*
X152744634Y-101044805D01*
X152955217Y-100901232D01*
X153142050Y-100727877D01*
X153300959Y-100528612D01*
X153428393Y-100307888D01*
X153521508Y-100070637D01*
X153539934Y-99989908D01*
X153574042Y-99928929D01*
X153635704Y-99896071D01*
X153660825Y-99893500D01*
X154412372Y-99893500D01*
X154423180Y-99893971D01*
X154460807Y-99897264D01*
X154497319Y-99887479D01*
X154507830Y-99885149D01*
X154545045Y-99878588D01*
X154545050Y-99878584D01*
X154550099Y-99876747D01*
X154566824Y-99869819D01*
X154571681Y-99867554D01*
X154571684Y-99867554D01*
X154602625Y-99845887D01*
X154611744Y-99840079D01*
X154644455Y-99821194D01*
X154644457Y-99821192D01*
X154668736Y-99792256D01*
X154676036Y-99784288D01*
X156680290Y-97780034D01*
X156688243Y-97772746D01*
X156717194Y-97748455D01*
X156736082Y-97715739D01*
X156741887Y-97706625D01*
X156763554Y-97675684D01*
X156763554Y-97675681D01*
X156765819Y-97670824D01*
X156772747Y-97654099D01*
X156774584Y-97649050D01*
X156774588Y-97649045D01*
X156781149Y-97611830D01*
X156783479Y-97601319D01*
X156793264Y-97564807D01*
X156789971Y-97527180D01*
X156789500Y-97516372D01*
X156789500Y-94599026D01*
X156789972Y-94588217D01*
X156793264Y-94550593D01*
X156790545Y-94540446D01*
X156783478Y-94514075D01*
X156781150Y-94503573D01*
X156774588Y-94466355D01*
X156774585Y-94466349D01*
X156772760Y-94461333D01*
X156765820Y-94444576D01*
X156763554Y-94439719D01*
X156763554Y-94439716D01*
X156748760Y-94418588D01*
X156741892Y-94408779D01*
X156736080Y-94399656D01*
X156717196Y-94366948D01*
X156717191Y-94366942D01*
X156688255Y-94342662D01*
X156680280Y-94335354D01*
X155996006Y-93651080D01*
X155962521Y-93589757D01*
X155967505Y-93520065D01*
X155996002Y-93475723D01*
X156431291Y-93040433D01*
X156439243Y-93033146D01*
X156468194Y-93008855D01*
X156487082Y-92976139D01*
X156492887Y-92967025D01*
X156514554Y-92936084D01*
X156514554Y-92936081D01*
X156516819Y-92931224D01*
X156523747Y-92914499D01*
X156525584Y-92909450D01*
X156525588Y-92909445D01*
X156532149Y-92872230D01*
X156534479Y-92861719D01*
X156544264Y-92825207D01*
X156540972Y-92787577D01*
X156540500Y-92776769D01*
X156540500Y-91412983D01*
X156560185Y-91345944D01*
X156612989Y-91300189D01*
X156617049Y-91298421D01*
X156618945Y-91297634D01*
X156618954Y-91297632D01*
X156801450Y-91200085D01*
X156961410Y-91068810D01*
X157092685Y-90908850D01*
X157190232Y-90726354D01*
X157250300Y-90528334D01*
X157270583Y-90322400D01*
X157250300Y-90116466D01*
X157190232Y-89918446D01*
X157092685Y-89735950D01*
X156987053Y-89607236D01*
X156961410Y-89575989D01*
X156843677Y-89479369D01*
X156801450Y-89444715D01*
X156618954Y-89347168D01*
X156420934Y-89287100D01*
X156420932Y-89287099D01*
X156420934Y-89287099D01*
X156215000Y-89266817D01*
X156009067Y-89287099D01*
X155811043Y-89347169D01*
X155700898Y-89406043D01*
X155628550Y-89444715D01*
X155628548Y-89444716D01*
X155628547Y-89444717D01*
X155468589Y-89575989D01*
X155337317Y-89735947D01*
X155337315Y-89735950D01*
X155309622Y-89787758D01*
X155239767Y-89918446D01*
X155219593Y-89984952D01*
X155181296Y-90043390D01*
X155117483Y-90071847D01*
X155048416Y-90061286D01*
X154996023Y-90015061D01*
X154981158Y-89981049D01*
X154948433Y-89858916D01*
X154948429Y-89858907D01*
X154848600Y-89644822D01*
X154848599Y-89644820D01*
X154713113Y-89451326D01*
X154713108Y-89451320D01*
X154546082Y-89284294D01*
X154352578Y-89148799D01*
X154138490Y-89048968D01*
X154138487Y-89048967D01*
X154075000Y-89031955D01*
X154075000Y-90019982D01*
X154056761Y-89991602D01*
X153948100Y-89897448D01*
X153817315Y-89837720D01*
X153710763Y-89822400D01*
X153639237Y-89822400D01*
X153532685Y-89837720D01*
X153401900Y-89897448D01*
X153293239Y-89991602D01*
X153215507Y-90112556D01*
X153175000Y-90250511D01*
X153175000Y-90394289D01*
X153215507Y-90532244D01*
X153293239Y-90653198D01*
X153401900Y-90747352D01*
X153532685Y-90807080D01*
X153639237Y-90822400D01*
X153710763Y-90822400D01*
X153817315Y-90807080D01*
X153948100Y-90747352D01*
X154056761Y-90653198D01*
X154075000Y-90624817D01*
X154075000Y-91612843D01*
X154138481Y-91595834D01*
X154138492Y-91595829D01*
X154352578Y-91496000D01*
X154546082Y-91360505D01*
X154713105Y-91193482D01*
X154848600Y-90999978D01*
X154948429Y-90785892D01*
X154948433Y-90785883D01*
X154981158Y-90663750D01*
X155017522Y-90604090D01*
X155080369Y-90573560D01*
X155149745Y-90581854D01*
X155203623Y-90626339D01*
X155219593Y-90659847D01*
X155239768Y-90726354D01*
X155337315Y-90908850D01*
X155337317Y-90908852D01*
X155468589Y-91068810D01*
X155534287Y-91122726D01*
X155628550Y-91200085D01*
X155811046Y-91297632D01*
X155811051Y-91297633D01*
X155812951Y-91298421D01*
X155813796Y-91299101D01*
X155816419Y-91300504D01*
X155816153Y-91301001D01*
X155867355Y-91342262D01*
X155889421Y-91408556D01*
X155889500Y-91412983D01*
X155889500Y-92610212D01*
X155869815Y-92677251D01*
X155853181Y-92697893D01*
X155349493Y-93201581D01*
X155288170Y-93235066D01*
X155261812Y-93237900D01*
X155189044Y-93237900D01*
X155122005Y-93218215D01*
X155101363Y-93201581D01*
X155023985Y-93124203D01*
X154918891Y-93072826D01*
X154850761Y-93062900D01*
X154850760Y-93062900D01*
X153759240Y-93062900D01*
X153759239Y-93062900D01*
X153691108Y-93072826D01*
X153586014Y-93124203D01*
X153503303Y-93206914D01*
X153451926Y-93312008D01*
X153442000Y-93380139D01*
X153442000Y-93746660D01*
X153451926Y-93814791D01*
X153503303Y-93919885D01*
X153586014Y-94002596D01*
X153586015Y-94002596D01*
X153586017Y-94002598D01*
X153691107Y-94053973D01*
X153708245Y-94056470D01*
X153759239Y-94063900D01*
X153759240Y-94063900D01*
X154850761Y-94063900D01*
X154873471Y-94060591D01*
X154918893Y-94053973D01*
X155023983Y-94002598D01*
X155062181Y-93964400D01*
X155101363Y-93925219D01*
X155162686Y-93891734D01*
X155189044Y-93888900D01*
X155261812Y-93888900D01*
X155328851Y-93908585D01*
X155349493Y-93925219D01*
X156102181Y-94677907D01*
X156135666Y-94739230D01*
X156138500Y-94765588D01*
X156138500Y-97349812D01*
X156118815Y-97416851D01*
X156102181Y-97437493D01*
X154333493Y-99206181D01*
X154272170Y-99239666D01*
X154245812Y-99242500D01*
X153660825Y-99242500D01*
X153593786Y-99222815D01*
X153548031Y-99170011D01*
X153539934Y-99146092D01*
X153521511Y-99065376D01*
X153521509Y-99065369D01*
X153521508Y-99065363D01*
X153428393Y-98828112D01*
X153300959Y-98607388D01*
X153142050Y-98408123D01*
X152955217Y-98234768D01*
X152744634Y-98091195D01*
X152744630Y-98091193D01*
X152744627Y-98091191D01*
X152744626Y-98091190D01*
X152515006Y-97980612D01*
X152515008Y-97980612D01*
X152271466Y-97905489D01*
X152271462Y-97905488D01*
X152271458Y-97905487D01*
X152150231Y-97887214D01*
X152019440Y-97867500D01*
X152019435Y-97867500D01*
X151764565Y-97867500D01*
X151764559Y-97867500D01*
X151607609Y-97891157D01*
X151512542Y-97905487D01*
X151512539Y-97905488D01*
X151512533Y-97905489D01*
X151268992Y-97980612D01*
X151039373Y-98091190D01*
X151039372Y-98091191D01*
X150828782Y-98234768D01*
X150641952Y-98408121D01*
X150641950Y-98408123D01*
X150483041Y-98607388D01*
X150355608Y-98828109D01*
X150262492Y-99065362D01*
X150262490Y-99065369D01*
X150205777Y-99313845D01*
X150186732Y-99567995D01*
X150186732Y-99568004D01*
X145435000Y-99568004D01*
X145435000Y-98488400D01*
X146025000Y-98488400D01*
X146025000Y-99298400D01*
X146525000Y-99298400D01*
X146525000Y-98940572D01*
X146524999Y-98940555D01*
X146518598Y-98881027D01*
X146518596Y-98881020D01*
X146468354Y-98746313D01*
X146468350Y-98746306D01*
X146382190Y-98631212D01*
X146382187Y-98631209D01*
X146267093Y-98545049D01*
X146267086Y-98545045D01*
X146132379Y-98494803D01*
X146132372Y-98494801D01*
X146072844Y-98488400D01*
X146025000Y-98488400D01*
X145435000Y-98488400D01*
X145387155Y-98488400D01*
X145327627Y-98494801D01*
X145327620Y-98494803D01*
X145192913Y-98545045D01*
X145192906Y-98545049D01*
X145077812Y-98631209D01*
X145077809Y-98631212D01*
X144997710Y-98738211D01*
X144941777Y-98780082D01*
X144898444Y-98787900D01*
X144465247Y-98787900D01*
X144406770Y-98799531D01*
X144406769Y-98799532D01*
X144373891Y-98821501D01*
X144307213Y-98842379D01*
X144239833Y-98823894D01*
X144236109Y-98821501D01*
X144203230Y-98799532D01*
X144203229Y-98799531D01*
X144144752Y-98787900D01*
X144144748Y-98787900D01*
X143515252Y-98787900D01*
X143515247Y-98787900D01*
X143456770Y-98799531D01*
X143456769Y-98799532D01*
X143390447Y-98843847D01*
X143346132Y-98910169D01*
X143346131Y-98910170D01*
X143334500Y-98968647D01*
X143334500Y-100218152D01*
X143346131Y-100276629D01*
X143346132Y-100276630D01*
X143390447Y-100342952D01*
X143456769Y-100387267D01*
X143456770Y-100387268D01*
X143515247Y-100398899D01*
X143515250Y-100398900D01*
X143515252Y-100398900D01*
X144144750Y-100398900D01*
X144144751Y-100398899D01*
X144159568Y-100395952D01*
X144203229Y-100387268D01*
X144203231Y-100387267D01*
X144236108Y-100365299D01*
X144302785Y-100344420D01*
X144370165Y-100362904D01*
X144373892Y-100365299D01*
X144399392Y-100382338D01*
X144444196Y-100435950D01*
X144454500Y-100485439D01*
X144454500Y-100608652D01*
X144434815Y-100675691D01*
X144386795Y-100719137D01*
X144379696Y-100722753D01*
X144379696Y-100722754D01*
X144266658Y-100780350D01*
X144266657Y-100780351D01*
X144266652Y-100780354D01*
X144176954Y-100870052D01*
X144176951Y-100870057D01*
X144176950Y-100870058D01*
X144159168Y-100904957D01*
X144119352Y-100983098D01*
X144104500Y-101076875D01*
X144104500Y-101539917D01*
X144107395Y-101558194D01*
X144119354Y-101633704D01*
X144176950Y-101746742D01*
X144176952Y-101746744D01*
X144176954Y-101746747D01*
X144266652Y-101836445D01*
X144266654Y-101836446D01*
X144266658Y-101836450D01*
X144379694Y-101894045D01*
X144379698Y-101894047D01*
X144473475Y-101908899D01*
X144473481Y-101908900D01*
X145086518Y-101908899D01*
X145180304Y-101894046D01*
X145293342Y-101836450D01*
X145383050Y-101746742D01*
X145395679Y-101721955D01*
X145443651Y-101671161D01*
X145511472Y-101654365D01*
X145577607Y-101676902D01*
X145593844Y-101690570D01*
X145764165Y-101860891D01*
X145797650Y-101922214D01*
X145792666Y-101991906D01*
X145774860Y-102024058D01*
X145679901Y-102147810D01*
X145679900Y-102147812D01*
X145619445Y-102293765D01*
X145619444Y-102293769D01*
X145604000Y-102411069D01*
X145604000Y-102442536D01*
X145584315Y-102509575D01*
X145531511Y-102555330D01*
X145462353Y-102565274D01*
X145398797Y-102536249D01*
X145390117Y-102526791D01*
X145389951Y-102526958D01*
X145293347Y-102430354D01*
X145293344Y-102430352D01*
X145293342Y-102430350D01*
X145209816Y-102387791D01*
X145180301Y-102372752D01*
X145086524Y-102357900D01*
X144473482Y-102357900D01*
X144392519Y-102370723D01*
X144379696Y-102372754D01*
X144266658Y-102430350D01*
X144266657Y-102430351D01*
X144266652Y-102430354D01*
X144176954Y-102520052D01*
X144176948Y-102520060D01*
X144167849Y-102537918D01*
X144119873Y-102588713D01*
X144052051Y-102605506D01*
X143985917Y-102582966D01*
X143958992Y-102557108D01*
X143944267Y-102537918D01*
X143938283Y-102530119D01*
X143938282Y-102530118D01*
X143812841Y-102433864D01*
X143804367Y-102430354D01*
X143666762Y-102373356D01*
X143666760Y-102373355D01*
X143510001Y-102352718D01*
X143509999Y-102352718D01*
X143353239Y-102373355D01*
X143353237Y-102373356D01*
X143207160Y-102433863D01*
X143081718Y-102530118D01*
X142985463Y-102655560D01*
X142924956Y-102801637D01*
X142924955Y-102801639D01*
X142904318Y-102958398D01*
X142904318Y-102958401D01*
X142176276Y-102958401D01*
X142190044Y-102925162D01*
X142210682Y-102768400D01*
X142208823Y-102754282D01*
X142194426Y-102644920D01*
X142190044Y-102611638D01*
X142129536Y-102465559D01*
X142033282Y-102340118D01*
X141907841Y-102243864D01*
X141906153Y-102243165D01*
X141761762Y-102183356D01*
X141761760Y-102183355D01*
X141605001Y-102162718D01*
X141604999Y-102162718D01*
X141448239Y-102183355D01*
X141448237Y-102183356D01*
X141302160Y-102243863D01*
X141176716Y-102340119D01*
X141135077Y-102394386D01*
X141078649Y-102435589D01*
X141036701Y-102442900D01*
X140940468Y-102442900D01*
X140873429Y-102423215D01*
X140837366Y-102387791D01*
X140808624Y-102344775D01*
X140753995Y-102308274D01*
X140717495Y-102283885D01*
X140717493Y-102283884D01*
X140717490Y-102283883D01*
X140637137Y-102267900D01*
X140637133Y-102267900D01*
X140149500Y-102267900D01*
X140082461Y-102248215D01*
X140036706Y-102195411D01*
X140025500Y-102143900D01*
X140025500Y-101176240D01*
X140045185Y-101109201D01*
X140097989Y-101063446D01*
X140104698Y-101060616D01*
X140216138Y-101017445D01*
X140397815Y-100904956D01*
X140555728Y-100760999D01*
X140684500Y-100590477D01*
X140779747Y-100399196D01*
X140838224Y-100193671D01*
X140853000Y-100034211D01*
X140853000Y-99832589D01*
X140838224Y-99673129D01*
X140779747Y-99467604D01*
X140779742Y-99467593D01*
X140684503Y-99276328D01*
X140684498Y-99276320D01*
X140555726Y-99105798D01*
X140397815Y-98961844D01*
X140397813Y-98961842D01*
X140216141Y-98849356D01*
X140216135Y-98849353D01*
X140057504Y-98787900D01*
X140016885Y-98772164D01*
X139806841Y-98732900D01*
X139593159Y-98732900D01*
X139383115Y-98772164D01*
X139383112Y-98772164D01*
X139383112Y-98772165D01*
X139183864Y-98849353D01*
X139183858Y-98849356D01*
X139002186Y-98961842D01*
X139002184Y-98961844D01*
X138844273Y-99105798D01*
X138715501Y-99276320D01*
X138715498Y-99276325D01*
X138707718Y-99291950D01*
X138660213Y-99343185D01*
X138592550Y-99360605D01*
X138526210Y-99338677D01*
X138483163Y-99286484D01*
X138441814Y-99192217D01*
X138310156Y-98990700D01*
X138310148Y-98990689D01*
X138147126Y-98813602D01*
X138147116Y-98813593D01*
X137957168Y-98665750D01*
X137957159Y-98665744D01*
X137745468Y-98551184D01*
X137745457Y-98551179D01*
X137560000Y-98487509D01*
X137560000Y-99555897D01*
X137510362Y-99502748D01*
X137381181Y-99424191D01*
X137235596Y-99383400D01*
X137122378Y-99383400D01*
X137010217Y-99398816D01*
X136871542Y-99459051D01*
X136760000Y-99549796D01*
X136760000Y-98487510D01*
X136759999Y-98487509D01*
X136574542Y-98551179D01*
X136574531Y-98551184D01*
X136362840Y-98665744D01*
X136362831Y-98665750D01*
X136172883Y-98813593D01*
X136172873Y-98813602D01*
X136009851Y-98990689D01*
X136009843Y-98990700D01*
X135878187Y-99192213D01*
X135836836Y-99286485D01*
X135791880Y-99339970D01*
X135725143Y-99360660D01*
X135657816Y-99341985D01*
X135612280Y-99291947D01*
X135604502Y-99276328D01*
X135604500Y-99276323D01*
X135562278Y-99220411D01*
X135475726Y-99105798D01*
X135317815Y-98961844D01*
X135317813Y-98961842D01*
X135136141Y-98849356D01*
X135136135Y-98849353D01*
X135043826Y-98813593D01*
X135024705Y-98806185D01*
X134969305Y-98763613D01*
X134945714Y-98697846D01*
X134945500Y-98690559D01*
X134945500Y-91993026D01*
X134945972Y-91982217D01*
X134949264Y-91944593D01*
X134947138Y-91936660D01*
X134939478Y-91908075D01*
X134937150Y-91897573D01*
X134930588Y-91860355D01*
X134930585Y-91860349D01*
X134928760Y-91855333D01*
X134921820Y-91838576D01*
X134919554Y-91833719D01*
X134919554Y-91833716D01*
X134917276Y-91830463D01*
X134897892Y-91802779D01*
X134892080Y-91793656D01*
X134873196Y-91760948D01*
X134873191Y-91760942D01*
X134844255Y-91736662D01*
X134836280Y-91729354D01*
X133304326Y-90197400D01*
X142525833Y-90197400D01*
X142535613Y-90278842D01*
X142535613Y-90278843D01*
X142591079Y-90419495D01*
X142682436Y-90539966D01*
X142775425Y-90610481D01*
X142816948Y-90666673D01*
X142824500Y-90709285D01*
X142824500Y-90822074D01*
X142824500Y-90822076D01*
X142824499Y-90822076D01*
X142839033Y-90895139D01*
X142844628Y-90903513D01*
X142865503Y-90970191D01*
X142847016Y-91037571D01*
X142844628Y-91041287D01*
X142839033Y-91049660D01*
X142824500Y-91122723D01*
X142824500Y-91472078D01*
X142839032Y-91545135D01*
X142839033Y-91545139D01*
X142839034Y-91545140D01*
X142894399Y-91628001D01*
X142958946Y-91671129D01*
X142977260Y-91683366D01*
X142977264Y-91683367D01*
X143050321Y-91697899D01*
X143050324Y-91697900D01*
X143050326Y-91697900D01*
X143355500Y-91697900D01*
X143422539Y-91717585D01*
X143468294Y-91770389D01*
X143479500Y-91821900D01*
X143479500Y-96208065D01*
X143459815Y-96275104D01*
X143424392Y-96311167D01*
X143390447Y-96333848D01*
X143346132Y-96400169D01*
X143346131Y-96400170D01*
X143334500Y-96458647D01*
X143334500Y-97708152D01*
X143346131Y-97766629D01*
X143346132Y-97766630D01*
X143390447Y-97832952D01*
X143456769Y-97877267D01*
X143456770Y-97877268D01*
X143515247Y-97888899D01*
X143515250Y-97888900D01*
X143515252Y-97888900D01*
X144144750Y-97888900D01*
X144144751Y-97888899D01*
X144159568Y-97885952D01*
X144203229Y-97877268D01*
X144203231Y-97877267D01*
X144236108Y-97855299D01*
X144302785Y-97834420D01*
X144370165Y-97852904D01*
X144373892Y-97855299D01*
X144406768Y-97877267D01*
X144406770Y-97877268D01*
X144465247Y-97888899D01*
X144465250Y-97888900D01*
X144465252Y-97888900D01*
X145094750Y-97888900D01*
X145094751Y-97888899D01*
X145109568Y-97885952D01*
X145153229Y-97877268D01*
X145153231Y-97877267D01*
X145186108Y-97855299D01*
X145252785Y-97834420D01*
X145320165Y-97852904D01*
X145323892Y-97855299D01*
X145356768Y-97877267D01*
X145356770Y-97877268D01*
X145415247Y-97888899D01*
X145415250Y-97888900D01*
X145415252Y-97888900D01*
X146044750Y-97888900D01*
X146044751Y-97888899D01*
X146059568Y-97885952D01*
X146103229Y-97877268D01*
X146103229Y-97877267D01*
X146103231Y-97877267D01*
X146169552Y-97832952D01*
X146213867Y-97766631D01*
X146213867Y-97766629D01*
X146213868Y-97766629D01*
X146225499Y-97708152D01*
X146225500Y-97708150D01*
X146225500Y-97532900D01*
X146245185Y-97465861D01*
X146297989Y-97420106D01*
X146349500Y-97408900D01*
X146889372Y-97408900D01*
X146900180Y-97409371D01*
X146937807Y-97412664D01*
X146974319Y-97402879D01*
X146984830Y-97400549D01*
X147022045Y-97393988D01*
X147022050Y-97393984D01*
X147027099Y-97392147D01*
X147043824Y-97385219D01*
X147048681Y-97382954D01*
X147048684Y-97382954D01*
X147079625Y-97361287D01*
X147088744Y-97355479D01*
X147121455Y-97336594D01*
X147121457Y-97336592D01*
X147145736Y-97307656D01*
X147153036Y-97299688D01*
X148989324Y-95463401D01*
X149889318Y-95463401D01*
X149909955Y-95620160D01*
X149909956Y-95620162D01*
X149949153Y-95714793D01*
X149970464Y-95766241D01*
X150066718Y-95891682D01*
X150192159Y-95987936D01*
X150338238Y-96048444D01*
X150416619Y-96058763D01*
X150494999Y-96069082D01*
X150495000Y-96069082D01*
X150495001Y-96069082D01*
X150547254Y-96062202D01*
X150651762Y-96048444D01*
X150797841Y-95987936D01*
X150923282Y-95891682D01*
X150984106Y-95812413D01*
X151040534Y-95771211D01*
X151082482Y-95763900D01*
X151124503Y-95763900D01*
X151191542Y-95783585D01*
X151225423Y-95815850D01*
X151228305Y-95819887D01*
X151311014Y-95902596D01*
X151311015Y-95902596D01*
X151311017Y-95902598D01*
X151416107Y-95953973D01*
X151450173Y-95958936D01*
X151484239Y-95963900D01*
X151484240Y-95963900D01*
X152575761Y-95963900D01*
X152598471Y-95960591D01*
X152643893Y-95953973D01*
X152748983Y-95902598D01*
X152831698Y-95819883D01*
X152883073Y-95714793D01*
X152893000Y-95646660D01*
X153442000Y-95646660D01*
X153451926Y-95714791D01*
X153503303Y-95819885D01*
X153586014Y-95902596D01*
X153586015Y-95902596D01*
X153586017Y-95902598D01*
X153691107Y-95953973D01*
X153725173Y-95958936D01*
X153759239Y-95963900D01*
X153759240Y-95963900D01*
X154850761Y-95963900D01*
X154873471Y-95960591D01*
X154918893Y-95953973D01*
X155023983Y-95902598D01*
X155106698Y-95819883D01*
X155158073Y-95714793D01*
X155168000Y-95646660D01*
X155168000Y-95280140D01*
X155158073Y-95212007D01*
X155106698Y-95106917D01*
X155106696Y-95106915D01*
X155106696Y-95106914D01*
X155023985Y-95024203D01*
X154918891Y-94972826D01*
X154850761Y-94962900D01*
X154850760Y-94962900D01*
X153759240Y-94962900D01*
X153759239Y-94962900D01*
X153691108Y-94972826D01*
X153586014Y-95024203D01*
X153503303Y-95106914D01*
X153451926Y-95212008D01*
X153442000Y-95280139D01*
X153442000Y-95646660D01*
X152893000Y-95646660D01*
X152893000Y-95281432D01*
X152912685Y-95214393D01*
X152941010Y-95183445D01*
X152944061Y-95181078D01*
X153060178Y-95064961D01*
X153060185Y-95064952D01*
X153143781Y-94923598D01*
X153175796Y-94813400D01*
X150884203Y-94813400D01*
X150849611Y-94859471D01*
X150793618Y-94901262D01*
X150723919Y-94906146D01*
X150703001Y-94899580D01*
X150651762Y-94878356D01*
X150651760Y-94878355D01*
X150495001Y-94857718D01*
X150494999Y-94857718D01*
X150338239Y-94878355D01*
X150338237Y-94878356D01*
X150192160Y-94938863D01*
X150066718Y-95035118D01*
X149970463Y-95160560D01*
X149909956Y-95306637D01*
X149909955Y-95306639D01*
X149889318Y-95463398D01*
X149889318Y-95463401D01*
X148989324Y-95463401D01*
X149781296Y-94671429D01*
X149789249Y-94664141D01*
X149818194Y-94639855D01*
X149837082Y-94607138D01*
X149842881Y-94598035D01*
X149864554Y-94567084D01*
X149864554Y-94567081D01*
X149866819Y-94562224D01*
X149873747Y-94545499D01*
X149875587Y-94540446D01*
X149875588Y-94540445D01*
X149882150Y-94503222D01*
X149884479Y-94492716D01*
X149894263Y-94456207D01*
X149890972Y-94418588D01*
X149890500Y-94407780D01*
X149890500Y-94107911D01*
X149910185Y-94040872D01*
X149962989Y-93995117D01*
X150032147Y-93985173D01*
X150089984Y-94009534D01*
X150151152Y-94056470D01*
X150192157Y-94087935D01*
X150192158Y-94087935D01*
X150192159Y-94087936D01*
X150338238Y-94148444D01*
X150357843Y-94151025D01*
X150494999Y-94169082D01*
X150495000Y-94169082D01*
X150495001Y-94169082D01*
X150547254Y-94162202D01*
X150651762Y-94148444D01*
X150702999Y-94127220D01*
X150772466Y-94119751D01*
X150834945Y-94151025D01*
X150849612Y-94167329D01*
X150884203Y-94213400D01*
X153175796Y-94213400D01*
X153143781Y-94103201D01*
X153060185Y-93961847D01*
X153060178Y-93961838D01*
X152944059Y-93845719D01*
X152940996Y-93843343D01*
X152939210Y-93840870D01*
X152938540Y-93840200D01*
X152938648Y-93840091D01*
X152900091Y-93786699D01*
X152893000Y-93745366D01*
X152893000Y-93380139D01*
X152883073Y-93312008D01*
X152871532Y-93288400D01*
X152831698Y-93206917D01*
X152831696Y-93206915D01*
X152831696Y-93206914D01*
X152748985Y-93124203D01*
X152643891Y-93072826D01*
X152575761Y-93062900D01*
X152575760Y-93062900D01*
X151484240Y-93062900D01*
X151484239Y-93062900D01*
X151416108Y-93072826D01*
X151311014Y-93124203D01*
X151228305Y-93206912D01*
X151225423Y-93210950D01*
X151170449Y-93254074D01*
X151124503Y-93262900D01*
X151082482Y-93262900D01*
X151015443Y-93243215D01*
X150984106Y-93214386D01*
X150923282Y-93135118D01*
X150844013Y-93074293D01*
X150802811Y-93017866D01*
X150795500Y-92975918D01*
X150795500Y-92911232D01*
X150815185Y-92844193D01*
X150831815Y-92823555D01*
X151599811Y-92055558D01*
X151612763Y-92044288D01*
X151619023Y-92039560D01*
X151619028Y-92039558D01*
X151650288Y-92005266D01*
X151654202Y-92001167D01*
X151666974Y-91988397D01*
X151666975Y-91988396D01*
X151670082Y-91984654D01*
X151676716Y-91976276D01*
X151694716Y-91956533D01*
X151697217Y-91950076D01*
X151710550Y-91924784D01*
X151710566Y-91924759D01*
X151714457Y-91919081D01*
X151720572Y-91893078D01*
X151725654Y-91876671D01*
X151731978Y-91860349D01*
X151735300Y-91851773D01*
X151735300Y-91844848D01*
X151738594Y-91816456D01*
X151740179Y-91809719D01*
X151736489Y-91783265D01*
X151735300Y-91766135D01*
X151735300Y-90722400D01*
X152384557Y-90722400D01*
X152401565Y-90785881D01*
X152401570Y-90785892D01*
X152501399Y-90999978D01*
X152636894Y-91193482D01*
X152803917Y-91360505D01*
X152997421Y-91496000D01*
X153211507Y-91595829D01*
X153211518Y-91595834D01*
X153274999Y-91612843D01*
X153275000Y-91612842D01*
X153275000Y-90722400D01*
X152384557Y-90722400D01*
X151735300Y-90722400D01*
X151735300Y-89922399D01*
X152384556Y-89922399D01*
X152384557Y-89922400D01*
X153275000Y-89922400D01*
X153275000Y-89031956D01*
X153274999Y-89031955D01*
X153211512Y-89048967D01*
X153211509Y-89048968D01*
X152997422Y-89148799D01*
X152997420Y-89148800D01*
X152803926Y-89284286D01*
X152803920Y-89284291D01*
X152636891Y-89451320D01*
X152636886Y-89451326D01*
X152501400Y-89644820D01*
X152501399Y-89644822D01*
X152401570Y-89858907D01*
X152401565Y-89858918D01*
X152384556Y-89922399D01*
X151735300Y-89922399D01*
X151735300Y-88415433D01*
X151754985Y-88348394D01*
X151771619Y-88327752D01*
X154769152Y-85330219D01*
X154830475Y-85296734D01*
X154856833Y-85293900D01*
X155111421Y-85293900D01*
X155178460Y-85313585D01*
X155224215Y-85366389D01*
X155230081Y-85381903D01*
X155234768Y-85397354D01*
X155332315Y-85579850D01*
X155332317Y-85579852D01*
X155463589Y-85739810D01*
X155560209Y-85819102D01*
X155623550Y-85871085D01*
X155806046Y-85968632D01*
X156004066Y-86028700D01*
X156004065Y-86028700D01*
X156022529Y-86030518D01*
X156210000Y-86048983D01*
X156415934Y-86028700D01*
X156613954Y-85968632D01*
X156796450Y-85871085D01*
X156956410Y-85739810D01*
X157087685Y-85579850D01*
X157185232Y-85397354D01*
X157245300Y-85199334D01*
X157265583Y-84993400D01*
X157245300Y-84787466D01*
X157185232Y-84589446D01*
X157087685Y-84406950D01*
X157035702Y-84343609D01*
X156956410Y-84246989D01*
X156796452Y-84115717D01*
X156796453Y-84115717D01*
X156796450Y-84115715D01*
X156613954Y-84018168D01*
X156547447Y-83997993D01*
X156489009Y-83959696D01*
X156460553Y-83895884D01*
X156471113Y-83826817D01*
X156517337Y-83774423D01*
X156551350Y-83759558D01*
X156673483Y-83726833D01*
X156673492Y-83726829D01*
X156887578Y-83627000D01*
X157081082Y-83491505D01*
X157248105Y-83324482D01*
X157383600Y-83130978D01*
X157483429Y-82916892D01*
X157483434Y-82916881D01*
X157500443Y-82853400D01*
X156511897Y-82853400D01*
X156591761Y-82784198D01*
X156669493Y-82663244D01*
X156710000Y-82525289D01*
X156710000Y-82381511D01*
X156669493Y-82243556D01*
X156591761Y-82122602D01*
X156483100Y-82028448D01*
X156352315Y-81968720D01*
X156245763Y-81953400D01*
X156174237Y-81953400D01*
X156067685Y-81968720D01*
X155936900Y-82028448D01*
X155828239Y-82122602D01*
X155750507Y-82243556D01*
X155710000Y-82381511D01*
X155710000Y-82525289D01*
X155750507Y-82663244D01*
X155828239Y-82784198D01*
X155908103Y-82853400D01*
X154919557Y-82853400D01*
X154936565Y-82916881D01*
X154936570Y-82916892D01*
X155036399Y-83130978D01*
X155171894Y-83324482D01*
X155338917Y-83491505D01*
X155532421Y-83627000D01*
X155746507Y-83726829D01*
X155746516Y-83726833D01*
X155868649Y-83759558D01*
X155928310Y-83795923D01*
X155958839Y-83858769D01*
X155950545Y-83928145D01*
X155906059Y-83982023D01*
X155872552Y-83997993D01*
X155806046Y-84018167D01*
X155675358Y-84088022D01*
X155623550Y-84115715D01*
X155623548Y-84115716D01*
X155623547Y-84115717D01*
X155463589Y-84246989D01*
X155332317Y-84406947D01*
X155234769Y-84589443D01*
X155234768Y-84589446D01*
X155230081Y-84604897D01*
X155191783Y-84663335D01*
X155127970Y-84691791D01*
X155111421Y-84692900D01*
X154748138Y-84692900D01*
X154731010Y-84691711D01*
X154723238Y-84690627D01*
X154723235Y-84690627D01*
X154682972Y-84692488D01*
X154676920Y-84692768D01*
X154671195Y-84692900D01*
X154653156Y-84692900D01*
X154653151Y-84692900D01*
X154648326Y-84693348D01*
X154637697Y-84694581D01*
X154611008Y-84695815D01*
X154604663Y-84698615D01*
X154577380Y-84707065D01*
X154570568Y-84708338D01*
X154570567Y-84708339D01*
X154547857Y-84722399D01*
X154532678Y-84730400D01*
X154508235Y-84741193D01*
X154503336Y-84746093D01*
X154480942Y-84763831D01*
X154475048Y-84767480D01*
X154458949Y-84788798D01*
X154447679Y-84801748D01*
X151269786Y-87979641D01*
X151256835Y-87990912D01*
X151250567Y-87995644D01*
X151219322Y-88029918D01*
X151215374Y-88034053D01*
X151202627Y-88046800D01*
X151199546Y-88050511D01*
X151192885Y-88058919D01*
X151174883Y-88078666D01*
X151174883Y-88078667D01*
X151172378Y-88085133D01*
X151159059Y-88110402D01*
X151155145Y-88116115D01*
X151155143Y-88116120D01*
X151149028Y-88142117D01*
X151143951Y-88158513D01*
X151134300Y-88183426D01*
X151134300Y-88190351D01*
X151131006Y-88218741D01*
X151129421Y-88225477D01*
X151129421Y-88225482D01*
X151133111Y-88251933D01*
X151134300Y-88269064D01*
X151134300Y-91619766D01*
X151114615Y-91686805D01*
X151097981Y-91707447D01*
X150329986Y-92475441D01*
X150317035Y-92486712D01*
X150310767Y-92491444D01*
X150279522Y-92525718D01*
X150275574Y-92529853D01*
X150262827Y-92542600D01*
X150259746Y-92546311D01*
X150253085Y-92554719D01*
X150235083Y-92574466D01*
X150235083Y-92574467D01*
X150232578Y-92580933D01*
X150219259Y-92606202D01*
X150215345Y-92611915D01*
X150215343Y-92611920D01*
X150209228Y-92637917D01*
X150204151Y-92654313D01*
X150194500Y-92679226D01*
X150194500Y-92686151D01*
X150191206Y-92714541D01*
X150189621Y-92721277D01*
X150189621Y-92721282D01*
X150193311Y-92747733D01*
X150194500Y-92764864D01*
X150194500Y-92975918D01*
X150174815Y-93042957D01*
X150145986Y-93074292D01*
X150089986Y-93117264D01*
X150024817Y-93142458D01*
X149956372Y-93128419D01*
X149906382Y-93079605D01*
X149890500Y-93018888D01*
X149890500Y-91821900D01*
X149910185Y-91754861D01*
X149962989Y-91709106D01*
X150014500Y-91697900D01*
X150319676Y-91697900D01*
X150319677Y-91697899D01*
X150392740Y-91683366D01*
X150475601Y-91628001D01*
X150530966Y-91545140D01*
X150545500Y-91472074D01*
X150545500Y-91359285D01*
X150565185Y-91292246D01*
X150594575Y-91260481D01*
X150687563Y-91189966D01*
X150778920Y-91069495D01*
X150834386Y-90928843D01*
X150834386Y-90928842D01*
X150844167Y-90847400D01*
X148285833Y-90847400D01*
X148295613Y-90928842D01*
X148295613Y-90928843D01*
X148351079Y-91069495D01*
X148442436Y-91189966D01*
X148535425Y-91260481D01*
X148576948Y-91316673D01*
X148584500Y-91359285D01*
X148584500Y-91472078D01*
X148599032Y-91545135D01*
X148599033Y-91545139D01*
X148599034Y-91545140D01*
X148654399Y-91628001D01*
X148718946Y-91671129D01*
X148737260Y-91683366D01*
X148737264Y-91683367D01*
X148810321Y-91697899D01*
X148810324Y-91697900D01*
X148810326Y-91697900D01*
X149115500Y-91697900D01*
X149182539Y-91717585D01*
X149228294Y-91770389D01*
X149239500Y-91821900D01*
X149239500Y-94241211D01*
X149219815Y-94308250D01*
X149203181Y-94328892D01*
X146810493Y-96721581D01*
X146749170Y-96755066D01*
X146722812Y-96757900D01*
X146349500Y-96757900D01*
X146282461Y-96738215D01*
X146236706Y-96685411D01*
X146225500Y-96633900D01*
X146225500Y-96458649D01*
X146225499Y-96458647D01*
X146213868Y-96400170D01*
X146213867Y-96400169D01*
X146169552Y-96333847D01*
X146103230Y-96289532D01*
X146103229Y-96289531D01*
X146044752Y-96277900D01*
X146044748Y-96277900D01*
X145415252Y-96277900D01*
X145415247Y-96277900D01*
X145356770Y-96289531D01*
X145356769Y-96289532D01*
X145323891Y-96311501D01*
X145257213Y-96332379D01*
X145189833Y-96313894D01*
X145186108Y-96311500D01*
X145160608Y-96294461D01*
X145115804Y-96240849D01*
X145105500Y-96191360D01*
X145105500Y-96038148D01*
X145125185Y-95971109D01*
X145173205Y-95927663D01*
X145180304Y-95924046D01*
X145293342Y-95866450D01*
X145383050Y-95776742D01*
X145440646Y-95663704D01*
X145440646Y-95663702D01*
X145440647Y-95663701D01*
X145455499Y-95569924D01*
X145455500Y-95569919D01*
X145455499Y-95106882D01*
X145440646Y-95013096D01*
X145383050Y-94900058D01*
X145383046Y-94900054D01*
X145383045Y-94900052D01*
X145293347Y-94810354D01*
X145293343Y-94810351D01*
X145293342Y-94810350D01*
X145291724Y-94809526D01*
X145244386Y-94785405D01*
X145193590Y-94737430D01*
X145176796Y-94669609D01*
X145199334Y-94603474D01*
X145254050Y-94560023D01*
X145263792Y-94556535D01*
X145344399Y-94531417D01*
X145489877Y-94443472D01*
X145610072Y-94323277D01*
X145698018Y-94177796D01*
X145698020Y-94177792D01*
X145725876Y-94088400D01*
X144504000Y-94088400D01*
X144436961Y-94068715D01*
X144391206Y-94015911D01*
X144380000Y-93964400D01*
X144380000Y-92794617D01*
X145180000Y-92794617D01*
X145180000Y-93288400D01*
X145725876Y-93288400D01*
X145725876Y-93288399D01*
X145698020Y-93199007D01*
X145698018Y-93199003D01*
X145610072Y-93053522D01*
X145489877Y-92933327D01*
X145344395Y-92845380D01*
X145344396Y-92845380D01*
X145182105Y-92794809D01*
X145182106Y-92794809D01*
X145180000Y-92794617D01*
X144380000Y-92794617D01*
X144377896Y-92794808D01*
X144291389Y-92821765D01*
X144221529Y-92822915D01*
X144162137Y-92786114D01*
X144132069Y-92723045D01*
X144130500Y-92703379D01*
X144130500Y-91821900D01*
X144150185Y-91754861D01*
X144202989Y-91709106D01*
X144254500Y-91697900D01*
X144559676Y-91697900D01*
X144559677Y-91697899D01*
X144632740Y-91683366D01*
X144715601Y-91628001D01*
X144770966Y-91545140D01*
X144785500Y-91472074D01*
X144785500Y-91122726D01*
X144785500Y-91122723D01*
X144785499Y-91122721D01*
X144770967Y-91049664D01*
X144770967Y-91049663D01*
X144770966Y-91049662D01*
X144770966Y-91049660D01*
X144765372Y-91041289D01*
X144744495Y-90974616D01*
X144762978Y-90907236D01*
X144765338Y-90903561D01*
X144770966Y-90895140D01*
X144785500Y-90822074D01*
X144785500Y-90709285D01*
X144805185Y-90642246D01*
X144834575Y-90610481D01*
X144927563Y-90539966D01*
X144997759Y-90447400D01*
X148285832Y-90447400D01*
X150844167Y-90447400D01*
X150834386Y-90365957D01*
X150834386Y-90365956D01*
X150778920Y-90225304D01*
X150687563Y-90104832D01*
X150594574Y-90034316D01*
X150553051Y-89978124D01*
X150545500Y-89935513D01*
X150545500Y-89822723D01*
X150545499Y-89822721D01*
X150530967Y-89749664D01*
X150530967Y-89749663D01*
X150530966Y-89749662D01*
X150530966Y-89749660D01*
X150525372Y-89741289D01*
X150504495Y-89674616D01*
X150522978Y-89607236D01*
X150525338Y-89603561D01*
X150530966Y-89595140D01*
X150545500Y-89522074D01*
X150545500Y-89172726D01*
X150545500Y-89172723D01*
X150545499Y-89172721D01*
X150530967Y-89099664D01*
X150530966Y-89099660D01*
X150497095Y-89048968D01*
X150475601Y-89016799D01*
X150392740Y-88961434D01*
X150392739Y-88961433D01*
X150392735Y-88961432D01*
X150319677Y-88946900D01*
X150319674Y-88946900D01*
X148810326Y-88946900D01*
X148810323Y-88946900D01*
X148737264Y-88961432D01*
X148737260Y-88961433D01*
X148654399Y-89016799D01*
X148599033Y-89099660D01*
X148599032Y-89099664D01*
X148584500Y-89172721D01*
X148584500Y-89172726D01*
X148584500Y-89522074D01*
X148584500Y-89522076D01*
X148584499Y-89522076D01*
X148599033Y-89595139D01*
X148604628Y-89603513D01*
X148625503Y-89670191D01*
X148607016Y-89737571D01*
X148604628Y-89741287D01*
X148599033Y-89749660D01*
X148584500Y-89822723D01*
X148584500Y-89935513D01*
X148564815Y-90002552D01*
X148535426Y-90034316D01*
X148442436Y-90104832D01*
X148351079Y-90225304D01*
X148295613Y-90365956D01*
X148295613Y-90365957D01*
X148285832Y-90447400D01*
X144997759Y-90447400D01*
X145018920Y-90419495D01*
X145074386Y-90278843D01*
X145074386Y-90278842D01*
X145084167Y-90197400D01*
X142525833Y-90197400D01*
X133304326Y-90197400D01*
X132904326Y-89797400D01*
X142525832Y-89797400D01*
X145084167Y-89797400D01*
X145074386Y-89715957D01*
X145074386Y-89715956D01*
X145018920Y-89575304D01*
X144927563Y-89454832D01*
X144834574Y-89384316D01*
X144793051Y-89328124D01*
X144785500Y-89285513D01*
X144785500Y-89172723D01*
X144785499Y-89172721D01*
X144770967Y-89099664D01*
X144770966Y-89099660D01*
X144737095Y-89048968D01*
X144715601Y-89016799D01*
X144632740Y-88961434D01*
X144632739Y-88961433D01*
X144632735Y-88961432D01*
X144559677Y-88946900D01*
X144559674Y-88946900D01*
X143050326Y-88946900D01*
X143050323Y-88946900D01*
X142977264Y-88961432D01*
X142977260Y-88961433D01*
X142894399Y-89016799D01*
X142839033Y-89099660D01*
X142839032Y-89099664D01*
X142824500Y-89172721D01*
X142824500Y-89285513D01*
X142804815Y-89352552D01*
X142775426Y-89384316D01*
X142682436Y-89454832D01*
X142591079Y-89575304D01*
X142535613Y-89715956D01*
X142535613Y-89715957D01*
X142525832Y-89797400D01*
X132904326Y-89797400D01*
X131807507Y-88700581D01*
X131774022Y-88639258D01*
X131779006Y-88569566D01*
X131820878Y-88513633D01*
X131886342Y-88489216D01*
X131895188Y-88488900D01*
X140790372Y-88488900D01*
X140801180Y-88489371D01*
X140838807Y-88492664D01*
X140875319Y-88482879D01*
X140885830Y-88480549D01*
X140923045Y-88473988D01*
X140923050Y-88473984D01*
X140928099Y-88472147D01*
X140944824Y-88465219D01*
X140949681Y-88462954D01*
X140949684Y-88462954D01*
X140980625Y-88441287D01*
X140989744Y-88435479D01*
X141022455Y-88416594D01*
X141022457Y-88416592D01*
X141046736Y-88387656D01*
X141054036Y-88379688D01*
X144246708Y-85187019D01*
X144308031Y-85153534D01*
X144334389Y-85150700D01*
X146555270Y-85150700D01*
X146585699Y-85147846D01*
X146585701Y-85147846D01*
X146651378Y-85124864D01*
X146713882Y-85102993D01*
X146823150Y-85022350D01*
X146903793Y-84913082D01*
X146926219Y-84848990D01*
X146948646Y-84784901D01*
X146948646Y-84784899D01*
X146951500Y-84754469D01*
X146951500Y-84550200D01*
X148151001Y-84550200D01*
X148151001Y-84750186D01*
X148161494Y-84852897D01*
X148216641Y-85019319D01*
X148216643Y-85019324D01*
X148308684Y-85168545D01*
X148432654Y-85292515D01*
X148581875Y-85384556D01*
X148581880Y-85384558D01*
X148748302Y-85439705D01*
X148748309Y-85439706D01*
X148851019Y-85450199D01*
X150000999Y-85450199D01*
X150001000Y-85450198D01*
X150001000Y-84550200D01*
X150801000Y-84550200D01*
X150801000Y-85450199D01*
X151950972Y-85450199D01*
X151950986Y-85450198D01*
X152053697Y-85439705D01*
X152220119Y-85384558D01*
X152220124Y-85384556D01*
X152369345Y-85292515D01*
X152493315Y-85168545D01*
X152585356Y-85019324D01*
X152585358Y-85019319D01*
X152640505Y-84852897D01*
X152640506Y-84852890D01*
X152650999Y-84750186D01*
X152651000Y-84750173D01*
X152651000Y-84550200D01*
X150801000Y-84550200D01*
X150001000Y-84550200D01*
X148151001Y-84550200D01*
X146951500Y-84550200D01*
X146951500Y-83750200D01*
X148151000Y-83750200D01*
X150001000Y-83750200D01*
X150001000Y-82850200D01*
X150801000Y-82850200D01*
X150801000Y-83750200D01*
X152650999Y-83750200D01*
X152650999Y-83550228D01*
X152650998Y-83550213D01*
X152640505Y-83447502D01*
X152585358Y-83281080D01*
X152585356Y-83281075D01*
X152493315Y-83131854D01*
X152369345Y-83007884D01*
X152220124Y-82915843D01*
X152220119Y-82915841D01*
X152053697Y-82860694D01*
X152053690Y-82860693D01*
X151950986Y-82850200D01*
X150801000Y-82850200D01*
X150001000Y-82850200D01*
X148851028Y-82850200D01*
X148851012Y-82850201D01*
X148748302Y-82860694D01*
X148581880Y-82915841D01*
X148581875Y-82915843D01*
X148432654Y-83007884D01*
X148308684Y-83131854D01*
X148216643Y-83281075D01*
X148216641Y-83281080D01*
X148161494Y-83447502D01*
X148161493Y-83447509D01*
X148151000Y-83550213D01*
X148151000Y-83750200D01*
X146951500Y-83750200D01*
X146951500Y-83545930D01*
X146948646Y-83515500D01*
X146948646Y-83515498D01*
X146903793Y-83387319D01*
X146903792Y-83387317D01*
X146890098Y-83368762D01*
X146823150Y-83278050D01*
X146713882Y-83197407D01*
X146713880Y-83197406D01*
X146585700Y-83152553D01*
X146555270Y-83149700D01*
X146555266Y-83149700D01*
X143446734Y-83149700D01*
X143446730Y-83149700D01*
X143416300Y-83152553D01*
X143416298Y-83152553D01*
X143288119Y-83197406D01*
X143288117Y-83197407D01*
X143178850Y-83278050D01*
X143098207Y-83387317D01*
X143098206Y-83387319D01*
X143053353Y-83515498D01*
X143053353Y-83515500D01*
X143050500Y-83545930D01*
X143050500Y-84754469D01*
X143053353Y-84784899D01*
X143053353Y-84784901D01*
X143098206Y-84913080D01*
X143098207Y-84913082D01*
X143178850Y-85022350D01*
X143242357Y-85069220D01*
X143284606Y-85124864D01*
X143290065Y-85194520D01*
X143256998Y-85256070D01*
X143256403Y-85256669D01*
X140711493Y-87801581D01*
X140650170Y-87835066D01*
X140623812Y-87837900D01*
X130869181Y-87837900D01*
X130844106Y-87834599D01*
X130838808Y-87834135D01*
X130801181Y-87837428D01*
X130790372Y-87837900D01*
X128768825Y-87837900D01*
X128701786Y-87818215D01*
X128656031Y-87765411D01*
X128647934Y-87741492D01*
X128629511Y-87660776D01*
X128629509Y-87660769D01*
X128629508Y-87660763D01*
X128536393Y-87423512D01*
X128408959Y-87202788D01*
X128250050Y-87003523D01*
X128063217Y-86830168D01*
X127852634Y-86686595D01*
X127852630Y-86686593D01*
X127852627Y-86686591D01*
X127852626Y-86686590D01*
X127623006Y-86576012D01*
X127623008Y-86576012D01*
X127379466Y-86500889D01*
X127379462Y-86500888D01*
X127379458Y-86500887D01*
X127258231Y-86482614D01*
X127127440Y-86462900D01*
X127127435Y-86462900D01*
X126872565Y-86462900D01*
X126872559Y-86462900D01*
X126715609Y-86486557D01*
X126620542Y-86500887D01*
X126620539Y-86500888D01*
X126620533Y-86500889D01*
X126376992Y-86576012D01*
X126147373Y-86686590D01*
X126147372Y-86686591D01*
X125936782Y-86830168D01*
X125749952Y-87003521D01*
X125749950Y-87003523D01*
X125591041Y-87202788D01*
X125463608Y-87423509D01*
X125370492Y-87660762D01*
X125370490Y-87660769D01*
X125313777Y-87909245D01*
X125294732Y-88163395D01*
X125294732Y-88163404D01*
X120650500Y-88163404D01*
X120650500Y-83083401D01*
X124994891Y-83083401D01*
X125015300Y-83368762D01*
X125076109Y-83648295D01*
X125176091Y-83916358D01*
X125313196Y-84167447D01*
X125329066Y-84188646D01*
X125329067Y-84188646D01*
X126259159Y-83258553D01*
X126266971Y-83302854D01*
X126337340Y-83465987D01*
X126443433Y-83608494D01*
X126579530Y-83722694D01*
X126738295Y-83802428D01*
X126825895Y-83823189D01*
X125894752Y-84754332D01*
X125915954Y-84770204D01*
X125915960Y-84770207D01*
X126167042Y-84907308D01*
X126167041Y-84907308D01*
X126435104Y-85007290D01*
X126714637Y-85068099D01*
X126999999Y-85088509D01*
X127000001Y-85088509D01*
X127285362Y-85068099D01*
X127564895Y-85007290D01*
X127832958Y-84907308D01*
X128084040Y-84770206D01*
X128105246Y-84754331D01*
X127178223Y-83827307D01*
X127343409Y-83767184D01*
X127491844Y-83669557D01*
X127613764Y-83540330D01*
X127702595Y-83386470D01*
X127740878Y-83258593D01*
X128670931Y-84188646D01*
X128686806Y-84167440D01*
X128823908Y-83916358D01*
X128923890Y-83648295D01*
X128984699Y-83368762D01*
X128991520Y-83273401D01*
X135154390Y-83273401D01*
X135174804Y-83558833D01*
X135235628Y-83838437D01*
X135235630Y-83838443D01*
X135235631Y-83838446D01*
X135335633Y-84106561D01*
X135335635Y-84106566D01*
X135472770Y-84357709D01*
X135472775Y-84357717D01*
X135644254Y-84586787D01*
X135644270Y-84586805D01*
X135846594Y-84789129D01*
X135846612Y-84789145D01*
X136075682Y-84960624D01*
X136075690Y-84960629D01*
X136326833Y-85097764D01*
X136326832Y-85097764D01*
X136326836Y-85097765D01*
X136326839Y-85097767D01*
X136594954Y-85197769D01*
X136594960Y-85197770D01*
X136594962Y-85197771D01*
X136874566Y-85258595D01*
X136874568Y-85258595D01*
X136874572Y-85258596D01*
X137088552Y-85273900D01*
X137231448Y-85273900D01*
X137445428Y-85258596D01*
X137454287Y-85256669D01*
X137725037Y-85197771D01*
X137725037Y-85197770D01*
X137725046Y-85197769D01*
X137993161Y-85097767D01*
X138244315Y-84960626D01*
X138473395Y-84789139D01*
X138675739Y-84586795D01*
X138847226Y-84357715D01*
X138984367Y-84106561D01*
X139084369Y-83838446D01*
X139084371Y-83838437D01*
X139145195Y-83558833D01*
X139145195Y-83558832D01*
X139145196Y-83558828D01*
X139165610Y-83273400D01*
X139145196Y-82987972D01*
X139137675Y-82953400D01*
X139084371Y-82708362D01*
X139084370Y-82708360D01*
X139084369Y-82708354D01*
X138984367Y-82440239D01*
X138942940Y-82364372D01*
X138847229Y-82189090D01*
X138847224Y-82189082D01*
X138745653Y-82053399D01*
X154919556Y-82053399D01*
X154919557Y-82053400D01*
X155810000Y-82053400D01*
X155810000Y-81162956D01*
X155809999Y-81162955D01*
X156610000Y-81162955D01*
X156610000Y-82053400D01*
X157500443Y-82053400D01*
X157500443Y-82053399D01*
X157483434Y-81989918D01*
X157483429Y-81989907D01*
X157383600Y-81775822D01*
X157383599Y-81775820D01*
X157248113Y-81582326D01*
X157248108Y-81582320D01*
X157081082Y-81415294D01*
X156887578Y-81279799D01*
X156673490Y-81179968D01*
X156673487Y-81179967D01*
X156610000Y-81162955D01*
X155809999Y-81162955D01*
X155746512Y-81179967D01*
X155746509Y-81179968D01*
X155532422Y-81279799D01*
X155532420Y-81279800D01*
X155338926Y-81415286D01*
X155338920Y-81415291D01*
X155171891Y-81582320D01*
X155171886Y-81582326D01*
X155036400Y-81775820D01*
X155036399Y-81775822D01*
X154936570Y-81989907D01*
X154936565Y-81989918D01*
X154919556Y-82053399D01*
X138745653Y-82053399D01*
X138675745Y-81960012D01*
X138675729Y-81959994D01*
X138473405Y-81757670D01*
X138473387Y-81757654D01*
X138244317Y-81586175D01*
X138244309Y-81586170D01*
X137993166Y-81449035D01*
X137993167Y-81449035D01*
X137852572Y-81396596D01*
X137725046Y-81349031D01*
X137725043Y-81349030D01*
X137725037Y-81349028D01*
X137445433Y-81288204D01*
X137231450Y-81272900D01*
X137231448Y-81272900D01*
X137088552Y-81272900D01*
X137088549Y-81272900D01*
X136874566Y-81288204D01*
X136594962Y-81349028D01*
X136326833Y-81449035D01*
X136075690Y-81586170D01*
X136075682Y-81586175D01*
X135846612Y-81757654D01*
X135846594Y-81757670D01*
X135644270Y-81959994D01*
X135644254Y-81960012D01*
X135472775Y-82189082D01*
X135472770Y-82189090D01*
X135335635Y-82440233D01*
X135235628Y-82708362D01*
X135174804Y-82987966D01*
X135154390Y-83273398D01*
X135154390Y-83273401D01*
X128991520Y-83273401D01*
X129005109Y-83083401D01*
X129005109Y-83083398D01*
X128984699Y-82798037D01*
X128923890Y-82518504D01*
X128823908Y-82250441D01*
X128686807Y-81999360D01*
X128686804Y-81999354D01*
X128670932Y-81978152D01*
X127740839Y-82908244D01*
X127733029Y-82863946D01*
X127662660Y-82700813D01*
X127556567Y-82558306D01*
X127420470Y-82444106D01*
X127261705Y-82364372D01*
X127174104Y-82343610D01*
X128105246Y-81412467D01*
X128105246Y-81412466D01*
X128084047Y-81396596D01*
X127832957Y-81259491D01*
X127832958Y-81259491D01*
X127564895Y-81159509D01*
X127285362Y-81098700D01*
X127000001Y-81078291D01*
X126999999Y-81078291D01*
X126714637Y-81098700D01*
X126435104Y-81159509D01*
X126167041Y-81259491D01*
X125915954Y-81396596D01*
X125894752Y-81412466D01*
X126821777Y-82339491D01*
X126656591Y-82399616D01*
X126508156Y-82497243D01*
X126386236Y-82626470D01*
X126297405Y-82780330D01*
X126259121Y-82908207D01*
X125329066Y-81978152D01*
X125313196Y-81999354D01*
X125176091Y-82250441D01*
X125076109Y-82518504D01*
X125015300Y-82798037D01*
X124994891Y-83083398D01*
X124994891Y-83083401D01*
X120650500Y-83083401D01*
X120650500Y-81817465D01*
X120650765Y-81809357D01*
X120650828Y-81808389D01*
X120655984Y-81729730D01*
X120667781Y-81564780D01*
X120669840Y-81549491D01*
X120691199Y-81442113D01*
X120691586Y-81440255D01*
X120720166Y-81308875D01*
X120723904Y-81295408D01*
X120760954Y-81186260D01*
X120762150Y-81182901D01*
X120807044Y-81062535D01*
X120811988Y-81051084D01*
X120864028Y-80945558D01*
X120866343Y-80941100D01*
X120926787Y-80830406D01*
X120932482Y-80820999D01*
X120998475Y-80722234D01*
X121002226Y-80716934D01*
X121077207Y-80616771D01*
X121083177Y-80609407D01*
X121161782Y-80519775D01*
X121167269Y-80513917D01*
X121255517Y-80425669D01*
X121261375Y-80420182D01*
X121351007Y-80341577D01*
X121358371Y-80335607D01*
X121458534Y-80260626D01*
X121463834Y-80256875D01*
X121562599Y-80190882D01*
X121572006Y-80185187D01*
X121682700Y-80124743D01*
X121687158Y-80122428D01*
X121792684Y-80070388D01*
X121804135Y-80065444D01*
X121924501Y-80020550D01*
X121927860Y-80019354D01*
X122037008Y-79982304D01*
X122050475Y-79978566D01*
X122181855Y-79949986D01*
X122183713Y-79949599D01*
X122291091Y-79928240D01*
X122306377Y-79926181D01*
X122471336Y-79914383D01*
X122550956Y-79909165D01*
X122559063Y-79908900D01*
X156564540Y-79909735D01*
G37*
%TD.AperFunction*%
%TD*%
M02*
